<?xml version="1.0" encoding="utf-8"?>
<!-- Generator: Adobe Illustrator 19.2.0, SVG Export Plug-In . SVG Version: 6.00 Build 0)  -->
<svg version="1.1" id="linkedin" xmlns="http://www.w3.org/2000/svg" xmlns:xlink="http://www.w3.org/1999/xlink" x="0px" y="0px"
	 viewBox="0 0 200 200" style="enable-background:new 0 0 200 200;" xml:space="preserve">
<style type="text/css">
	.st0{fill:#000066;}
</style>
<g>
	<polygon class="st0" points="45.9,199.1 0,199.1 0,68.5 46.9,68.5 	"/>
	<ellipse class="st0" cx="24" cy="22.4" rx="22.9" ry="20.8"/>
	<path class="st0" d="M159.6,199.1c0,0,0.8-54.4-0.8-73.2c-0.6-6.8-6.5-23.9-20.7-23.4c-22.7,0.8-26.6,22.7-26.6,22.7V199H65.5v-130
		l44.8-0.2l-0.3,21.4c0,0,13.9-28.8,52.9-22.1c22.2,3.7,37,26.6,37,41.2c0,19.8,0,73.6,0,89.7L159.6,199.1L159.6,199.1z"/>
</g>
</svg>
