<?xml version="1.0" encoding="utf-8"?>
<!-- Generator: Adobe Illustrator 19.2.0, SVG Export Plug-In . SVG Version: 6.00 Build 0)  -->
<svg version="1.1" id="Layer_3" xmlns="http://www.w3.org/2000/svg" xmlns:xlink="http://www.w3.org/1999/xlink" x="0px" y="0px"
	 viewBox="0 0 200 200" style="enable-background:new 0 0 200 200;" xml:space="preserve">
<style type="text/css">
	.st0{fill:#000066;}
</style>
<g>
	<path class="st0" d="M100,41.8c-33.1,0-59.9,26.1-59.9,58.2s26.8,58.2,59.9,58.2s59.9-26.1,59.9-58.2S133.1,41.8,100,41.8z
		 M57.1,79.8l5.5-1.5l1.9-5.4l3.1,4.8l5.7,0.1l-3.6,4.4l1.6,5.4l-5.3-2l-4.7,3.3l0.3-5.7L57.1,79.8z M115,114.1
		c-1.9,3.1-3.3,5.4-5.3,8.5c3.9,7.4,12.3,8.9,20.1,11.9c-1.1,4.3-2.1,8.2-3.1,12.2c-0.5,0.3-1,0.5-1.5,0.8
		c-6.4-8.2-12.8-16.4-19.2-24.5c-0.3,0.2-0.6,0.3-0.9,0.5c4.7,7.9,9.4,15.8,14.5,24.5c-2-0.1-2.9,0.1-3.6-0.2
		c-4.4-1.8-7.8-1.1-10.8,3c-2.3,3.1-6.3,4.4-9.2,1.4c-4.1-4.3-8.1-7.2-14.5-3.6c-0.2-0.5-0.4-1-0.6-1.5c4.6-7.8,9.2-15.6,13.8-23.5
		c-0.3-0.2-0.6-0.3-0.9-0.5c-6.3,8.1-12.6,16.2-18.9,24.3c-0.5-0.2-1-0.4-1.5-0.6c-1-3.5-2.2-6.9-2.7-10.4c-0.1-0.9,1.7-2.5,2.9-3.1
		c4.1-2.1,8.6-3.6,12.6-6c3.2-2,6.1-4.7,1.3-8.4c-1.1-0.9-1.5-2.8-2.4-4.9c1.9,0.3,3.1,0.5,4.4,0.8c-3.8-10.2-14.1-10.7-25.6-1.5
		c-0.9-8.3,4.4-16,12-17.4c5.7-1,11.7-1,14.8,4.5c2.6,4.6,3.4,10.1,6,15.5c-0.2-3.1,0.4-6.6-0.7-9.4c-1.5-3.9-3.8-7.9-6.8-10.9
		c-6.3-6.6-7.2-14.1-5.1-22.3c2.6-9.8,8.5-17.6,16.9-27c0.9,2,1.5,3.6,2.3,5.1c3.8,6.3,8.2,12.3,11.2,18.9
		c4.3,9.5,3.1,18.5-4.8,26.2c-4.6,4.5-7.3,10-6.9,16.6c0,0.9,0.5,1.8,1.8,2.8c0.3-1.2,0.7-2.5,0.8-3.7c0.6-11.5,5.4-16.9,15-16.6
		c9.7,0.2,15.8,7.2,15.7,18c-12.3-9.2-21.1-8.9-25.9,1.3C111.5,114.4,112.5,114.3,115,114.1z M140.3,87.6l-5.3-2l-4.7,3.3l0.3-5.7
		l-4.5-3.4l5.5-1.5l1.9-5.4l3.1,4.8l5.7,0.1l-3.6,4.4L140.3,87.6z"/>
	<g>
		<path class="st0" d="M31.2,130c1.3-0.7,2.1-1.1,2.4-1.3c0.3,0.3,0.8,1.1,0.9,1.4c0.1,0.3,0,0.3-0.8,0.8l-8.2,4.3
			c-2.6,1.4-4,1.7-5.4,1.1c-0.7-0.3-1.4-0.8-1.6-1.3c-0.2-0.4,0-0.9,0.4-1.2H19c1.1,1.2,2.1,1.5,5.6-0.3L31.2,130z"/>
		<path class="st0" d="M33.5,134.5c0.8-0.5,1.6-1,2.3-1.5c0.3,0.3,0.8,0.8,1.2,1.3l3,4.6c-0.5,0.3-1,0.3-1.3,0.2
			c-0.3-0.2-0.5-0.6-1-1.4l-1.6-2.5l-3.8,2.5l2.8,4.3c-1.1,0.5-1.5,0.2-1.8-0.4l-2-3.1l-4.1,2.7c0.1,0.5,0.7,1.5,1.3,2.3
			c0.5,0.8,1.3,2,1.8,2.6v0c-0.6,0.2-1.2,0.2-1.6-0.1c-0.2-0.2-0.7-0.9-1.5-2.2c-1-1.5-1.8-2.8-1.9-3.4l0.2-0.5L33.5,134.5z"/>
		<path class="st0" d="M39.1,142.1c0.9-0.7,1.4-1.2,1.8-1.5c0.3,0.2,0.9,0.7,1.4,1.2l3.7,4.4c-0.5,0.3-0.9,0.4-1.2,0.3
			c-0.3,0-0.5-0.4-1.1-1l-2.3-2.7l-3.9,3.2l3.3,4c-1,0.7-1.4,0.4-1.9-0.2l-2.5-3c-1.8,1.5-3.2,2.7-4.4,3.8c-0.3-0.2-0.8-0.7-1.2-1.1
			c-0.2-0.2-0.2-0.3,0-0.5L39.1,142.1z"/>
		<path class="st0" d="M45.1,149c0.8-0.8,1.2-1.3,1.5-1.8c0.3,0.2,1,0.6,1.5,1l4.2,3.9c-0.5,0.4-0.8,0.5-1.2,0.5
			c-0.3,0-0.6-0.3-1.2-0.9l-2.6-2.4l-3.5,3.7l3.8,3.6c-0.9,0.8-1.4,0.5-1.9,0L43,154c-1.6,1.8-2.8,3.1-3.9,4.3
			c-0.3-0.1-0.9-0.6-1.3-1c-0.2-0.2-0.3-0.3,0-0.5L45.1,149z"/>
		<path class="st0" d="M51.6,155.5c0.6-0.8,1.1-1.5,1.6-2.3c0.4,0.2,1,0.4,1.5,0.8l4.4,3.3c-0.4,0.4-0.8,0.6-1.1,0.7
			c-0.3-0.1-0.7-0.3-1.5-0.9l-2.4-1.8l-2.7,3.7l4.1,3c-0.8,0.8-1.3,0.7-1.9,0.3l-3-2.2l-2.9,4c0.3,0.4,1.2,1.1,2,1.7
			c0.8,0.6,1.9,1.4,2.6,1.8v0c-0.5,0.4-1.1,0.6-1.6,0.5c-0.3-0.1-1-0.6-2.2-1.5c-1.5-1.1-2.6-2-3-2.5v-0.5L51.6,155.5z"/>
		<path class="st0" d="M56.1,170.7c-0.2,0.3-0.3,0.4-0.6,0.3c-0.5-0.2-1.2-0.6-1.4-0.7c0.5-0.8,1.1-1.8,2-3.4l3.5-6.4
			c0.5-0.9,0.8-1.4,1-2c0.6,0.2,2.2,0.8,3,1.3c2.6,1.4,3.7,3.2,2.3,5.7c-1,1.9-3.1,1.9-4.1,1.8c0.3,0.6,0.4,1.8,0.5,3.4
			c0.1,2.1,0.3,3.6,0.5,4.2l0,0.1c-0.2,0-0.7-0.2-1.2-0.4c-0.6-0.3-0.9-0.8-1-1.8c-0.1-1.3-0.1-2-0.2-3.6c-0.1-1.6-0.3-2.1-1.3-2.7
			l-0.5-0.3L56.1,170.7z M59.2,165.1c0.7,0.4,1.8,1,2.1,1c0.9,0.2,2-0.1,2.8-1.5c1-1.8,0.1-3.1-1.1-3.8c-0.4-0.2-0.8-0.5-1.2-0.5
			L59.2,165.1z"/>
		<path class="st0" d="M76.5,166.3c-0.2,0.4-0.6,0.9-1.1,0.7c-0.4-0.5-1.1-1-1.8-1.3c-1.1-0.4-2.4-0.3-2.9,1c-0.5,1.2,0.1,2,1.5,3.7
			c1.7,2,2.2,3.1,1.5,4.9c-0.9,2.3-3.3,2.9-5.6,2c-1.3-0.5-2.2-1.3-2.5-1.9c-0.2-0.3-0.3-0.5-0.2-0.7c0.2-0.4,0.5-0.7,0.7-0.8
			c0.5,0.8,1.6,1.7,2.5,2c1.4,0.5,2.7,0.2,3.2-1c0.5-1.3,0-2.1-1.6-3.9c-1.9-2.3-1.7-3.6-1.3-4.8c0.5-1.3,2.2-3.1,5.3-1.8
			C75.1,164.8,76.1,165.6,76.5,166.3z"/>
		<path class="st0" d="M90.1,175.8c-0.8,3.7-3.8,6.6-8.2,5.6c-4.9-1-6-5.3-5.4-8.2c0.8-4.1,4.1-6.6,8.3-5.7
			C88.9,168.4,90.9,172,90.1,175.8z M78.5,173.4c-0.8,3.8,1.2,6.3,3.7,6.8c2.7,0.5,5-1,5.8-4.8c0.7-3.3-0.8-6.1-3.7-6.8
			C81.7,168.1,79.3,169.8,78.5,173.4z"/>
		<path class="st0" d="M92.7,169.4L92.7,169.4c0.3-0.1,1.5-0.2,1.8-0.2c0.2,0,0.3,0.1,0.5,0.4c0.7,1,2.8,4.1,4.9,7.2
			c1,1.6,2,2.9,2.5,4c0-2.2,0-3.5,0-4.6l0.2-6c0-0.5,0.2-0.6,0.4-0.6c0.5,0,0.9,0,1.2,0c-0.1,0.9-0.1,2.2-0.2,4l-0.3,9.6
			c-0.2,0.1-1,0.3-1.3,0.3c-0.2,0-0.3-0.1-0.3-0.2c-1.4-2-3.4-4.9-5.2-7.5c-0.8-1.2-1.5-2.4-2.3-3.8c0,2.6,0,3.7,0,4.9l-0.2,5.6
			c0,0.5-0.2,0.6-0.5,0.6c-0.3,0-0.8,0.1-1.2,0c0.1-0.9,0.1-2.1,0.2-4l0.3-8.8L92.7,169.4z"/>
		<path class="st0" d="M123.5,178.2c0,0.5-0.1,1.1-0.4,1.4c-0.4,0.4-1.5,1-3,1.3c-4.8,1-7.9-1.3-8.7-5.3c-0.9-4.3,1.7-7.7,5.9-8.6
			c2-0.4,3.6-0.1,4.1,0.3c0.1,0.6-0.3,1.1-0.7,1.2c-0.8-0.2-1.9-0.3-3.2,0c-2.8,0.6-4.9,3-4.1,6.7c0.7,3.2,3.2,5.1,6.9,4.4
			c1.3-0.3,2.5-0.9,3.1-1.3L123.5,178.2z"/>
		<path class="st0" d="M136.6,167.7c1.4,3.5,0.6,7.6-3.7,9.3c-4.7,1.9-7.9-1-9.1-3.8c-1.5-3.8-0.3-7.7,3.7-9.4
			C131.5,162.2,135.2,164.1,136.6,167.7z M125.7,172.2c1.4,3.6,4.5,4.6,6.9,3.6c2.6-1,3.6-3.6,2.2-7.2c-1.3-3.1-4.1-4.7-6.8-3.6
			C125.4,166,124.3,168.7,125.7,172.2z"/>
		<path class="st0" d="M140.9,165.8c2.5,3.8,4.6,3.2,6,2.3c1.6-1,2.8-2.7,0.3-6.7l-3.5-5.4c-0.2-0.3-0.1-0.5,0-0.7
			c0.3-0.3,0.8-0.6,1-0.8c0.4,0.8,1.1,1.8,2.1,3.3l1.7,2.6c3.4,5.3,1,7.7-1,8.9c-2.8,1.8-5.5,1.6-8.2-2.6l-2.4-3.7
			c-0.8-1.2-1.3-2-1.5-2.3c0.2-0.2,1-0.8,1.3-1c0.3-0.2,0.4-0.1,1,0.8L140.9,165.8z"/>
		<path class="st0" d="M146.4,153.7L146.4,153.7c0.1-0.3,0.9-1.2,1.1-1.4c0.1-0.1,0.3-0.1,0.7-0.1c1.2,0.2,4.9,1,8.5,1.6
			c1.9,0.4,3.5,0.7,4.6,1.1c-1.6-1.5-2.4-2.5-3.2-3.3l-4.1-4.4c-0.3-0.4-0.3-0.5-0.1-0.7c0.3-0.4,0.6-0.7,0.8-0.9
			c0.6,0.7,1.5,1.6,2.7,3l6.6,7c0,0.2-0.5,0.9-0.8,1.2c-0.1,0.1-0.2,0.1-0.4,0.1c-2.4-0.4-5.8-1.1-9-1.7c-1.4-0.3-2.8-0.7-4.3-1.1
			c1.8,1.8,2.6,2.7,3.4,3.5l3.8,4.1c0.4,0.4,0.3,0.5,0.1,0.8c-0.2,0.3-0.5,0.6-0.8,0.9c-0.5-0.7-1.4-1.6-2.6-2.9l-6-6.4L146.4,153.7
			z"/>
		<path class="st0" d="M159.2,142.2l-2.6,3.3c-0.2,0.3-0.4,0.3-0.6,0c-0.3-0.4-0.3-0.8-0.4-1.1c0.3-0.2,0.6-0.6,2-2.5l4.5-5.8
			c0.5,0.4,0.7,1.1,0.6,1.4l-2.4,3.1l7.6,5.9c1.2,0.9,1.8,1.3,2.1,1.6c-0.2,0.5-0.5,1-0.9,1.4c-0.1,0.2-0.3,0.2-0.5,0L159.2,142.2z"
			/>
		<path class="st0" d="M171.3,136c-0.3-0.2-0.6-0.3-0.9-0.3c-2.1,0.1-6.1,0.5-8.1,0.7l0,0c0.1-0.5,0.3-1.2,0.5-1.6
			c0.1-0.3,0.4-0.3,1.3-0.4c1.5-0.1,4-0.3,6-0.4c-0.6-1.3-2.9-5.7-3.3-6.4c0.3-0.4,0.5-0.8,0.8-1c0.3-0.2,0.5-0.1,0.7,0.4
			c0.5,0.9,3,6.1,3.2,6.6c0.1,0.3,0.4,0.5,0.7,0.6l2.7,1.5c1.3,0.7,1.9,1,2.3,1.2c-0.1,0.4-0.3,0.9-0.7,1.5
			c-0.1,0.2-0.2,0.3-0.5,0.1L171.3,136z"/>
	</g>
	<g>
		<path class="st0" d="M51.2,51.2c3.4-3.3,3.4-8.2-1.3-13c-4.1-4.1-9.6-4.8-13.3-1.2c-3.3,3.3-3.3,8.3,1.3,13
			C42.4,54.7,48,54.2,51.2,51.2z"/>
		<path class="st0" d="M100,0.8C45.2,0.8,0.8,45.2,0.8,100s44.4,99.2,99.2,99.2s99.2-44.4,99.2-99.2S154.8,0.8,100,0.8z M183.4,76.2
			l1,0.4c0.6,1.6,1.2,3.2,1.5,4l-0.1,0.2c-1.3,0-9.2,0-10.7,0c-0.4,0-0.4-0.1-0.5-0.4c0-0.4-0.1-1-0.1-1.3c1,0,4.9,0,9.7,0
			C184,78.4,183.6,77,183.4,76.2L183.4,76.2z M174.5,93.5c2.1,1.7,7,4.2,9.9,5v-4.5c0-1,0.2-1.3,0.4-1.3c0.3,0,0.8,0.4,1,0.8
			c-0.1,0.2-0.2,0.7-0.2,1.6v4.9l-0.1,0c-2.8-0.3-9.7-3.8-10.6-4.6c-0.3-0.3-0.4-0.5-0.5-1c0-0.3-0.1-0.7-0.1-0.9L174.5,93.5z
			 M174.4,84.9L174.4,84.9c2.2,1.7,7.1,4.1,10,4.9v-4.5c0-1,0.2-1.3,0.4-1.3c0.3,0,0.8,0.4,1,0.8c-0.1,0.2-0.2,0.7-0.2,1.6v4.9
			l-0.1,0c-2.8-0.3-9.7-3.8-10.6-4.6c-0.3-0.3-0.4-0.5-0.5-1C174.4,85.4,174.4,85.1,174.4,84.9z M177.2,101.3c1.4,0,2.1,1,2.9,2.3
			c0.8-1.5,1.7-1.9,2.8-1.9c1.6,0,3,1.3,3,3.3c0,1.8-1,3.1-2.7,3.1c-1.3,0-2-0.9-2.8-2c-0.8,1.5-1.4,2.5-3,2.5
			c-1.7,0-3.1-1.5-3.1-3.8C174.4,102,176.2,101.3,177.2,101.3z M171.6,52.5c1.5-0.9,2.8-1.7,4-2.5c0.6,0.5,1.3,1.4,2,2.3l4.9,8.2
			c-0.9,0.4-1.7,0.5-2.3,0.3c-0.5-0.3-0.9-1-1.7-2.4l-2.6-4.5L169,58l4.5,7.6c-1.9,0.8-2.6,0.3-3.2-0.8l-3.3-5.6l-7.4,4.3
			c0.2,0.8,1.2,2.6,2.1,4.1c0.9,1.5,2.1,3.5,3,4.7l0,0.1c-1.1,0.3-2.1,0.2-2.8-0.3c-0.3-0.4-1.1-1.6-2.4-3.8c-1.6-2.7-2.8-5.1-3.1-6
			l0.3-0.8L171.6,52.5z M163,34.7c0.5,0.4,1.5,1.2,2.2,1.9c0.3,0.3,0.2,0.6-1.1,1.8l-14,13.1c0.3,0.7,1.5,2.1,2.6,3.3
			c1.2,1.3,2.8,3,3.9,3.9v0.1c-0.9,0.5-1.9,0.8-2.8,0.3c-0.4-0.3-1.3-1.1-3.1-3.1c-2-2.2-3.6-4.2-4.2-5l0.2-0.9L159.6,38
			C161.4,36.3,162.5,35.2,163,34.7z M147.2,22.6c0.6,0.3,1.8,0.9,2.5,1.4c0.4,0.3,0.3,0.5-0.7,2l-10.9,15.8c0.5,0.6,1.9,1.7,3.2,2.6
			c1.4,1,3.4,2.3,4.7,3v0.1c-0.7,0.7-1.7,1.2-2.7,0.9c-0.5-0.2-1.5-0.8-3.7-2.3c-2.5-1.7-4.5-3.3-5.1-4l0-0.9l10-14.6
			C146,24.6,146.8,23.3,147.2,22.6z M136.4,17.2c0.5,0.1,2.1,0.6,2.7,0.9c0.5,0.3,0.4,0.5-0.3,2l-7.1,15.5c-1.1,2.3-1.5,3.5-1.8,4.2
			c-0.6-0.1-2.1-0.6-2.7-0.9c-0.4-0.2-0.5-0.3-0.3-0.9l7.5-16.5C135.5,19.3,136.2,17.9,136.4,17.2z M112.6,9.9
			c0.5,0.1,0.6,0.6,1,3.3c0.5,3.6,1.5,10.1,2.5,17.7c3.8-5.8,7.9-11.9,11.6-17.7c0.8,0.2,1.6,0.5,2,0.8c0.5,0.3,0.5,0.7,0,1.5
			c-4.2,6.4-8.5,12.4-12.8,18.4c-0.3,0.5-0.7,0.8-1,0.9c-0.4,0.1-1.3,0.1-2.3-0.1c-1.2-8-2.4-16.8-4-24.8
			C110.4,9.9,111.8,9.8,112.6,9.9z M97.7,8.9c1.7,0,4,0.5,4.9,1.4c0,0.7-0.4,1.8-1.3,1.8c-1-0.5-2.4-0.9-3.8-0.8
			c-2,0.1-4,1.1-3.9,3.5c0.1,2.2,1.5,3.2,4.9,4.9c4,2.1,5.6,3.6,5.7,6.9c0.1,4.3-3.3,6.9-7.7,7c-2.5,0.1-4.4-0.6-5.3-1.3
			c-0.5-0.3-0.7-0.6-0.7-1c0-0.7,0.3-1.4,0.5-1.8c1.4,1,3.7,1.6,5.4,1.6c2.7-0.1,4.4-1.5,4.3-3.8c-0.1-2.3-1.5-3.3-5.2-5.2
			c-4.5-2.3-5.1-4.5-5.2-6.7C90.3,13.1,91.8,9.1,97.7,8.9z M82.6,11c0.5-0.1,0.6,0.1,1,1.8L87,29.5c0.5,2.6,0.8,3.8,1,4.5
			c-0.5,0.3-2.1,0.7-2.7,0.8c-0.4,0.1-0.6,0-0.8-0.6l-3.6-17.7c-0.5-2.5-0.8-4-1-4.6C80.3,11.6,82,11.1,82.6,11z M55.3,20.5
			c0.5-0.3,0.7-0.1,1.5,1.6l4.4,9.7c3.3,7.1,7.2,6.7,9.7,5.5C74,36,76.5,33.5,73,25.9l-4.6-10.2c-0.3-0.7-0.1-0.9,0.3-1.2
			c0.7-0.4,1.6-0.8,2-1c0.5,1.4,1.4,3.4,2.7,6.2l2.2,4.8c4.5,9.8-0.2,13.3-4,15.1c-5.1,2.3-9.8,1.5-13.4-6.5L55,26.3
			C54,24,53.3,22.6,53,22C53.4,21.6,54.8,20.8,55.3,20.5z M35.2,35.3c5.2-5.1,12.3-4.5,17,0.3c4.6,4.6,5.9,11.8,0.2,17.3
			c-6.2,6.1-13.3,3.6-17-0.2C30.5,47.6,29.9,40.5,35.2,35.3z M18.7,57.9c0.2-0.4,0.5-0.4,2,0.5L37.4,68c0.5-0.5,1.5-2,2.3-3.4
			c0.8-1.5,2-3.6,2.6-4.9l0.1,0c0.8,0.7,1.3,1.6,1.1,2.6c-0.2,0.5-0.7,1.5-2,3.8c-1.5,2.6-2.9,4.7-3.6,5.5l-0.9,0.1l-15.3-8.8
			c-2.2-1.3-3.6-2-4.2-2.3C17.7,60,18.2,58.7,18.7,57.9z M25.5,91.3c-2.1-1.7-7-4.2-9.9-5v4.5c0,1-0.2,1.3-0.4,1.3
			c-0.3,0-0.8-0.4-1-0.8c0.1-0.2,0.2-0.7,0.2-1.6v-4.9l0.1,0c2.8,0.3,9.7,3.8,10.6,4.6c0.3,0.3,0.4,0.5,0.5,1c0,0.3,0.1,0.7,0.1,0.9
			L25.5,91.3z M25.6,100L25.6,100c-2.2-1.7-7.1-4.1-10-4.9v4.5c0,1-0.2,1.3-0.4,1.3c-0.3,0-0.8-0.4-1-0.8c0.1-0.2,0.2-0.7,0.2-1.6
			v-4.9l0.1,0c2.8,0.3,9.7,3.8,10.6,4.6c0.3,0.3,0.4,0.5,0.5,1C25.6,99.4,25.6,99.7,25.6,100z M16.7,76.7c1.3,0,2,0.9,2.8,2
			c0.8-1.5,1.4-2.5,3-2.5c1.7,0,3.1,1.5,3.1,3.8c0,2.8-1.7,3.6-2.8,3.6c-1.4,0-2.1-1-2.9-2.3c-0.8,1.5-1.7,1.9-2.8,1.9
			c-1.6,0-3-1.3-3-3.3C14.1,77.9,15.1,76.7,16.7,76.7z M14.2,104.1c1.3,0,9.2,0,10.7,0c0.4,0,0.4,0.1,0.5,0.4c0,0.4,0.1,1,0.1,1.3
			c-1,0-4.9,0-9.7,0c0.3,0.7,0.7,2.1,0.9,2.9l0,0l-1-0.4c-0.6-1.6-1.2-3.2-1.5-4L14.2,104.1z M100,195.7
			c-44.3,0-81.6-30.2-92.5-71.1l30.5-8.9c-1.3-5-2-10.3-2-15.7c0-34.4,28.7-62.2,64.1-62.2s64,27.9,64,62.2c0,5.3-0.7,10.5-2,15.4
			l30.6,8.7C182,165.3,144.5,195.7,100,195.7z"/>
		<path class="st0" d="M177.3,107c0.9,0,1.5-0.6,2.3-2.5c-0.6-1-1.3-1.7-2.3-1.7c-1.2,0-1.9,1-1.9,2.1
			C175.4,106.1,176.1,107,177.3,107z"/>
		<path class="st0" d="M183.1,106.7c1,0,1.8-0.7,1.8-1.8c0-0.9-0.6-1.8-1.8-1.8c-1,0-1.5,0.6-2.3,2.1
			C181.5,106.1,182.2,106.7,183.1,106.7z"/>
		<path class="st0" d="M16.8,81.6c1,0,1.5-0.6,2.3-2.1c-0.5-0.8-1.3-1.4-2.2-1.4c-1,0-1.8,0.7-1.8,1.8
			C15.1,80.8,15.7,81.6,16.8,81.6z"/>
		<path class="st0" d="M22.6,82c1.2,0,1.9-1,1.9-2.1c0-1.1-0.6-2-1.8-2c-0.9,0-1.5,0.6-2.3,2.5C21,81.3,21.7,82,22.6,82z"/>
	</g>
</g>
</svg>
