<?xml version="1.0" encoding="utf-8"?>
<!-- Generator: Adobe Illustrator 19.2.0, SVG Export Plug-In . SVG Version: 6.00 Build 0)  -->
<svg version="1.1" id="meetup" xmlns="http://www.w3.org/2000/svg" xmlns:xlink="http://www.w3.org/1999/xlink" x="0px" y="0px"
	 viewBox="0 0 200 200" style="enable-background:new 0 0 200 200;" xml:space="preserve">
<style type="text/css">
	.st0{fill:#000066;}
</style>
<g>
	<path class="st0" d="M95.7,97.5c0.2-2.6,0.1-5.2,0.1-7.8c-0.2,0-0.5-0.1-0.7-0.1c-1.2,3.3-2.3,6.7-3.5,10
		C95.3,100.6,95.5,100.6,95.7,97.5z"/>
	<path class="st0" d="M163.7,108.1c8-4.1,11.9-12.8,8.8-20.6C166.2,92.9,165.3,100.6,163.7,108.1z"/>
	<path class="st0" d="M100,0C44.8,0,0,44.8,0,100s44.8,100,100,100s100-44.8,100-100S155.2,0,100,0z M54.6,118.4
		c-1.4,0.4-1.8-0.1-2.2-1.4c-2.2-7.5-4.6-15-7.1-22.7c-0.1,1-0.3,1.8-0.3,2.7c-0.2,4.5-0.4,9.1-0.7,13.6c0,1.1-0.2,2.2-0.6,3.2
		c-0.3,0.7-1.2,1.3-2,1.5c-1.1,0.3-2.3,0.1-3.4,0.5c-2.8,0.8-4.3-0.6-5.6-2.8c-1.6-2.7-3.2-5.3-4.9-7.9c-0.1,0-0.2,0-0.3,0
		c0.3,2.4,0.6,4.8,1,7.2c0.2,1.4-0.3,2.2-1.6,2.7c-0.3,0.1-0.5,0.3-0.8,0.4c-5.4,2.1-6.4,1.3-7.3-4.3c-1.2-8.1-0.9-16.2-0.6-24.4
		c0-0.5,0.6-1.1,1-1.3c0.9-0.4,1.9-0.6,2.9-0.8c4-0.6,5-0.1,6.9,3.4c1.8,3.5,3.6,7,5.5,10.6c0.2,0.5,0.6,0.9,0.9,1.6
		c0.8-3.9,1.4-7.6,2.4-11.1c1-3.3,2.3-6.7,3.7-9.9c0.2-0.6,1.3-1.1,2-1.1c1.9,0,4-0.1,5.8,0.6c1.1,0.4,2.1,1.9,2.5,3.1
		c1.2,4.2,2.2,8.5,3.2,12.8c1.7,7.5,3.4,15,5.1,22.7C58.5,117.4,56.6,117.8,54.6,118.4z M64.9,115.6c-3.7-2.3-5.1-5.4-5.1-9.5
		c0.1-4.9-0.1-9.7,1.3-14.5c1.1-3.9,3.7-6.3,6.6-8.8c2.8-2.5,5.6-1.6,8.6-1.1c3.4,0.6,4,2.8,4.2,5.5c0.3,4.7,1.2,9.4,0,14.2
		c-0.3,1.2-0.6,1.8-1.9,1.7c-3.3-0.2-6.6-0.4-10.1-0.5c-0.4,3.2-0.6,6.3,1.3,9.2c1.8,2.8,4.1,3.3,7.2,1.9c2.7-1.2,5.6-0.6,7.9,1.7
		C79.8,119.1,70,118.9,64.9,115.6z M97,117.2c-1.5-0.3-3.2-0.3-4.7-0.7c-5.6-1.4-8.9-6.3-9.1-12.1c-0.2-5.6,1.2-10.9,3.4-15.7
		c1.6-3.5,4.6-6.3,7.2-9.3c0.5-0.6,2-0.5,2.8-0.3c1.9,0.5,3.9,1.2,5.6,2.1c0.6,0.3,1.4,1.5,1.3,2.2c-0.1,3.1-0.6,6.1-0.9,9.2
		c-0.4,3.6-0.6,7.3-1,11.1c-3.3,2.1-7,0.8-10.6,0.3c-1.2,3.6,0.5,6.1,2.6,8.5c1.7,2,3.9,2.1,6.1,1.3c1.3-0.5,2.5-1.5,3.8-2.1
		c0.6-0.3,1.3-0.4,2-0.2c1.5,0.4,2.3,1.3,2.4,3.1C104.5,116.4,101.1,118.1,97,117.2z M129.4,101c-2.5,0.4-5,0.7-7.6,1.1
		c-0.9,0.1-1.7,0-1.6,1.4c0.2,2.4,0,4.9,0.1,7.3c0,2.4,0.2,4.9,0.3,7.6c-1.9,0.3-3.7,0.6-5.7,1c-0.1-2.8-0.3-5.6-0.5-8.2
		c-0.2-2.7-0.5-5.4-0.7-8.3c-1.8-0.1-3.5-0.3-5.2-0.3c-1.6,0-2.8-0.5-2.6-2.3c0.1-1.8,1.3-2.4,3-2.3c1.4,0.1,2.8,0.1,4.4,0.2
		c-0.6-5.7-1.2-11-1.7-16.4c-0.3-3.9-0.5-7.8-0.4-11.7c0.1-4.1,1.9-5.1,5.6-3.4c3.9,1.7,3.7,1.9,3.6,6.1c-0.1,6.3,0.2,12.7,0.3,18.9
		c0,1.4-0.4,2.8-0.5,4.2c0,0.6,0.4,1.1,0.6,1.7c0.3-0.4,0.8-0.9,0.8-1.3c0.1-1.3,1-1.8,1.9-1.1c2.2,1.7,4.1,3.6,6.1,5.4
		C129.6,100.5,129.4,100.8,129.4,101z M145.9,114.7c-0.8,0.8-1.8,1.7-2.8,2c-1.9,0.4-3.9,0.6-5.8,0.5c-2.2,0-3.7-1.7-4.1-3.6
		c-1.1-5.1-2-10.3-2.8-15.4c-0.2-1.5-0.2-3-0.1-4.5c0-2.1,1.1-2.8,3.1-2.2c0.6,0.2,1.2,0.5,1.8,0.8c4,1.7,3.9,1.9,3.9,6.1
		c0,4.3,0.5,8.6,0.7,12.9c0,0.5,0.3,1,0.5,1.7c4.6-3.9,6-8.9,6-14.4c0-1.3-0.5-2.6-0.4-3.8c0-0.9,0.5-2,1.1-2.6
		c0.4-0.4,1.5-0.3,2.2-0.1c1,0.3,2,0.9,3,1.3c2.3,1,2.8,2.7,2.7,5.1c-0.2,5-2.7,8.7-5.7,12.2C147.9,112,147,113.5,145.9,114.7z
		 M176,107.2c-2.8,2.3-5.6,4.7-8.5,6.9c-1.1,0.8-2.7,1-4,1.5c-0.9,3.9-0.4,9.6,1.8,18.4c-2.2,0.1-4.4,0.2-6.7,0.1
		c-0.4,0-0.9-1-1-1.7c-0.8-5.3-1.5-10.6-2.3-16c-0.1-0.9-0.6-1.9-1.2-2.5c-1.9-1.7-1.7-3.1,0.6-4.3c0.4-0.2,0.7-1,0.8-1.5
		c1-4.8,1.6-9.6,2.8-14.4c1.4-5.2,4.4-9.4,9.3-11.9c1.3-0.6,3.2-0.5,4.7-0.3c1.5,0.2,2.8,1.2,4.2,1.6c3.9,0.9,4.9,4.1,5.2,7.3
		C182.5,97,181.2,102.9,176,107.2z"/>
	<path class="st0" d="M72.4,97.9c0-2.8-0.1-5.5-0.2-8.1c-0.2,0-0.5-0.1-0.7-0.2c-0.7,1.7-1.5,3.4-2,5.2
		C68.7,97.8,68.8,97.8,72.4,97.9z"/>
</g>
</svg>
