<?xml version="1.0" encoding="utf-8"?>
<!-- Generator: Adobe Illustrator 19.2.0, SVG Export Plug-In . SVG Version: 6.00 Build 0)  -->
<svg version="1.1" xmlns="http://www.w3.org/2000/svg" xmlns:xlink="http://www.w3.org/1999/xlink" x="0px" y="0px"
	 viewBox="0 0 900 900" style="enable-background:new 0 0 900 900;" xml:space="preserve">
<style type="text/css">
	.st0{display:none;}
	.st1{display:inline;fill:#B3B3B3;}
	.st2{fill:#000066;}
	.st3{fill:#FFFFFF;}
	.st4{fill:#FBC926;}
	.st5{fill:none;stroke:#FBC926;stroke-width:4;stroke-miterlimit:10;}
	.st6{fill:#1B1464;}
	.st7{fill:none;}
</style>
<g id="Layer_2" class="st0">
	<rect x="-3" class="st1" width="903" height="903"/>
</g>
<g id="Layer_3">
</g>
<g id="Layer_1">
	<path class="st2" d="M465.3,63c6.8,0.6,13.7,1.2,20.5,2c57.4,6.2,110.1,25.6,157.2,58.9c73.2,51.7,119.6,121.6,138.7,209.2
		c8.7,39.9,9.5,80.2,3.2,120.6C774,523.2,744.3,583.7,696,634.8c-51,53.8-113,88.5-186.1,100.8C398.2,754.5,300,725,217,648.1
		c-53.8-49.8-87-111.9-100.6-184.1c-2.7-14.4-3.6-29.1-5.3-43.7c-0.1-0.9-0.3-1.8-0.5-2.6c0-10.4,0-20.8,0-31.2
		c0.2-1.1,0.5-2.2,0.5-3.3c0.8-16.9,2.9-33.7,6.6-50.3C137,245.4,183.2,175.7,256.2,124c47.2-33.4,99.9-52.9,157.4-59
		c6.8-0.7,13.7-1.3,20.5-2C444.5,63,454.9,63,465.3,63z M765.2,402.2C766.1,230.1,624.6,86,449.4,86.5
		c-176.8,0.4-311.8,143.9-315.3,308.2c-3.8,178.4,140,319.6,308.6,323.1C621.7,721.4,766.3,575.1,765.2,402.2z"/>
	<path class="st2" d="M449.7,611.6c-115.6-0.4-209.5-93.8-209.4-209.7c0.1-115.4,94.1-210.8,212.5-209.1
		c113.7,1.6,206,93.9,206.3,208.9C659.4,517.9,565.3,611.3,449.7,611.6z M425.4,334.1c19.6,0,38.8,0,58.8,0
		c-2.7-13.3-5.3-26.3-8-39.3c-0.2-1-1.3-2-2.3-2.7c-6.4-4.1-13.6-6-21.1-6.1c-7.9-0.1-15.8,0-23.7,0c-1.2,0-2.4,0.1-3.6,0.2
		C425.4,302.3,425.4,318,425.4,334.1z M356.5,461.9c-5-18.7-7.2-37.4-7.8-56.1c-15.1,0-29.8,0-44.8,0c0.2,3.1,0.5,5.9,0.6,8.7
		c0.6,15.1,3.5,29.9,7.7,44.4c0.7,2.5,2,3,4.3,3c11.4-0.1,22.8,0,34.2,0C352.4,461.9,354.2,461.9,356.5,461.9z M356.4,341.7
		c-1.6,0-2.8,0-3.9,0c-11.9,0-23.7,0.1-35.6-0.1c-2.8,0-4.1,0.7-4.9,3.6c-3.8,13-6.2,26.2-7.3,39.7c-0.4,4.3-0.1,8.6-0.1,12.9
		c14.6,0,29.2,0,44,0C349.2,378.9,351.4,360.4,356.4,341.7z M543.5,461.8c0.1,0,0.7,0.1,1.4,0.1c12.6,0,25.3,0,37.9,0.1
		c2.1,0,3-0.7,3.4-2.7c2.4-11.9,5.1-23.7,7.2-35.7c1-5.8,0.8-11.8,1.1-17.9c-15.2,0-29.8,0-43.4,0C548.5,424.6,546,443,543.5,461.8z
		 M594.7,397.9c-0.6-7.6-0.7-15-1.9-22.2c-1.9-10.8-4.5-21.5-6.9-32.3c-0.2-0.7-1.5-1.7-2.3-1.7c-13.3-0.1-26.6-0.1-40-0.1
		c2.5,18.8,5,37.4,7.5,56.2C564.9,397.9,579.3,397.9,594.7,397.9z M472.5,461.8c-0.5-7.9-0.6-15.4-1.5-22.9
		c-0.7-5.5-1.9-11.1-3.6-16.4c-2.1-6.6-6.6-11.3-13.3-13.4c-9.3-2.9-18.9-1.1-28.5-1.6c0,18.4,0,36.3,0,54.3
		C441.1,461.8,456.4,461.8,472.5,461.8z M425.5,384c1.1,0.1,2.1,0.3,3.1,0.2c7.3-0.1,14.7-0.2,22-0.4c10.4-0.3,19.6-3.9,27.1-11.2
		c5.6-5.4,10.7-11.1,8.1-20c-0.7-2.3-0.8-4.9-0.7-7.4c0.1-2.8-0.9-3.6-3.7-3.6c-17.6,0.1-35.2,0.1-52.8,0.1c-1,0-1.9,0.1-3,0.2
		C425.5,356.1,425.5,369.9,425.5,384z M449.2,510.3c0,5.1,0,10.1,0,15.2c7.8,0,15.2,0,22.8,0c1.4-5.1,2.7-10,4-15
		c0.2-0.7,0.2-1.6,0-2.3c-2.8-9.2-3.3-18.6-3.2-28.1c0-3.5,0-7.1,0-10.6c-16.3,0-31.7,0-47.5,0c0,8.3-0.1,16.4,0.1,24.5
		c0.1,3,0.5,6,1.2,9c1.1,4.6,2.8,6,7.4,6.4C438.9,509.7,443.7,509.9,449.2,510.3z M593,461.9c10.4,0,20.2-0.1,30,0.1
		c2.5,0,3.6-0.8,4.2-3.2c2.5-12,5.4-23.9,7.6-35.9c1-5.6,0.8-11.4,1.2-17.2c-11.7,0-22.8,0-34.2,0
		C601.4,424.8,598.6,443.3,593,461.9z M347.6,281.7c-0.3-0.1-0.5-0.3-0.8-0.4c-13.3,15.8-23.7,33.2-31.1,53c14.1,0,27.5,0,40.9-0.1
		c0.9,0,2.1-1.3,2.5-2.3c4.8-11.5,9.5-23,14.1-34.6c0.5-1.2,0.4-3.1-0.2-4.2c-2.7-4.6-6.9-7-12.3-7c-4.3,0-8.5,0-12.8,0
		C347.9,284.3,347.8,283,347.6,281.7z M635.4,397.9c0.1-0.7,0.2-1.2,0.2-1.6c-0.2-18-3.6-35.5-9.2-52.6c-0.6-1.9-1.7-2-3.3-2
		c-8.1,0-16.3,0-24.4,0c-1.7,0-3.5,0-5.7,0c5.6,18.7,8.4,37.2,8.7,56.2C613.1,397.9,624.1,397.9,635.4,397.9z M305.6,461.9
		c-5.7-18.7-8.5-37.2-8.7-56.2c-11.2,0-22,0-33.3,0c0.3,5.2,0.5,10.3,0.9,15.3c1.3,13.3,4.1,26.3,8.3,38.9c0.3,0.8,1.4,1.9,2.2,1.9
		C285,461.9,295.1,461.9,305.6,461.9z M296.9,397.9c0.1-19.2,3.1-37.7,8.6-56.2c-9.9,0-19.3,0.1-28.6-0.1c-2.6-0.1-3.6,0.9-4.1,3.2
		c-2.4,10.5-5.3,20.9-7.2,31.5c-1.3,7-1.4,14.3-2,21.6C274.9,397.9,285.6,397.9,296.9,397.9z M543.8,334.2c13,0,25.7,0,38.6,0
		c-0.2-0.8-0.3-1.5-0.5-2.1c-7.7-19.4-18.2-37-32-52.6c-0.8-0.9-2.5-1.5-3.8-1.5c-8.6-0.1-17.2-0.1-25.8-0.1c-0.8,0-1.6,0.2-2.9,0.3
		C535.5,292.9,544.1,311.3,543.8,334.2z M558.4,277.9c4.1,5.7,8,10.8,11.6,16c8,11.7,14.3,24.2,19.4,37.4c0.4,1.1,1.7,2.8,2.6,2.8
		c10.1,0.2,20.3,0.1,30.7,0.1c-0.2-0.8-0.2-1.4-0.4-1.9c-7.9-19.7-19-37.4-33-53.2c-0.6-0.7-1.7-1.3-2.6-1.3
		C577.5,277.9,568.2,277.9,558.4,277.9z M563.7,525.6c8.3,0,16.1,0.1,24-0.1c0.9,0,2-1,2.7-1.7c13-14.9,23.3-31.5,31-49.7
		c0.6-1.5,1.1-3.1,1.8-4.9c-10.7,0-20.8-0.1-30.9,0.1c-0.9,0-2.3,1.5-2.7,2.6c-4.5,11.8-9.8,23.3-17,33.7
		C568.3,511.7,567,518.8,563.7,525.6z M276.5,469.2c0.2,0.9,0.2,1.6,0.4,2.2c7.9,19.4,18.6,37,32.4,52.7c0.8,0.9,2.5,1.5,3.8,1.5
		c6.2,0.2,12.4,0.1,18.6,0.1c2.6,0,5.3,0,8,0c-0.2-0.7-0.3-1-0.4-1.1c-13.1-16.3-23.6-34-30.8-53.6c-0.3-0.7-1.4-1.6-2.2-1.6
		C296.6,469.2,286.7,469.2,276.5,469.2z M345.3,511.3c6,0,11.6,0.2,17-0.1c3-0.2,6-1,8.8-2c2.2-0.7,2.6-2.2,1.5-4.8
		c-4.6-10.8-8.9-21.6-13.1-32.5c-0.8-2.2-1.8-2.9-4.1-2.8c-12.1,0.1-24.2,0.1-36.3,0.1c-1,0-1.9,0.1-3.3,0.2
		c6.9,18.6,16.6,35.2,29.4,51C345.3,517,345.3,514.4,345.3,511.3z M276.2,334.1c1.7,0.1,2.7,0.2,3.7,0.2c8.4,0,16.7-0.1,25.1,0.1
		c2.5,0.1,3.5-0.9,4.3-3.1c7-18.6,16.8-35.6,29.3-51c0.5-0.6,0.8-1.4,1.5-2.4c-9.3,0-18.1-0.1-26.9,0.1c-1.1,0-2.5,0.9-3.3,1.8
		c-10,11.2-18.4,23.4-25.2,36.7C281.7,322.1,279.1,327.9,276.2,334.1z M543.8,504.6c6.1,0,12.3-0.1,18.5,0c1.9,0,3.1-0.6,4-2.3
		c2.7-4.9,5.8-9.7,8.3-14.7c3-5.9,5.5-12,8.4-18.3c-14.8,0-28.8,0-42.2,0c-4.8,11.5-9.4,22.8-14.1,33.9c-1.9,4.4,1.6,10.5,6.5,10.8
		C539.5,514.6,542.3,512.1,543.8,504.6z M499.9,405.6c0.3,0.6,0.3,0.9,0.4,1c0.6,0.6,1.2,1.1,1.7,1.6c12.6,11.4,19.5,25.4,19,42.7
		c-0.1,3.6,0.3,7.1,0.5,11c3.1,0,5.9-0.3,8.7,0.1c3.5,0.4,5.1-0.8,5.6-4.3c1.9-11.8,4.2-23.5,5.9-35.3c0.8-5.5,0.7-11.1,1-16.8
		C528.2,405.6,514.2,405.6,499.9,405.6z M580.8,534.1c-0.1-0.4-0.2-0.7-0.3-1.1c-6,0-12.1,0.1-18.1,0c-2.8-0.1-5,0.6-7.3,2.5
		c-2.9,2.4-6.6,3.8-9.9,5.6c-1.3,0.7-2.7,1.3-3.7,2.2c-18.9,17.5-40,31.4-63.8,41.2c-0.9,0.4-1.7,0.9-2.5,1.4
		C516.3,580.5,551.4,563,580.8,534.1z M318.5,533.2c14,21.3,84,56.5,103.9,52.2c-2.1-0.9-3.8-1.7-5.5-2.5
		c-23.7-10.5-44.7-24.7-63.1-42.9c-2.3-2.3-4.4-4.5-8.1-3.5c-0.2-1.3-0.4-2.3-0.5-3.3C336.3,533.2,327.7,533.2,318.5,533.2z
		 M579.9,270.6c0.1-0.3,0.2-0.7,0.3-1c-28.6-27.8-62.5-45.1-102.1-51.1c0.6,0.8,1.3,1.3,2,1.7c26.7,11.5,49.9,27.9,70,48.9
		c0.6,0.7,1.6,1.5,2.5,1.5C561.7,270.6,570.8,270.6,579.9,270.6z M319.2,269.6c0.1,0.3,0.2,0.6,0.3,1c7.2,0,14.4,0,21.5,0
		c6.5,0,6.5,0,6.8-6.6c0-0.4,0.2-0.8,0.1-0.4c3.4-1.2,7-1.4,9-3.3c17.2-15.8,36.2-28.7,57.4-38.5c2.1-1,4.1-2,6.1-3
		C381.1,224.8,347.5,242.1,319.2,269.6z M540.5,270.6c0.1-0.3,0.3-0.6,0.4-1c-21.2-21-45.5-37-73.9-46.6c0.1,0.8,0.3,1.3,0.7,1.6
		c15.3,13.2,28.8,28,40.5,44.5c0.5,0.8,1.8,1.4,2.7,1.4C520.9,270.6,530.7,270.6,540.5,270.6z M449,536.5c-6.6,0-12.6,0-19,0
		c5.2,15.6,11.1,30.5,19.3,45c8.7-15.7,15.1-31.6,20.3-48.5c-6.1,0-11.7,0.1-17.3-0.1C450,532.9,448.7,533.5,449,536.5z M376,397.9
		c0-18.9,0-37.4,0-56.2c-3,0-5.7,0.2-8.4-0.1c-3-0.3-4.2,1-4.7,3.7c-2,11.6-4.2,23.2-5.9,34.9c-0.8,5.7-0.7,11.6-1,17.6
		C362.9,397.9,369.3,397.9,376,397.9z M376.1,461.6c0-18.8,0-37.3,0-55.8c-6.9,0-13.4,0-20.1,0c0.3,15.5,2,30.6,5.4,45.5
		c2.6,11.5,2.6,11.5,14.3,10.5C375.8,461.7,375.9,461.7,376.1,461.6z M432.4,580.7c-0.4-0.5-0.8-1.1-1.3-1.5
		c-14.4-12.1-26.9-26-38.2-41c-0.7-1-2.3-1.7-3.6-1.7c-8.8-0.1-17.6-0.1-26.4-0.1c-0.7,0-1.4,0.2-2.6,0.5
		C381.5,556.8,405,571.8,432.4,580.7z M432.2,223.2c-0.2-0.2-0.3-0.5-0.5-0.7c-24.7,8.5-46.3,22.1-66.5,39.8c1.2,0.2,1.6,0.3,2,0.3
		c8.7,0,17.4,0.1,26.1-0.1c1.2,0,2.6-1.1,3.5-2c8.3-9.1,16.4-18.3,24.8-27.3C424.9,229.6,428.7,226.5,432.2,223.2z M543.2,397.9
		c-1.2-12.5-2.4-24.6-3.6-36.6c-0.4,0-0.7,0-1.1,0c-1.8,3.1-3.4,6.2-5.4,9.1c-8.2,11.8-20.1,18-33.7,21.5c-4.5,1.2-4.7,1.6-3.5,6
		C511.3,397.9,526.8,397.9,543.2,397.9z M467.6,262.3c-5.9-13.7-11.7-26.8-17.4-39.9c-0.4,0.1-0.8,0.2-1.2,0.2
		c-7.1,12.5-12.6,25.7-17.3,39.6C443.6,262.3,455.1,262.3,467.6,262.3z M528.8,545.3c-7.5-1.2-14.9-2.2-22.3-3.7
		c-2.3-0.5-3.3-0.1-4.7,1.5c-8,9.1-16,18.1-24.2,26.9c-3.4,3.7-7.4,6.9-11.1,10.3c0.2,0.2,0.3,0.5,0.5,0.7
		C490.1,573.1,510.5,560.7,528.8,545.3z M497.2,537.4c-2.9-2.9-5.7-5-9.9-4.4c-2.3,0.3-4.7,0.2-7.1,0c-2.1-0.2-2.8,0.8-3.5,2.7
		c-4.3,11.5-8.8,22.9-13.2,34.3c-0.4,1-0.7,2-1,2.9c0.3,0.2,0.5,0.3,0.8,0.5C475.8,562.7,487,550.7,497.2,537.4z M400.8,536.4
		c10.7,14.2,22,26.3,35.3,37.5c-4.7-12.5-9.1-24.2-13.5-35.9c-0.3-0.8-1.6-1.6-2.4-1.6C414,536.3,407.9,536.4,400.8,536.4z
		 M496.9,265.9c-10.1-13.2-21.2-25.1-34.2-36.1c0,1.1-0.1,1.6,0,2c3.9,9.7,7.8,19.4,11.8,29c0.4,0.9,1.7,1.8,2.7,2
		C483.5,263.9,489.9,264.8,496.9,265.9z M404.5,262.4c6.4,0,11.9,0.1,17.4-0.1c0.8,0,2-1.2,2.4-2.1c3.8-9.2,7.6-18.5,11.3-27.8
		c0.2-0.6,0.4-1.2,0.6-1.8C424.4,239.7,414.2,250.2,404.5,262.4z M522.3,469.4c0,8.2,0,16,0,23.8c0.4,0.1,0.9,0.1,1.3,0.2
		c3-7.9,6-15.8,9.2-24C528.8,469.4,525.4,469.4,522.3,469.4z M376.2,469.4c-3.5,0-6.5,0-10.3,0c3.2,8.4,6.3,16.3,9.3,24.3
		c0.3-0.1,0.7-0.2,1-0.3C376.2,485.5,376.2,477.6,376.2,469.4z M365.9,334.2c3.7,0,6.8,0,10,0c0-8,0-15.7,0-23.5
		c-0.3-0.1-0.6-0.1-1-0.2C372,318.2,369,326,365.9,334.2z M491.2,333.8c0.4-0.1,0.8-0.1,1.2-0.2c-0.3-7.9-0.8-15.7-5-23
		C488.7,318.4,490,326.1,491.2,333.8z M481.2,520.4c-0.5,2.1-0.9,3.5-1.2,5c1.6,0,2.9,0,4.6,0C483.4,523.7,482.4,522.3,481.2,520.4z
		"/>
	<g>
		<path class="st2" d="M353.3,644.4c-8.6-4.7-16.9-9.3-25.1-13.8c0.4-3,1.4-5.9,1.1-8.6c-1.1-9.1-10-14.5-18.8-11.6
			c-8.7,2.8-17.4,17.6-15.5,26.5c1.3,6,5.3,9.7,11,11.2c5.3,1.4,10.3,0.6,14.1-4.6c4.1,2.6,8.1,5.2,12.1,7.9
			c3.9,2.6,7.9,5.2,11.9,7.9c-3.9,5.9-9.7,8.3-15.9,9.1c-22.6,3.1-52.1-15.2-60.6-36.4c-7.1-17.9,7.9-40.7,25.4-42.8
			c14.6-1.7,27.3,2.8,39.2,10.6c7.2,4.7,13.9,10.1,18.7,17.4c5.1,7.9,7.1,16.3,3.4,25.3C354.1,643.1,353.8,643.6,353.3,644.4z"/>
		<g>
			<path class="st2" d="M560.3,680.3c-10.5-20.6-20.9-40.9-31.4-61.4c0.9-0.6,1.5-1.1,2.3-1.5c13.8-7,27.4-14.1,41.3-20.9
				c4.3-2.1,9-3.5,13.7-4.5c3-0.6,6.3-0.4,9.3,0.4c11.7,2.9,15.3,14.9,7.3,23.9c-0.9,1-2.1,1.7-3.1,2.5c0.2,0.3,0.3,0.7,0.5,1
				c1-0.2,2-0.3,2.9-0.5c9.7-2,19.1,2.6,21.1,10.7c1.9,7.8-1,14.5-7.1,19.2c-4.9,3.9-10.4,7-16,10
				C587.8,666.4,574.2,673.2,560.3,680.3z M577,654.5c4.8-2.4,9.3-4.6,13.7-7.1c1.6-0.9,3.3-2.2,4.3-3.7c0.9-1.6,1.9-4.2,1.2-5.4
				c-0.9-1.6-3.3-2.6-5.3-3.3c-1.1-0.4-2.7,0.1-3.9,0.6c-5.2,2.4-10.3,4.9-15.8,7.6C573.2,647.1,575,650.7,577,654.5z M564.7,630.3
				c4.6-2.4,9-4.6,13.4-6.8c0.9-0.5,1.8-1,2.4-1.8c1.8-1.9,3-4.2,1.5-6.7c-1.4-2.4-3.8-3.3-6.4-2.2c-5.3,2.2-10.6,4.7-16.2,7.2
				C561.3,623.7,562.9,626.9,564.7,630.3z"/>
			<path class="st2" d="M525.4,185c-9.7-2.3-18.6-4.6-27.6-6.6c-1.7-0.4-2.4-1.1-2.7-2.8c-1.5-6.9-3.3-13.8-4.8-20.7
				c-0.6-2.6-1.6-4-4.4-3.9c-1.4,0-2.9-0.4-4.6-0.6c-1.3,8.2-2.5,16.3-3.8,24.6c-8.7-0.9-17-1.8-25.6-2.7c1.1-7,2-13.5,3.1-20
				c2.4-15.2,4.9-30.5,7.2-45.7c0.4-2.5,1.2-3.3,3.6-2.9c15.9,2.5,31.8,4.8,47.7,7.7c4.4,0.8,8.7,3.1,12.5,5.6
				c7.3,4.7,9.4,11.9,7.8,20.1c-1.5,7.9-6.2,13.1-14.3,14.8c-0.8,0.2-1.5,0.5-2.4,0.8C519.7,163.5,522.5,174,525.4,185z
				 M483.5,135.9c2,0.4,3.4,0.7,4.9,0.9c4.6,0.5,9.1,1.2,13.7,1.2c2.9,0,5.5-1.6,5.9-4.9c0.4-3.4-1.6-5.8-4.6-6.6
				c-5.8-1.5-11.8-2.4-18-3.6C484.7,127.6,484.1,131.6,483.5,135.9z"/>
			<path class="st2" d="M222.2,362.9c-22.1-6.7-43.9-13.4-66.2-20.1c3.7-12.5,7.3-24.9,11-37.2c2.4-7.9,4.8-15.7,10.3-22.2
				c5.6-6.7,13.3-9,21.6-6.4c8.5,2.7,12.8,8.2,13.5,17.4c0,0.3,0.1,0.6,0.3,1.5c10.9-1.3,21.8-2.5,33.3-3.9
				c-1.9,4.6-3.6,8.6-5.1,12.7c-1.8,4.6-3.4,9.3-5.4,13.8c-0.4,1-1.7,2-2.7,2.1c-7.5,0.8-15,1.4-22.5,2.2c-1.1,0.1-2.4,1.3-2.9,2.3
				c-0.8,1.6-1.1,3.6-1.7,5.8c8,2.4,15.8,4.8,23.8,7.2C226.9,346.3,224.6,354.4,222.2,362.9z M178.7,322.9c4.1,1.2,7.5,2.3,10.9,3.2
				c0.7,0.2,2.1-0.5,2.2-1c1.5-5,3.1-10.1,4.1-15.2c0.8-3.8-0.9-6.7-3.8-7.7c-2.9-1-5.9,0.1-7.5,3.9
				C182.3,311.5,180.6,317.2,178.7,322.9z"/>
			<path class="st2" d="M294.5,214.1c-0.7,15.2-7.3,27.7-17.5,38.5c-7.7,8.2-16.7,14.4-28.1,16.6c-16.6,3.2-33.3-7.9-36.6-24.4
				c-2.4-12.2,1-23.3,7.2-33.5c8.1-13.3,19-23.5,34.4-27.8C274.7,177.8,295.4,193.7,294.5,214.1z M233.3,228.6
				c0,13.8,12.8,22,25.1,16.1c7.4-3.6,12.2-9.6,14.1-17.6c2.5-10.3-3.8-19.7-14-21.1C245.3,204.2,233.3,214.9,233.3,228.6z"/>
			<path class="st2" d="M696.9,284.6c-5.4-8.3-10.7-16.3-15.3-23.3c2-4.2,4.8-7.6,5.3-11.3c1.2-10.5-8.3-17.9-18.9-15.1
				c-6.3,1.7-11.8,5-16.1,10.1c-3.7,4.4-4.7,9.5-2.6,14.9c2.1,5.5,6.3,8.8,12,9.7c2.1,0.3,4.3-0.6,6.8-1c4.4,8,8.9,16.3,13.6,24.8
				c-5.7,3.1-11.3,2.8-17.1,1c-10.1-3.1-17.2-10.1-23.5-18.1c-8.8-11.2-14.1-23.6-14.5-38.2c-0.7-24.1,27.2-38.4,45.6-29.6
				c12.7,6,21.3,16,27.7,28.2c4.9,9.4,8.6,19.1,7.4,30C706.6,274.1,703.5,280.1,696.9,284.6z"/>
			<path class="st2" d="M468.1,630.8c0.7,5,1.3,9.7,1.9,14.5c1.2,10.1,2.3,20.1,3.6,30.2c0.8,6.5,5.6,9.5,13,8
				c2.5-0.5,4.9-1.7,7.1-3c2.8-1.7,4.1-4.2,3.7-7.7c-1.9-14.7-3.5-29.5-5.4-44.8c6.7-0.9,13.4-1.8,20.6-2.7c0.6,5,1.2,9.8,1.8,14.7
				c1.3,10.7,2.8,21.4,3.8,32.2c1,11.3-3.9,18.6-14.4,23c-12.3,5.1-25.3,5.7-38.2,4.3c-10.3-1.1-16.7-8.3-18.3-19.7
				c-2.1-15-3.7-30.2-5.6-45.7C450.3,633,458.9,631.9,468.1,630.8z"/>
			<path class="st2" d="M605.6,234.5c-4.8-3.7-9.7-7.4-14.6-11.2c-0.5-0.4-0.7-1.8-0.5-2.7c0.6-3.1,1.3-6.2,2.1-9.2
				c0.6-2,0.2-3.4-1.6-4.6c-6-4-11.9-8.1-18.1-12c-1-0.6-3-0.4-4.1,0.1c-2.4,1.3-4.6,2.8-6.7,4.6c-2.3,2-4.2,1.7-6.6,0.2
				c-4.5-2.8-9.1-5.4-14-8.3c7.3-5.1,14.3-10,21.3-14.8c13-9,26-17.9,38.9-27c2.3-1.6,3.8-1.5,5.9-0.1c4.3,3.1,8.8,5.9,13.1,9
				c0.9,0.7,1.7,2.5,1.5,3.6c-5.3,24.1-10.8,48.1-16.3,72.1C606.1,234.3,605.9,234.3,605.6,234.5z M600.9,173.9
				c-0.2-0.2-0.4-0.5-0.6-0.7c-5.2,3.6-10.4,7.1-15.9,10.9c4.3,2.9,8.2,5.5,12.4,8.3C598.2,185.8,599.6,179.8,600.9,173.9z"/>
			<path class="st2" d="M437.3,172.8c-6.1,0.9-12.1,1.9-18.1,2.6c-0.8,0.1-2-0.7-2.6-1.5c-1.9-2.5-3.7-5.2-5.2-7.9
				c-1.1-1.9-2.5-2.4-4.4-2c-7.1,1.6-14.3,3-21.4,4.8c-1,0.2-2.1,1.6-2.4,2.6c-0.7,2.5-1.2,5.1-1.3,7.6c-0.1,3.4-1.4,4.9-4.8,5.6
				c-5,1.1-10,2.7-15.4,4.2c1.1-7.2,2.1-14.1,3.3-21.1c2.9-17.3,5.8-34.6,8.6-51.9c0.3-2,1-3,3-3.4c5.7-1.1,11.4-2.4,17.2-3.4
				c0.8-0.1,2.2,0.5,2.7,1.1c13.5,20.4,26.9,40.9,40.3,61.3C437.1,171.9,437.1,172.2,437.3,172.8z M400.8,149.9
				c-3.8-5.7-7.3-10.9-11.3-16.9c-1.2,7.2-2.2,13.4-3.3,20.1C391.2,151.9,395.7,150.9,400.8,149.9z"/>
			<path class="st2" d="M301,162.9c-6.6,4-12.9,7.9-19.6,11.9c-2.6-4.4-5.2-8.8-8.2-14.1c20.4-11.8,40.7-23.5,61.2-35.3
				c3,5.2,5.5,9.5,8.2,14.2c-6.4,3.5-12.7,6.9-19.4,10.5c8.9,15.4,17.6,30.6,26.4,45.9c-7.5,4.4-14.7,8.5-22.2,12.9
				C318.7,193.6,309.9,178.4,301,162.9z"/>
			<path class="st2" d="M718,315c-2.2-7.5-4.2-14.6-6.4-22c5-1.4,9.9-2.7,15.1-4.2c7.5,22.3,13.5,45,18.3,68.3
				c-5.2,1.4-10,2.7-15.2,4.1c-1.7-7.1-3.3-14-5.1-21.4c-17.2,4.6-34.1,9.1-51.2,13.6c-2.3-8.4-4.4-16.4-6.7-24.7
				C683.8,324.2,700.6,319.7,718,315z"/>
			<path class="st2" d="M423.7,701.3c-19.8-3.8-39.2-7.4-59.2-11.2c5.3-22.9,10.4-45.1,15.7-67.8c8.6,2,17,3.9,25.7,5.9
				c-4,17.2-7.8,34-11.9,51.5c10.6,1.7,21,3.4,31.9,5.2C425.3,689.9,424.6,695,423.7,701.3z"/>
		</g>
	</g>
	<path class="st3" d="M481.2,520.4c1.3,1.9,2.2,3.2,3.4,5c-1.7,0-2.9,0-4.6,0C480.3,524,480.6,522.5,481.2,520.4z"/>
	<g>
		<path class="st4" d="M765.2,402.2c1.1,172.9-143.4,319.2-322.5,315.5c-168.6-3.4-312.4-144.7-308.6-323.1
			c3.5-164.3,138.5-307.8,315.3-308.2C624.6,86,766.1,230.1,765.2,402.2z M449.7,611.6c115.6-0.3,209.8-93.7,209.5-209.9
			c-0.3-115-92.6-207.4-206.3-208.9c-118.4-1.6-212.5,93.8-212.5,209.1C240.2,517.9,334.1,611.2,449.7,611.6z M560.3,680.3
			c13.9-7.1,27.5-13.9,41-21c5.5-2.9,11.1-6.1,16-10c6.1-4.8,8.9-11.4,7.1-19.2c-2-8.1-11.4-12.7-21.1-10.7c-1,0.2-1.9,0.3-2.9,0.5
			c-0.2-0.3-0.3-0.7-0.5-1c1.1-0.8,2.3-1.5,3.1-2.5c8-9,4.4-21.1-7.3-23.9c-3-0.7-6.3-1-9.3-0.4c-4.7,1-9.4,2.4-13.7,4.5
			c-13.9,6.8-27.6,13.9-41.3,20.9c-0.8,0.4-1.4,0.9-2.3,1.5C539.4,639.4,549.7,659.6,560.3,680.3z M525.4,185
			c-2.9-11-5.7-21.6-8.5-32.3c1-0.3,1.7-0.7,2.4-0.8c8.1-1.7,12.8-6.9,14.3-14.8c1.5-8.2-0.6-15.4-7.8-20.1
			c-3.8-2.5-8.1-4.8-12.5-5.6c-15.8-2.9-31.8-5.1-47.7-7.7c-2.5-0.4-3.3,0.5-3.6,2.9c-2.3,15.3-4.8,30.5-7.2,45.7
			c-1,6.5-2,13.1-3.1,20c8.6,0.9,17,1.8,25.6,2.7c1.3-8.3,2.6-16.4,3.8-24.6c1.8,0.2,3.2,0.6,4.6,0.6c2.8-0.1,3.9,1.3,4.4,3.9
			c1.5,6.9,3.3,13.8,4.8,20.7c0.4,1.7,1,2.4,2.7,2.8C506.8,180.5,515.7,182.7,525.4,185z M222.2,362.9c2.4-8.5,4.7-16.6,7-24.8
			c-7.9-2.4-15.8-4.8-23.8-7.2c0.6-2.2,0.9-4.2,1.7-5.8c0.5-1,1.9-2.2,2.9-2.3c7.5-0.9,15-1.4,22.5-2.2c1-0.1,2.3-1.2,2.7-2.1
			c1.9-4.5,3.6-9.2,5.4-13.8c1.6-4,3.3-8.1,5.1-12.7c-11.5,1.3-22.4,2.6-33.3,3.9c-0.2-0.8-0.3-1.2-0.3-1.5
			c-0.7-9.2-5-14.7-13.5-17.4c-8.2-2.6-15.9-0.3-21.6,6.4c-5.4,6.5-7.9,14.3-10.3,22.2c-3.7,12.3-7.3,24.7-11,37.2
			C178.3,349.6,200.1,356.2,222.2,362.9z M294.5,214.1c0.9-20.4-19.8-36.4-40.5-30.6c-15.4,4.3-26.3,14.5-34.4,27.8
			c-6.3,10.3-9.7,21.3-7.2,33.5c3.3,16.5,20,27.6,36.6,24.4c11.3-2.2,20.4-8.4,28.1-16.6C287.2,241.8,293.8,229.3,294.5,214.1z
			 M696.9,284.6c6.6-4.5,9.7-10.5,10.5-17.8c1.2-10.9-2.5-20.6-7.4-30c-6.3-12.3-15-22.2-27.7-28.2c-18.5-8.8-46.3,5.5-45.6,29.6
			c0.4,14.5,5.7,27,14.5,38.2c6.3,8,13.4,14.9,23.5,18.1c5.7,1.8,11.4,2.1,17.1-1c-4.7-8.6-9.2-16.8-13.6-24.8
			c-2.5,0.4-4.7,1.3-6.8,1c-5.8-0.9-10-4.3-12-9.7c-2-5.4-1.1-10.5,2.6-14.9c4.3-5,9.8-8.4,16.1-10.1c10.5-2.8,20.1,4.6,18.9,15.1
			c-0.4,3.7-3.2,7.1-5.3,11.3C686.3,268.3,691.5,276.3,696.9,284.6z M353.3,644.4c0.5-0.8,0.8-1.2,1-1.7c3.7-9.1,1.7-17.4-3.4-25.3
			c-4.8-7.4-11.5-12.7-18.7-17.4c-11.9-7.8-24.6-12.4-39.2-10.6c-17.5,2.1-32.5,24.9-25.4,42.8c8.4,21.2,37.9,39.5,60.6,36.4
			c6.2-0.9,12-3.2,15.9-9.1c-4.1-2.7-8-5.3-11.9-7.9c-4-2.6-8.1-5.2-12.1-7.9c-3.7,5.2-8.7,6-14.1,4.6c-5.7-1.5-9.7-5.2-11-11.2
			c-1.9-9,6.8-23.7,15.5-26.5c8.8-2.8,17.8,2.5,18.8,11.6c0.3,2.7-0.7,5.6-1.1,8.6C336.4,635.1,344.7,639.6,353.3,644.4z
			 M468.1,630.8c-9.2,1.2-17.8,2.3-26.4,3.4c1.9,15.6,3.5,30.7,5.6,45.7c1.6,11.3,8,18.6,18.3,19.7c13,1.4,25.9,0.8,38.2-4.3
			c10.5-4.4,15.4-11.7,14.4-23c-0.9-10.8-2.5-21.5-3.8-32.2c-0.6-4.9-1.2-9.7-1.8-14.7c-7.2,1-13.9,1.8-20.6,2.7
			c1.8,15.3,3.5,30,5.4,44.8c0.4,3.5-0.9,6-3.7,7.7c-2.2,1.3-4.6,2.5-7.1,3c-7.4,1.5-12.2-1.5-13-8c-1.3-10.1-2.4-20.1-3.6-30.2
			C469.4,640.5,468.7,635.7,468.1,630.8z M605.6,234.5c0.4-0.2,0.5-0.2,0.5-0.3c5.5-24,11-48,16.3-72.1c0.2-1.1-0.6-2.9-1.5-3.6
			c-4.3-3.1-8.8-5.9-13.1-9c-2.1-1.5-3.7-1.5-5.9,0.1c-12.9,9.1-25.9,18-38.9,27c-7,4.9-14,9.8-21.3,14.8c4.9,2.9,9.5,5.5,14,8.3
			c2.4,1.5,4.3,1.8,6.6-0.2c2-1.8,4.3-3.4,6.7-4.6c1.1-0.6,3.1-0.8,4.1-0.1c6.1,3.8,12,8,18.1,12c1.8,1.2,2.1,2.6,1.6,4.6
			c-0.8,3-1.6,6.1-2.1,9.2c-0.2,0.8,0,2.2,0.5,2.7C595.8,227.1,600.8,230.8,605.6,234.5z M437.3,172.8c-0.2-0.6-0.2-1-0.4-1.3
			c-13.4-20.5-26.8-40.9-40.3-61.3c-0.5-0.7-1.9-1.3-2.7-1.1c-5.7,1-11.4,2.3-17.2,3.4c-2,0.4-2.6,1.4-3,3.4
			c-2.8,17.3-5.7,34.6-8.6,51.9c-1.1,6.9-2.2,13.9-3.3,21.1c5.4-1.5,10.3-3.1,15.4-4.2c3.3-0.7,4.7-2.3,4.8-5.6
			c0.1-2.6,0.6-5.2,1.3-7.6c0.3-1,1.4-2.4,2.4-2.6c7.1-1.7,14.2-3.2,21.4-4.8c2-0.4,3.4,0,4.4,2c1.5,2.8,3.3,5.4,5.2,7.9
			c0.5,0.7,1.8,1.6,2.6,1.5C425.2,174.7,431.2,173.7,437.3,172.8z M301,162.9c8.9,15.5,17.7,30.7,26.5,45.9
			c7.5-4.3,14.7-8.5,22.2-12.9c-8.8-15.3-17.6-30.5-26.4-45.9c6.7-3.6,13-7,19.4-10.5c-2.7-4.6-5.2-9-8.2-14.2
			c-20.5,11.8-40.8,23.6-61.2,35.3c3.1,5.3,5.7,9.7,8.2,14.1C288,170.8,294.4,166.9,301,162.9z M718,315
			c-17.3,4.6-34.1,9.1-51.2,13.7c2.2,8.3,4.4,16.3,6.7,24.7c17.1-4.5,34-9.1,51.2-13.6c1.8,7.4,3.4,14.2,5.1,21.4
			c5.2-1.4,10.1-2.7,15.2-4.1c-4.8-23.3-10.8-45.9-18.3-68.3c-5.2,1.4-10.1,2.8-15.1,4.2C713.8,300.4,715.8,307.5,718,315z
			 M423.7,701.3c0.9-6.2,1.6-11.4,2.2-16.4c-10.9-1.8-21.2-3.5-31.9-5.2c4-17.5,7.9-34.4,11.9-51.5c-8.8-2-17.1-4-25.7-5.9
			c-5.2,22.7-10.4,44.9-15.7,67.8C384.5,693.8,403.9,697.5,423.7,701.3z"/>
		<path class="st4" d="M577,654.5c-2-3.8-3.8-7.4-5.8-11.3c5.5-2.7,10.6-5.2,15.8-7.6c1.2-0.5,2.8-1,3.9-0.6c2,0.7,4.4,1.7,5.3,3.3
			c0.7,1.2-0.3,3.8-1.2,5.4c-0.9,1.5-2.6,2.8-4.3,3.7C586.3,649.9,581.8,652.1,577,654.5z"/>
		<path class="st4" d="M564.7,630.3c-1.7-3.4-3.4-6.6-5.3-10.3c5.6-2.5,10.9-4.9,16.2-7.2c2.7-1.1,5-0.2,6.4,2.2
			c1.5,2.5,0.3,4.8-1.5,6.7c-0.7,0.7-1.6,1.3-2.4,1.8C573.7,625.7,569.3,627.9,564.7,630.3z"/>
		<path class="st4" d="M483.5,135.9c0.6-4.3,1.2-8.3,1.9-13.1c6.2,1.2,12.2,2.1,18,3.6c3,0.8,5,3.2,4.6,6.6c-0.4,3.4-3,4.9-5.9,4.9
			c-4.6,0-9.1-0.7-13.7-1.2C486.9,136.6,485.5,136.3,483.5,135.9z"/>
		<path class="st4" d="M178.7,322.9c2-5.8,3.6-11.4,5.9-16.8c1.6-3.8,4.6-4.9,7.5-3.9c2.9,1,4.7,3.8,3.8,7.7
			c-1.1,5.1-2.6,10.2-4.1,15.2c-0.2,0.5-1.6,1.2-2.2,1C186.1,325.3,182.7,324.2,178.7,322.9z"/>
		<path class="st4" d="M233.3,228.6c0-13.8,11.9-24.5,25.3-22.6c10.1,1.4,16.4,10.8,14,21.1c-1.9,8-6.7,14-14.1,17.6
			C246.1,250.7,233.4,242.4,233.3,228.6z"/>
		<path class="st4" d="M600.9,173.9c-1.3,6-2.7,11.9-4.1,18.4c-4.2-2.8-8.1-5.4-12.4-8.3c5.5-3.8,10.7-7.3,15.9-10.9
			C600.5,173.4,600.7,173.6,600.9,173.9z"/>
		<path class="st4" d="M400.8,149.9c-5,1.1-9.5,2-14.6,3.1c1.1-6.7,2.1-12.8,3.3-20.1C393.5,139,397,144.2,400.8,149.9z"/>
	</g>
	<path class="st5" d="M572.7,504.4c0,0-23.2-0.3-29.3-0.3c-1.5,7.5-4.3,9.6-10.6,9.6c-12.3-0.1-11.6-19.8-11.7-21.1
		c-0.6-7,0-24.4,0-24.4s0.1-6.3,0.1-7.2c-0.2-3.9-0.6-7.3-0.5-10.9c0.5-17.3-5.4-30.7-18-42.1c-0.6-0.5-3-2.9-3.2-3.1
		c-2.1-2.4-5-7.9-5-7.9c-1.2-3.7,0-5.1,4.5-6.3c13.6-3.5,24.1-10.3,33.7-21.1c3.4-3.9,10.5-22.1,10.5-28.8c0-4.6,0.3-8.4,0.3-8.4
		c0.3-22.5-8.2-40.5-25.8-55c0,0-6.8-6.5-9.1-7.6c-3.7-1.8-8.2-3.4-11.9-4.5c-5.2-1.4-15.2-1.4-15.2-1.4c-3.8-0.6-19.1-0.4-19.1-0.4
		h-31c0,0-33.3-1.6-44.1-1.3c-4.8,0.1-41.1,0.4-41.1,0.7v22.5c4,0,9.3,0,13.5,0c5.4,0,9.5,2.8,12.7,7c3,4,2.9,17.5,2.9,17.6
		c0,0,0,189.2,0,189.9c0,5.7-3.8,10.5-8.6,10.5c-0.4,0-3.5,0.3-4.6,0.3c-5.1,0.3-11.9,0-15.9-0.1v28.8h102.2l-1.5-28.8
		c-6.2-0.3-9.3-1.1-14.1-1.5c-4.6-0.4-6.8-2.2-7.9-6.8c-0.7-2.9-0.4-5.7-0.5-8.7c0-1.9-0.2-22.5-0.2-22.5v-38.5v-25.8
		c8,0.5,19.7-1.3,29.1,1.6c6.7,2.1,11.5,6.8,13.6,13.4c1.7,5.3,3.1,10.6,3.7,16.1c0.9,7.5,1.1,15.1,1.5,22.6l0.4,8.7
		c0,2.5,0.1,6.8,0,10.4c-0.1,9.5,0.8,18.7,3.2,27.9c4.8,18.6,18.4,26.2,21.2,29.1c4.5,3,7.1,3.8,9.4,4.3c7.3,1.5,14.6,3.7,22.2,3.7
		c6.7,0,15.1-3.5,16.3-4.2c3.3-1.8,7-3.3,9.9-5.6c2.3-1.9,6.9-6.4,8.6-9.8c3.4-6.8,4.6-13.7,8.8-19.8
		C572.2,504.9,572.4,504.4,572.7,504.4z M490.7,332.9c0,7.1-4.2,22.5-5,23.7c-0.2,1.1-5.7,11.6-9.3,15c-7.5,7.3-16.3,10.8-26.7,11.2
		c-7.3,0.2-15,0.3-22.3,0.4c-1,0-2.4-0.2-3.4-0.2v-97.7c1-0.1,2.9-0.2,4.1-0.2c7.9,0,16.1-0.1,24,0c7.6,0.1,14.5,2.5,21.3,6.1
		c5,2.6,11.8,15.2,13.6,19.3C489.1,315.4,490.7,332.9,490.7,332.9z"/>
	<path class="st6" d="M362.9,249.5"/>
	<path class="st6" d="M488.8,548.3"/>
	<path class="st6" d="M437.6,521.1"/>
	<path class="st5" d="M458.4,519.2"/>
	<rect x="402.3" y="575.1" class="st7" width="95.4" height="22.5"/>
	<g>
		<g>
			<path class="st2" d="M201.3,429.5c4.4,8.8,8.4,16.3,12,24.1c3.4,7.3,2.9,14.8,0.1,22.2c-3.1,8.2-6,16.4-9.2,24.6
				c-0.4,1-2.1,2.4-3.1,2.2c-1.2-0.2-2.7-1.5-3.2-2.7c-2.9-7.6-5.1-15.4-8.2-22.8c-3.5-8.3-3.9-16.4-0.1-24.5
				C193.2,445.2,197,437.9,201.3,429.5z"/>
			<path class="st2" d="M206.3,501.5c2-10.6,6.1-20.2,15.4-26.5c6.2-4.2,13.3-4.6,19.7-0.5c5.9,3.7,8.7,9.6,7.8,16.6
				c-0.9,7.1-5.4,11.7-12.4,14.3c-0.2-0.8-0.5-1.3-0.4-1.7c2.7-10.6-5.8-16.5-15.5-12.1c-3.5,1.6-6.3,5-9.3,7.7
				c-1.3,1.1-2.5,2.4-3.8,3.6C207.3,502.4,206.8,501.9,206.3,501.5z"/>
			<path class="st2" d="M194.6,502.7c-1.3-1.1-2.9-2.1-3.8-3.5c-3-4.9-7.3-7.5-12.8-8.6c-8.3-1.6-13.5,3.5-12.3,11.9
				c0.1,0.8,0.2,1.6,0.4,2.4c-9.4-2-14.9-11.4-12.3-20.4c3-10.1,12.7-15.1,22.7-11.6c6.7,2.3,11.1,7.2,14.1,13.2
				c2.4,4.8,4,9.9,5.9,14.9C196,501.7,195.3,502.2,194.6,502.7z"/>
			<path class="st2" d="M200.4,540.5c-1.4-3.1-2.7-6.2-4.1-9.3c-1.4,0.1-3,0.3-4.3,0.4c2.2-5.5,4.2-10.8,6.4-16
				c0.3-0.8,1.7-1.6,2.6-1.6c0.9,0,2.3,0.7,2.7,1.4c2.3,5.2,4.3,10.6,6.6,16.3c-1.7-0.1-3.2-0.2-4.7-0.4c-1.3,3-2.5,6.1-3.7,9.1
				C201.4,540.4,200.9,540.4,200.4,540.5z"/>
			<path class="st2" d="M222.3,512.8c2.7,4.1,2.3,8.7-0.9,11.3c-3,2.4-8.6,2.3-11.3-0.8c-1.8-2-2.7-4.8-3.7-7.3
				c-0.3-0.7,0.5-2.3,1.2-2.6c0.8-0.4,2.3-0.1,3,0.5C216.8,519.8,218,519.7,222.3,512.8z"/>
			<path class="st2" d="M180.1,512.1c3.6,7.9,6.8,8.3,11.6,2.4c0.6-0.7,1.8-1.3,2.7-1.3c0.6,0,1.6,1.3,1.6,2
				c-0.2,4.2-1.5,7.9-5.5,9.7c-3.7,1.7-7.5,1.7-10.4-1.7C177.3,520,177.5,516.4,180.1,512.1z"/>
			<path class="st2" d="M201.4,511.9c-2.7-0.5-5.3-0.6-7.4-1.7c-1.3-0.7-1.8-3-2.7-4.5c1.4-0.5,2.7-1.3,4.1-1.3
				c3.9-0.2,7.8-0.1,11.7,0c1.3,0.1,2.5,0.7,3.7,1.2c-0.7,1.5-0.9,3.8-2,4.4C206.5,511.2,203.8,511.4,201.4,511.9z"/>
		</g>
		<g>
			<path class="st2" d="M698.3,429.5c4.4,8.8,8.4,16.3,12,24.1c3.4,7.3,2.9,14.8,0.1,22.2c-3.1,8.2-6,16.4-9.2,24.6
				c-0.4,1-2.1,2.4-3.1,2.2c-1.2-0.2-2.7-1.5-3.2-2.7c-2.9-7.6-5.1-15.4-8.2-22.8c-3.5-8.3-3.9-16.4-0.1-24.5
				C690.2,445.2,694.1,437.9,698.3,429.5z"/>
			<path class="st2" d="M703.4,501.5c2-10.6,6.1-20.2,15.4-26.5c6.2-4.2,13.3-4.6,19.7-0.5c5.9,3.7,8.7,9.6,7.8,16.6
				c-0.9,7.1-5.4,11.7-12.4,14.3c-0.2-0.8-0.5-1.3-0.4-1.7c2.7-10.6-5.8-16.5-15.5-12.1c-3.5,1.6-6.3,5-9.3,7.7
				c-1.3,1.1-2.5,2.4-3.8,3.6C704.4,502.4,703.9,501.9,703.4,501.5z"/>
			<path class="st2" d="M691.6,502.7c-1.3-1.1-2.9-2.1-3.8-3.5c-3-4.9-7.3-7.5-12.8-8.6c-8.3-1.6-13.5,3.5-12.3,11.9
				c0.1,0.8,0.2,1.6,0.4,2.4c-9.4-2-14.9-11.4-12.3-20.4c3-10.1,12.7-15.1,22.7-11.6c6.7,2.3,11.1,7.2,14.1,13.2
				c2.4,4.8,4,9.9,5.9,14.9C693,501.7,692.3,502.2,691.6,502.7z"/>
			<path class="st2" d="M697.4,540.5c-1.4-3.1-2.7-6.2-4.1-9.3c-1.4,0.1-3,0.3-4.3,0.4c2.2-5.5,4.2-10.8,6.4-16
				c0.3-0.8,1.7-1.6,2.6-1.6c0.9,0,2.3,0.7,2.7,1.4c2.3,5.2,4.3,10.6,6.6,16.3c-1.7-0.1-3.2-0.2-4.7-0.4c-1.3,3-2.5,6.1-3.7,9.1
				C698.4,540.4,697.9,540.4,697.4,540.5z"/>
			<path class="st2" d="M719.3,512.8c2.7,4.1,2.3,8.7-0.9,11.3c-3,2.4-8.6,2.3-11.3-0.8c-1.8-2-2.7-4.8-3.7-7.3
				c-0.3-0.7,0.5-2.3,1.2-2.6c0.8-0.4,2.3-0.1,3,0.5C713.9,519.8,715,519.7,719.3,512.8z"/>
			<path class="st2" d="M677.1,512.1c3.6,7.9,6.8,8.3,11.6,2.4c0.6-0.7,1.8-1.3,2.7-1.3c0.6,0,1.6,1.3,1.6,2
				c-0.2,4.2-1.5,7.9-5.5,9.7c-3.7,1.7-7.5,1.7-10.4-1.7C674.4,520,674.5,516.4,677.1,512.1z"/>
			<path class="st2" d="M698.5,511.9c-2.7-0.5-5.3-0.6-7.4-1.7c-1.3-0.7-1.8-3-2.7-4.5c1.4-0.5,2.7-1.3,4.1-1.3
				c3.9-0.2,7.8-0.1,11.7,0c1.3,0.1,2.5,0.7,3.7,1.2c-0.7,1.5-0.9,3.8-2,4.4C703.6,511.2,700.8,511.4,698.5,511.9z"/>
		</g>
	</g>
	<g>
		<path class="st2" d="M265.1,798.4c0-5.9-0.1-9.5-0.3-11.3c1.5-0.3,4.6-0.7,6.7-0.7c1.1,0,1.3,0.5,1.3,4.8v44.9
			c1.7,0.5,6,0.8,9.7,0.8c4,0,9.6-0.1,13-0.4l0.2,0.2c-0.4,2.4-1.8,4.5-4,5.3c-1.1,0.2-4,0.4-10.2,0.4c-7,0-12.9-0.4-15.2-0.9
			l-1.2-1.7V798.4z"/>
		<path class="st2" d="M354,813.7c0,15.2-9.3,29.3-28,29.3c-20.4,0-28.2-15.9-28.2-28.2c0-16.7,10.7-29.5,28.2-29.5
			C343.1,785.4,354,798,354,813.7z M306.3,814.1c0,15.5,10,24,20.3,24c11.1,0,19-8.1,19-23.9c0-13.6-8.2-23.8-20.3-23.8
			C314.5,790.4,306.3,799,306.3,814.1z"/>
		<path class="st2" d="M371.6,816.2c0,18.3,8.7,21.1,15.3,21.1c7.8,0,15.5-2.8,15.5-22.3v-26.2c0-1.7,0.7-2,1.7-2.2
			c1.8-0.2,4.2-0.3,5.3-0.3c-0.2,3.4-0.3,8.6-0.3,15.9v12.4c0,25.3-13.3,28.3-23.1,28.3c-13.2,0-22.3-6.4-22.3-26.9v-17.8
			c0-5.9-0.1-9.5-0.3-11.3c1.2-0.3,5.1-0.7,6.5-0.7s1.6,0.5,1.6,4.8V816.2z"/>
		<path class="st2" d="M422.1,798.2c0-5.9-0.1-9.5-0.3-11.1c1.1-0.3,5.1-0.7,6.6-0.7c1.3,0,1.4,0.6,1.4,4.6v39.8
			c0,6.1,0.2,9,0.3,10.7c-1.3,0.4-5.1,0.7-6.6,0.7c-1,0-1.4-0.3-1.4-1.7V798.2z"/>
		<path class="st2" d="M468.6,789.1c0,1.7-1.1,4.2-3.3,4.1c-2.2-1.1-5.5-2.2-8.7-2.2c-4.7,0-9.4,2.3-9.4,7.9c0,5.2,3.3,7.6,11,11.9
			c9.2,5.2,12.8,8.7,12.8,16.5c0,10-8.4,15.8-18.4,15.8c-5.8,0-10.3-1.9-12.2-3.4c-1.1-0.7-1.6-1.4-1.6-2.4c0.1-1.7,0.8-3.3,1.4-4.1
			c3.3,2.5,8.5,4.1,12.5,4.1c6.3,0,10.5-3.2,10.5-8.5c0-5.4-3.2-7.8-11.7-12.6c-10.4-5.7-11.7-11-11.7-16.1
			c0-5.5,3.8-14.6,17.4-14.6C461.2,785.4,466.4,787,468.6,789.1z"/>
		<path class="st2" d="M481.7,786.4c1.2,0,1.8,1.1,4.1,7.1c2.9,7.8,8.5,22.4,14.6,39.2c5.6-15.1,12-31.1,17.5-46.4
			c1.8,0.1,3.9,0.4,4.9,0.9c1.2,0.4,1.5,1.3,0.7,3.4c-6.4,16.6-13.1,32.7-19.8,48.6c-0.5,1.3-1.1,2.2-1.8,2.6
			c-0.9,0.4-2.9,0.9-5.4,0.9c-6.7-17.6-14-37.1-21.8-54.5C476.7,787.4,479.8,786.4,481.7,786.4z"/>
		<path class="st2" d="M531.7,798.2c0-5.9-0.1-9.5-0.3-11.1c1.1-0.3,5.1-0.7,6.6-0.7c1.3,0,1.4,0.6,1.4,4.6v39.8
			c0,6.1,0.2,9,0.3,10.7c-1.3,0.4-5.1,0.7-6.6,0.7c-1,0-1.4-0.3-1.4-1.7V798.2z"/>
		<path class="st2" d="M553.1,798.4c0-5.9-0.1-9.5-0.3-11.3c1.5-0.3,4.6-0.7,6.7-0.7c1.1,0,1.3,0.5,1.3,4.8v44.9
			c1.7,0.5,6,0.8,9.7,0.8c4,0,9.6-0.1,13-0.4l0.2,0.2c-0.4,2.4-1.8,4.5-4,5.3c-1.1,0.2-4,0.4-10.2,0.4c-7,0-12.9-0.4-15.2-0.9
			l-1.2-1.7V798.4z"/>
		<path class="st2" d="M590.9,798.4c0-5.9-0.1-9.5-0.3-11.3c1.5-0.3,4.6-0.7,6.7-0.7c1.1,0,1.3,0.5,1.3,4.8v44.9
			c1.7,0.5,6,0.8,9.7,0.8c4,0,9.6-0.1,13-0.4l0.2,0.2c-0.4,2.4-1.8,4.5-4,5.3c-1.1,0.2-4,0.4-10.2,0.4c-7,0-12.9-0.4-15.2-0.9
			l-1.2-1.7V798.4z"/>
		<path class="st2" d="M628.7,799c0-4.1,0-7.8-0.3-11.1c1.8-0.5,4.4-1.1,6.9-1.2h22.4c-0.3,2.3-1.1,3.9-2.1,4.8
			c-1.1,0.5-3.1,0.5-7,0.5h-12.2v18.6H657c-0.7,4.8-2.5,5.5-5.4,5.5h-15.1v20.1c1.9,0.5,6.5,0.7,10.7,0.7c4,0,9.6-0.1,13-0.4
			l0.2,0.2c-0.7,2.6-2.1,4.5-4.1,5.3c-1.1,0.2-4.5,0.4-10.7,0.4c-7.3,0-13.6-0.4-15.8-0.9l-1.2-1.7V799z"/>
	</g>
</g>
<g id="Layer_4">
</g>
</svg>
