<?xml version="1.0" encoding="utf-8"?>
<!-- Generator: Adobe Illustrator 19.2.0, SVG Export Plug-In . SVG Version: 6.00 Build 0)  -->
<svg version="1.1" id="Layer_1" xmlns="http://www.w3.org/2000/svg" xmlns:xlink="http://www.w3.org/1999/xlink" x="0px" y="0px"
	 viewBox="0 0 200 200" style="enable-background:new 0 0 200 200;" xml:space="preserve">
<style type="text/css">
	.st0{fill:#000066;}
	.st1{fill:#FFFFFF;}
	.st2{fill:none;stroke:#FFFFFF;stroke-miterlimit:10;}
	.st3{fill:#1B1464;}
	.st4{fill:none;stroke:#FBC926;stroke-width:4;stroke-miterlimit:10;}
	.st5{fill:none;}
</style>
<g>
	<path class="st0" d="M104.5,1.3c2,0.2,4,0.3,6,0.6c16.7,1.8,32,7.4,45.8,17.1c21.3,15,34.8,35.4,40.4,60.9
		c2.5,11.6,2.8,23.3,0.9,35.1c-3.2,20.2-11.8,37.8-25.9,52.7c-14.8,15.7-32.9,25.8-54.2,29.3c-32.5,5.5-61.1-3.1-85.3-25.5
		C16.5,157.1,6.9,139,3,118c-0.8-4.2-1-8.5-1.5-12.7c0-0.3-0.1-0.5-0.1-0.8c0-3,0-6.1,0-9.1c0.1-0.3,0.1-0.6,0.1-1
		c0.2-4.9,0.8-9.8,1.9-14.6C9,54.4,22.4,34.1,43.6,19.1C57.4,9.3,72.7,3.7,89.5,1.9c2-0.2,4-0.4,6-0.6C98.5,1.3,101.5,1.3,104.5,1.3
		z M191.8,100c0.3-50.1-40.9-92-91.9-91.9C48.4,8.3,9.2,50,8.1,97.9c-1.1,51.9,40.7,93,89.8,94C150,192.9,192.1,150.4,191.8,100z"/>
	<path class="st0" d="M100,161c-33.6-0.1-61-27.3-60.9-61c0-33.6,27.4-61.4,61.9-60.9c33.1,0.5,60,27.3,60,60.8
		C161,133.7,133.6,160.9,100,161z M92.9,80.2c5.7,0,11.3,0,17.1,0c-0.8-3.9-1.5-7.7-2.3-11.4c-0.1-0.3-0.4-0.6-0.7-0.8
		c-1.9-1.2-4-1.7-6.1-1.8c-2.3,0-4.6,0-6.9,0c-0.3,0-0.7,0-1,0.1C92.9,71,92.9,75.5,92.9,80.2z M72.8,117.4
		c-1.5-5.4-2.1-10.9-2.3-16.3c-4.4,0-8.7,0-13,0c0.1,0.9,0.1,1.7,0.2,2.5c0.2,4.4,1,8.7,2.2,12.9c0.2,0.7,0.6,0.9,1.3,0.9
		c3.3,0,6.6,0,10,0C71.6,117.4,72.2,117.4,72.8,117.4z M72.8,82.4c-0.5,0-0.8,0-1.1,0c-3.5,0-6.9,0-10.4,0c-0.8,0-1.2,0.2-1.4,1
		c-1.1,3.8-1.8,7.6-2.1,11.6c-0.1,1.3,0,2.5,0,3.8c4.2,0,8.5,0,12.8,0C70.7,93.3,71.4,87.9,72.8,82.4z M127.3,117.4c0,0,0.2,0,0.4,0
		c3.7,0,7.4,0,11,0c0.6,0,0.9-0.2,1-0.8c0.7-3.5,1.5-6.9,2.1-10.4c0.3-1.7,0.2-3.4,0.3-5.2c-4.4,0-8.7,0-12.6,0
		C128.7,106.6,128,111.9,127.3,117.4z M142.2,98.8c-0.2-2.2-0.2-4.4-0.6-6.5c-0.6-3.1-1.3-6.3-2-9.4c-0.1-0.2-0.4-0.5-0.7-0.5
		c-3.9,0-7.7,0-11.6,0c0.7,5.5,1.5,10.9,2.2,16.4C133.5,98.8,137.7,98.8,142.2,98.8z M106.6,117.4c-0.1-2.3-0.2-4.5-0.4-6.7
		c-0.2-1.6-0.6-3.2-1-4.8c-0.6-1.9-1.9-3.3-3.9-3.9c-2.7-0.8-5.5-0.3-8.3-0.5c0,5.4,0,10.6,0,15.8
		C97.5,117.4,101.9,117.4,106.6,117.4z M92.9,94.7c0.3,0,0.6,0.1,0.9,0.1c2.1,0,4.3-0.1,6.4-0.1c3-0.1,5.7-1.1,7.9-3.3
		c1.6-1.6,3.1-3.2,2.4-5.8c-0.2-0.7-0.2-1.4-0.2-2.2c0-0.8-0.3-1-1.1-1c-5.1,0-10.2,0-15.4,0c-0.3,0-0.6,0-0.9,0.1
		C92.9,86.6,92.9,90.6,92.9,94.7z M99.8,131.5c0,1.5,0,2.9,0,4.4c2.3,0,4.4,0,6.6,0c0.4-1.5,0.8-2.9,1.2-4.4c0.1-0.2,0.1-0.5,0-0.7
		c-0.8-2.7-1-5.4-0.9-8.2c0-1,0-2.1,0-3.1c-4.7,0-9.2,0-13.8,0c0,2.4,0,4.8,0,7.1c0,0.9,0.1,1.7,0.3,2.6c0.3,1.3,0.8,1.7,2.2,1.9
		C96.8,131.3,98.2,131.4,99.8,131.5z M141.7,117.4c3,0,5.9,0,8.7,0c0.7,0,1-0.2,1.2-0.9c0.7-3.5,1.6-7,2.2-10.4
		c0.3-1.6,0.2-3.3,0.3-5c-3.4,0-6.6,0-10,0C144.1,106.6,143.3,112,141.7,117.4z M70.2,65c-0.1,0-0.1-0.1-0.2-0.1
		c-3.9,4.6-6.9,9.7-9.1,15.4c4.1,0,8,0,11.9,0c0.3,0,0.6-0.4,0.7-0.7c1.4-3.3,2.8-6.7,4.1-10.1c0.1-0.3,0.1-0.9-0.1-1.2
		c-0.8-1.3-2-2-3.6-2c-1.3,0-2.5,0-3.7,0C70.3,65.7,70.3,65.3,70.2,65z M154,98.8c0-0.2,0.1-0.3,0.1-0.5c-0.1-5.2-1-10.3-2.7-15.3
		c-0.2-0.6-0.5-0.6-1-0.6c-2.4,0-4.7,0-7.1,0c-0.5,0-1,0-1.7,0c1.6,5.4,2.4,10.8,2.5,16.4C147.5,98.8,150.7,98.8,154,98.8z
		 M58,117.4c-1.7-5.4-2.5-10.8-2.5-16.4c-3.3,0-6.4,0-9.7,0c0.1,1.5,0.1,3,0.3,4.5c0.4,3.9,1.2,7.7,2.4,11.3
		c0.1,0.2,0.4,0.6,0.6,0.6C52,117.4,55,117.4,58,117.4z M55.5,98.8c0-5.6,0.9-11,2.5-16.4c-2.9,0-5.6,0-8.3,0c-0.8,0-1,0.3-1.2,0.9
		c-0.7,3.1-1.5,6.1-2.1,9.2c-0.4,2-0.4,4.2-0.6,6.3C49.1,98.8,52.2,98.8,55.5,98.8z M127.4,80.2c3.8,0,7.5,0,11.2,0
		c-0.1-0.2-0.1-0.4-0.1-0.6c-2.2-5.6-5.3-10.8-9.3-15.3c-0.2-0.3-0.7-0.4-1.1-0.4c-2.5,0-5,0-7.5,0c-0.2,0-0.5,0.1-0.8,0.1
		C124.9,68.2,127.4,73.6,127.4,80.2z M131.6,63.9c1.2,1.7,2.3,3.1,3.4,4.7c2.3,3.4,4.2,7,5.6,10.9c0.1,0.3,0.5,0.8,0.8,0.8
		c2.9,0.1,5.9,0,8.9,0c-0.1-0.2-0.1-0.4-0.1-0.6c-2.3-5.7-5.5-10.9-9.6-15.5c-0.2-0.2-0.5-0.4-0.8-0.4
		C137.2,63.9,134.5,63.9,131.6,63.9z M133.1,136c2.4,0,4.7,0,7,0c0.3,0,0.6-0.3,0.8-0.5c3.8-4.3,6.8-9.2,9-14.5
		c0.2-0.4,0.3-0.9,0.5-1.4c-3.1,0-6.1,0-9,0c-0.3,0-0.7,0.4-0.8,0.8c-1.3,3.4-2.9,6.8-4.9,9.8C134.5,131.9,134.1,134,133.1,136z
		 M49.6,119.5c0.1,0.3,0.1,0.5,0.1,0.6c2.3,5.6,5.4,10.8,9.4,15.3c0.2,0.3,0.7,0.4,1.1,0.4c1.8,0.1,3.6,0,5.4,0c0.8,0,1.5,0,2.3,0
		c-0.1-0.2-0.1-0.3-0.1-0.3c-3.8-4.7-6.9-9.9-9-15.6c-0.1-0.2-0.4-0.5-0.6-0.5C55.4,119.5,52.5,119.5,49.6,119.5z M69.6,131.8
		c1.7,0,3.4,0.1,4.9,0c0.9-0.1,1.7-0.3,2.6-0.6c0.6-0.2,0.8-0.6,0.4-1.4c-1.3-3.1-2.6-6.3-3.8-9.5c-0.2-0.6-0.5-0.8-1.2-0.8
		c-3.5,0-7,0-10.6,0c-0.3,0-0.6,0-1,0.1c2,5.4,4.8,10.2,8.6,14.8C69.6,133.5,69.6,132.7,69.6,131.8z M49.5,80.2
		c0.5,0,0.8,0.1,1.1,0.1c2.4,0,4.9,0,7.3,0c0.7,0,1-0.3,1.3-0.9c2-5.4,4.9-10.4,8.5-14.8c0.1-0.2,0.2-0.4,0.4-0.7
		c-2.7,0-5.3,0-7.8,0c-0.3,0-0.7,0.3-1,0.5c-2.9,3.3-5.4,6.8-7.3,10.7C51.1,76.7,50.3,78.4,49.5,80.2z M127.4,129.8
		c1.8,0,3.6,0,5.4,0c0.6,0,0.9-0.2,1.2-0.7c0.8-1.4,1.7-2.8,2.4-4.3c0.9-1.7,1.6-3.5,2.4-5.3c-4.3,0-8.4,0-12.3,0
		c-1.4,3.3-2.7,6.6-4.1,9.9c-0.6,1.3,0.5,3.1,1.9,3.1C126.1,132.8,126.9,132,127.4,129.8z M114.6,101c0.1,0.2,0.1,0.3,0.1,0.3
		c0.2,0.2,0.3,0.3,0.5,0.5c3.7,3.3,5.7,7.4,5.5,12.4c0,1,0.1,2.1,0.1,3.2c0.9,0,1.7-0.1,2.5,0c1,0.1,1.5-0.2,1.6-1.3
		c0.6-3.4,1.2-6.8,1.7-10.3c0.2-1.6,0.2-3.2,0.3-4.9C122.8,101,118.7,101,114.6,101z M138.1,138.4c0-0.1-0.1-0.2-0.1-0.3
		c-1.7,0-3.5,0-5.3,0c-0.8,0-1.5,0.2-2.1,0.7c-0.8,0.7-1.9,1.1-2.9,1.6c-0.4,0.2-0.8,0.4-1.1,0.6c-5.5,5.1-11.6,9.1-18.6,12
		c-0.3,0.1-0.5,0.3-0.7,0.4C119.4,151.9,129.6,146.8,138.1,138.4z M61.8,138.2c4.1,6.2,24.4,16.4,30.2,15.2
		c-0.6-0.3-1.1-0.5-1.6-0.7c-6.9-3.1-13-7.2-18.4-12.5c-0.7-0.7-1.3-1.3-2.4-1c-0.1-0.4-0.1-0.7-0.1-1
		C67,138.2,64.5,138.2,61.8,138.2z M137.9,61.7c0-0.1,0.1-0.2,0.1-0.3c-8.3-8.1-18.2-13.1-29.7-14.9c0.2,0.2,0.4,0.4,0.6,0.5
		c7.8,3.3,14.5,8.1,20.4,14.2c0.2,0.2,0.5,0.4,0.7,0.4C132.6,61.7,135.2,61.7,137.9,61.7z M62,61.4c0,0.1,0.1,0.2,0.1,0.3
		c2.1,0,4.2,0,6.3,0c1.9,0,1.9,0,2-1.9c0-0.1,0.1-0.2,0-0.1c1-0.3,2-0.4,2.6-1c5-4.6,10.5-8.4,16.7-11.2c0.6-0.3,1.2-0.6,1.8-0.9
		C80,48.4,70.2,53.4,62,61.4z M126.4,61.7c0-0.1,0.1-0.2,0.1-0.3c-6.2-6.1-13.2-10.8-21.5-13.6c0,0.2,0.1,0.4,0.2,0.5
		c4.5,3.8,8.4,8.1,11.8,13c0.1,0.2,0.5,0.4,0.8,0.4C120.7,61.7,123.5,61.7,126.4,61.7z M99.8,139.1c-1.9,0-3.7,0-5.5,0
		c1.5,4.5,3.2,8.9,5.6,13.1c2.5-4.6,4.4-9.2,5.9-14.1c-1.8,0-3.4,0-5,0C100.1,138.1,99.7,138.3,99.8,139.1z M78.5,98.8
		c0-5.5,0-10.9,0-16.4c-0.9,0-1.7,0.1-2.4,0c-0.9-0.1-1.2,0.3-1.4,1.1c-0.6,3.4-1.2,6.8-1.7,10.2c-0.2,1.7-0.2,3.4-0.3,5.1
		C74.7,98.8,76.6,98.8,78.5,98.8z M78.5,117.3c0-5.5,0-10.9,0-16.2c-2,0-3.9,0-5.9,0c0.1,4.5,0.6,8.9,1.6,13.2
		c0.8,3.3,0.8,3.3,4.2,3.1C78.5,117.4,78.5,117.4,78.5,117.3z M94.9,152c-0.1-0.1-0.2-0.3-0.4-0.4c-4.2-3.5-7.8-7.6-11.1-11.9
		c-0.2-0.3-0.7-0.5-1-0.5c-2.6,0-5.1,0-7.7,0c-0.2,0-0.4,0.1-0.8,0.1C80.1,145,87,149.4,94.9,152z M94.9,47.9
		c-0.1-0.1-0.1-0.1-0.1-0.2c-7.2,2.5-13.5,6.4-19.4,11.6c0.3,0.1,0.5,0.1,0.6,0.1c2.5,0,5.1,0,7.6,0c0.3,0,0.8-0.3,1-0.6
		c2.4-2.6,4.8-5.3,7.2-7.9C92.7,49.8,93.9,48.9,94.9,47.9z M127.2,98.8c-0.3-3.6-0.7-7.2-1-10.7c-0.1,0-0.2,0-0.3,0
		c-0.5,0.9-1,1.8-1.6,2.6c-2.4,3.4-5.9,5.2-9.8,6.3c-1.3,0.3-1.4,0.5-1,1.7C117.9,98.8,122.4,98.8,127.2,98.8z M105.2,59.3
		c-1.7-4-3.4-7.8-5.1-11.6c-0.1,0-0.2,0.1-0.3,0.1c-2.1,3.6-3.7,7.5-5,11.5C98.2,59.3,101.5,59.3,105.2,59.3z M123,141.7
		c-2.2-0.3-4.3-0.6-6.5-1.1c-0.7-0.1-1,0-1.4,0.4c-2.3,2.6-4.7,5.3-7,7.8c-1,1.1-2.2,2-3.2,3c0.1,0.1,0.1,0.1,0.1,0.2
		C111.7,149.8,117.7,146.2,123,141.7z M113.8,139.4c-0.8-0.8-1.7-1.5-2.9-1.3c-0.7,0.1-1.4,0.1-2.1,0c-0.6-0.1-0.8,0.2-1,0.8
		c-1.3,3.3-2.6,6.7-3.8,10c-0.1,0.3-0.2,0.6-0.3,0.8c0.1,0.1,0.1,0.1,0.2,0.1C107.6,146.8,110.8,143.3,113.8,139.4z M85.7,139.1
		c3.1,4.1,6.4,7.7,10.3,10.9c-1.4-3.6-2.6-7-3.9-10.4c-0.1-0.2-0.5-0.5-0.7-0.5C89.6,139.1,87.8,139.1,85.7,139.1z M113.7,60.4
		c-2.9-3.8-6.2-7.3-10-10.5c0,0.3,0,0.5,0,0.6c1.1,2.8,2.3,5.6,3.4,8.4c0.1,0.3,0.5,0.5,0.8,0.6C109.8,59.8,111.7,60.1,113.7,60.4z
		 M86.8,59.3c1.9,0,3.5,0,5.1,0c0.2,0,0.6-0.3,0.7-0.6c1.1-2.7,2.2-5.4,3.3-8.1c0.1-0.2,0.1-0.3,0.2-0.5
		C92.6,52.7,89.6,55.8,86.8,59.3z M121.1,119.6c0,2.4,0,4.7,0,6.9c0.1,0,0.3,0,0.4,0.1c0.9-2.3,1.7-4.6,2.7-7
		C123,119.6,122,119.6,121.1,119.6z M78.6,119.6c-1,0-1.9,0-3,0c0.9,2.4,1.8,4.7,2.7,7.1c0.1,0,0.2-0.1,0.3-0.1
		C78.6,124.3,78.6,122,78.6,119.6z M75.6,80.2c1.1,0,2,0,2.9,0c0-2.3,0-4.6,0-6.8c-0.1,0-0.2,0-0.3-0.1
		C77.4,75.6,76.5,77.9,75.6,80.2z M112,80.1c0.1,0,0.2,0,0.3-0.1c-0.1-2.3-0.2-4.6-1.5-6.7C111.3,75.6,111.7,77.9,112,80.1z
		 M109.1,134.4c-0.1,0.6-0.3,1-0.3,1.5c0.5,0,0.8,0,1.3,0C109.8,135.4,109.5,135,109.1,134.4z"/>
	<g>
		<path class="st0" d="M71.9,170.5c-2.5-1.4-4.9-2.7-7.3-4c0.1-0.9,0.4-1.7,0.3-2.5c-0.3-2.6-2.9-4.2-5.5-3.4
			c-2.5,0.8-5.1,5.1-4.5,7.7c0.4,1.7,1.5,2.8,3.2,3.3c1.5,0.4,3,0.2,4.1-1.3c1.2,0.8,2.4,1.5,3.5,2.3c1.1,0.8,2.3,1.5,3.5,2.3
			c-1.1,1.7-2.8,2.4-4.6,2.6c-6.6,0.9-15.2-4.4-17.6-10.6c-2.1-5.2,2.3-11.8,7.4-12.5c4.2-0.5,7.9,0.8,11.4,3.1
			c2.1,1.4,4,2.9,5.4,5.1c1.5,2.3,2.1,4.7,1,7.4C72.1,170.2,72.1,170.3,71.9,170.5z"/>
		<g>
			<path class="st0" d="M132.2,181c-3.1-6-6.1-11.9-9.1-17.9c0.3-0.2,0.4-0.3,0.7-0.4c4-2,8-4.1,12-6.1c1.3-0.6,2.6-1,4-1.3
				c0.9-0.2,1.8-0.1,2.7,0.1c3.4,0.8,4.5,4.3,2.1,7c-0.3,0.3-0.6,0.5-0.9,0.7c0.1,0.1,0.1,0.2,0.1,0.3c0.3-0.1,0.6-0.1,0.8-0.1
				c2.8-0.6,5.6,0.8,6.1,3.1c0.6,2.3-0.3,4.2-2.1,5.6c-1.4,1.1-3,2-4.7,2.9C140.2,176.9,136.2,178.9,132.2,181z M137,173.5
				c1.4-0.7,2.7-1.3,4-2.1c0.5-0.3,1-0.6,1.3-1.1c0.3-0.5,0.6-1.2,0.3-1.6c-0.3-0.5-1-0.8-1.5-1c-0.3-0.1-0.8,0-1.1,0.2
				c-1.5,0.7-3,1.4-4.6,2.2C135.9,171.3,136.4,172.4,137,173.5z M133.4,166.4c1.3-0.7,2.6-1.3,3.9-2c0.3-0.1,0.5-0.3,0.7-0.5
				c0.5-0.6,0.9-1.2,0.4-2c-0.4-0.7-1.1-1-1.9-0.6c-1.5,0.6-3.1,1.4-4.7,2.1C132.5,164.5,132.9,165.4,133.4,166.4z"/>
			<path class="st0" d="M122,36.8c-2.8-0.7-5.4-1.3-8-1.9c-0.5-0.1-0.7-0.3-0.8-0.8c-0.4-2-1-4-1.4-6c-0.2-0.8-0.5-1.2-1.3-1.1
				c-0.4,0-0.8-0.1-1.3-0.2c-0.4,2.4-0.7,4.7-1.1,7.2c-2.5-0.3-4.9-0.5-7.5-0.8c0.3-2,0.6-3.9,0.9-5.8c0.7-4.4,1.4-8.9,2.1-13.3
				c0.1-0.7,0.3-1,1-0.8c4.6,0.7,9.3,1.4,13.9,2.2c1.3,0.2,2.5,0.9,3.6,1.6c2.1,1.4,2.7,3.5,2.3,5.9c-0.4,2.3-1.8,3.8-4.2,4.3
				c-0.2,0.1-0.4,0.1-0.7,0.2C120.3,30.6,121.2,33.6,122,36.8z M109.8,22.5c0.6,0.1,1,0.2,1.4,0.3c1.3,0.1,2.6,0.3,4,0.3
				c0.8,0,1.6-0.5,1.7-1.4c0.1-1-0.5-1.7-1.3-1.9c-1.7-0.4-3.4-0.7-5.2-1C110.2,20.1,110,21.3,109.8,22.5z"/>
			<path class="st0" d="M33.7,88.6c-6.4-2-12.8-3.9-19.3-5.9c1.1-3.6,2.1-7.2,3.2-10.8c0.7-2.3,1.4-4.6,3-6.5c1.6-2,3.9-2.6,6.3-1.9
				c2.5,0.8,3.7,2.4,3.9,5.1c0,0.1,0,0.2,0.1,0.4c3.2-0.4,6.3-0.7,9.7-1.1c-0.6,1.3-1,2.5-1.5,3.7c-0.5,1.3-1,2.7-1.6,4
				c-0.1,0.3-0.5,0.6-0.8,0.6c-2.2,0.2-4.4,0.4-6.5,0.6c-0.3,0-0.7,0.4-0.8,0.7c-0.2,0.5-0.3,1-0.5,1.7c2.3,0.7,4.6,1.4,6.9,2.1
				C35.1,83.8,34.4,86.1,33.7,88.6z M21.1,77c1.2,0.3,2.2,0.7,3.2,0.9c0.2,0.1,0.6-0.1,0.6-0.3c0.4-1.5,0.9-2.9,1.2-4.4
				c0.2-1.1-0.3-2-1.1-2.2c-0.8-0.3-1.7,0-2.2,1.1C22.1,73.6,21.6,75.3,21.1,77z"/>
			<path class="st0" d="M54.8,45.3c-0.2,4.4-2.1,8.1-5.1,11.2c-2.2,2.4-4.9,4.2-8.2,4.8c-4.8,0.9-9.7-2.3-10.7-7.1
				c-0.7-3.6,0.3-6.8,2.1-9.8c2.4-3.9,5.5-6.8,10-8.1C49,34.7,55.1,39.3,54.8,45.3z M37,49.5c0,4,3.7,6.4,7.3,4.7
				c2.2-1,3.6-2.8,4.1-5.1c0.7-3-1.1-5.7-4.1-6.1C40.5,42.4,37,45.5,37,49.5z"/>
			<path class="st0" d="M171.9,65.8c-1.6-2.4-3.1-4.7-4.5-6.8c0.6-1.2,1.4-2.2,1.5-3.3c0.3-3.1-2.4-5.2-5.5-4.4
				c-1.8,0.5-3.4,1.5-4.7,2.9c-1.1,1.3-1.4,2.8-0.8,4.3c0.6,1.6,1.8,2.6,3.5,2.8c0.6,0.1,1.3-0.2,2-0.3c1.3,2.3,2.6,4.7,4,7.2
				c-1.7,0.9-3.3,0.8-5,0.3c-2.9-0.9-5-2.9-6.8-5.3c-2.6-3.3-4.1-6.9-4.2-11.1c-0.2-7,7.9-11.2,13.3-8.6c3.7,1.7,6.2,4.7,8.1,8.2
				c1.4,2.7,2.5,5.6,2.2,8.7C174.7,62.8,173.8,64.5,171.9,65.8z"/>
			<path class="st0" d="M105.3,166.6c0.2,1.5,0.4,2.8,0.6,4.2c0.3,2.9,0.7,5.9,1,8.8c0.2,1.9,1.6,2.8,3.8,2.3
				c0.7-0.1,1.4-0.5,2.1-0.9c0.8-0.5,1.2-1.2,1.1-2.2c-0.6-4.3-1-8.6-1.6-13c2-0.3,3.9-0.5,6-0.8c0.2,1.5,0.3,2.9,0.5,4.3
				c0.4,3.1,0.8,6.2,1.1,9.4c0.3,3.3-1.1,5.4-4.2,6.7c-3.6,1.5-7.4,1.7-11.1,1.3c-3-0.3-4.9-2.4-5.3-5.7c-0.6-4.4-1.1-8.8-1.6-13.3
				C100.1,167.2,102.6,166.9,105.3,166.6z"/>
			<path class="st0" d="M145.3,51.2c-1.4-1.1-2.8-2.2-4.2-3.3c-0.1-0.1-0.2-0.5-0.1-0.8c0.2-0.9,0.4-1.8,0.6-2.7
				c0.2-0.6,0.1-1-0.5-1.3c-1.7-1.2-3.5-2.4-5.3-3.5c-0.3-0.2-0.9-0.1-1.2,0c-0.7,0.4-1.3,0.8-2,1.3c-0.7,0.6-1.2,0.5-1.9,0.1
				c-1.3-0.8-2.6-1.6-4.1-2.4c2.1-1.5,4.2-2.9,6.2-4.3c3.8-2.6,7.6-5.2,11.3-7.9c0.7-0.5,1.1-0.4,1.7,0c1.3,0.9,2.6,1.7,3.8,2.6
				c0.3,0.2,0.5,0.7,0.4,1C148.6,37.2,147,44.2,145.3,51.2C145.5,51.2,145.4,51.2,145.3,51.2z M144,33.6c-0.1-0.1-0.1-0.1-0.2-0.2
				c-1.5,1-3,2.1-4.6,3.2c1.3,0.8,2.4,1.6,3.6,2.4C143.2,37.1,143.6,35.3,144,33.6z"/>
			<path class="st0" d="M96.4,33.3c-1.8,0.3-3.5,0.6-5.3,0.8c-0.2,0-0.6-0.2-0.8-0.4c-0.6-0.7-1.1-1.5-1.5-2.3
				c-0.3-0.6-0.7-0.7-1.3-0.6c-2.1,0.5-4.2,0.9-6.2,1.4c-0.3,0.1-0.6,0.5-0.7,0.8c-0.2,0.7-0.3,1.5-0.4,2.2c0,1-0.4,1.4-1.4,1.6
				c-1.5,0.3-2.9,0.8-4.5,1.2c0.3-2.1,0.6-4.1,1-6.1c0.8-5,1.7-10.1,2.5-15.1c0.1-0.6,0.3-0.9,0.9-1c1.7-0.3,3.3-0.7,5-1
				c0.2,0,0.6,0.1,0.8,0.3c3.9,5.9,7.8,11.9,11.7,17.8C96.3,33,96.3,33.1,96.4,33.3z M85.7,26.6c-1.1-1.7-2.1-3.2-3.3-4.9
				c-0.3,2.1-0.6,3.9-1,5.9C82.9,27.2,84.2,26.9,85.7,26.6z"/>
			<path class="st0" d="M56.7,30.4c-1.9,1.2-3.8,2.3-5.7,3.5c-0.8-1.3-1.5-2.6-2.4-4.1c5.9-3.4,11.8-6.8,17.8-10.3
				c0.9,1.5,1.6,2.8,2.4,4.1c-1.9,1-3.7,2-5.6,3.1c2.6,4.5,5.1,8.9,7.7,13.4c-2.2,1.3-4.3,2.5-6.5,3.8
				C61.8,39.3,59.3,34.9,56.7,30.4z"/>
			<path class="st0" d="M178.1,74.7c-0.6-2.2-1.2-4.2-1.9-6.4c1.5-0.4,2.9-0.8,4.4-1.2c2.2,6.5,3.9,13.1,5.3,19.9
				c-1.5,0.4-2.9,0.8-4.4,1.2c-0.5-2.1-1-4.1-1.5-6.2c-5,1.3-9.9,2.6-14.9,4c-0.7-2.4-1.3-4.8-2-7.2C168.1,77.3,173,76,178.1,74.7z"
				/>
			<path class="st0" d="M92.4,187.1c-5.8-1.1-11.4-2.2-17.2-3.3c1.5-6.7,3-13.1,4.6-19.7c2.5,0.6,4.9,1.1,7.5,1.7
				c-1.2,5-2.3,9.9-3.5,15c3.1,0.5,6.1,1,9.3,1.5C92.9,183.8,92.7,185.3,92.4,187.1z"/>
		</g>
	</g>
	<path class="st1" d="M109.1,134.4c0.4,0.6,0.6,0.9,1,1.5c-0.5,0-0.8,0-1.3,0C108.9,135.5,109,135.1,109.1,134.4z"/>
	<path class="st2" d="M135.8,129.8c0,0-6.8-0.1-8.5-0.1c-0.4,2.2-1.3,2.8-3.1,2.8c-3.6,0-3.4-5.8-3.4-6.1c-0.2-2,0-7.1,0-7.1
		s0-1.8,0-2.1c-0.1-1.1-0.2-2.1-0.1-3.2c0.1-5-1.6-8.9-5.2-12.3c-0.2-0.1-0.9-0.8-0.9-0.9c-0.6-0.7-1.5-2.3-1.5-2.3
		c-0.3-1.1,0-1.5,1.3-1.8c4-1,7-3,9.8-6.1c1-1.1,3.1-6.4,3.1-8.4c0-1.3,0.1-2.4,0.1-2.4c0.1-6.5-2.4-11.8-7.5-16c0,0-2-1.9-2.6-2.2
		c-1.1-0.5-2.4-1-3.5-1.3c-1.5-0.4-4.4-0.4-4.4-0.4c-1.1-0.2-5.6-0.1-5.6-0.1h-9c0,0-9.7-0.5-12.8-0.4c-1.4,0-12,0.1-12,0.2V66
		c1.2,0,2.7,0,3.9,0c1.6,0,2.8,0.8,3.7,2c0.9,1.2,0.8,5.1,0.8,5.1c0,0,0,55.1,0,55.3c0,1.7-1.1,3.1-2.5,3.1c-0.1,0-1,0.1-1.3,0.1
		c-1.5,0.1-3.5,0-4.6,0v8.4h29.7l-0.4-8.4c-1.8-0.1-2.7-0.3-4.1-0.4c-1.3-0.1-2-0.6-2.3-2c-0.2-0.8-0.1-1.7-0.1-2.5
		c0-0.6-0.1-6.5-0.1-6.5v-11.2v-7.5c2.3,0.1,5.7-0.4,8.5,0.5c2,0.6,3.3,2,4,3.9c0.5,1.5,0.9,3.1,1.1,4.7c0.3,2.2,0.3,4.4,0.4,6.6
		l0.1,2.5c0,0.7,0,2,0,3c0,2.8,0.2,5.4,0.9,8.1c1.4,5.4,5.4,7.6,6.2,8.5c1.3,0.9,2.1,1.1,2.7,1.3c2.1,0.4,4.2,1.1,6.5,1.1
		c2,0,4.4-1,4.7-1.2c1-0.5,2-1,2.9-1.6c0.7-0.6,2-1.9,2.5-2.9c1-2,1.3-4,2.6-5.8C135.6,129.9,135.7,129.8,135.8,129.8z M111.9,79.9
		c0,2.1-1.2,6.5-1.5,6.9c-0.1,0.3-1.7,3.4-2.7,4.4c-2.2,2.1-4.7,3.1-7.8,3.3c-2.1,0.1-4.4,0.1-6.5,0.1c-0.3,0-0.7-0.1-1-0.1V66
		c0.3,0,0.8-0.1,1.2-0.1c2.3,0,4.7,0,7,0c2.2,0,4.2,0.7,6.2,1.8c1.5,0.8,3.4,4.4,4,5.6C111.4,74.8,111.9,79.9,111.9,79.9z"/>
	<path class="st3" d="M74.7,55.6"/>
	<path class="st3" d="M111.3,142.6"/>
	<path class="st3" d="M96.4,134.6"/>
	<path class="st4" d="M102.5,134.1"/>
	<rect x="86.2" y="150.4" class="st5" width="27.8" height="6.5"/>
</g>
</svg>
