<?xml version="1.0" encoding="utf-8"?>
<!-- Generator: Adobe Illustrator 19.2.0, SVG Export Plug-In . SVG Version: 6.00 Build 0)  -->
<svg version="1.1" id="Layer_1" xmlns="http://www.w3.org/2000/svg" xmlns:xlink="http://www.w3.org/1999/xlink" x="0px" y="0px"
	 viewBox="0 0 200 200" style="enable-background:new 0 0 200 200;" xml:space="preserve">
<style type="text/css">
	.st0{fill:#000066;}
</style>
<g>
	<path class="st0" d="M65.6,163.3c0.5-0.7,0.8-1.2,1.3-1.8c-1.3-0.8-2.5-1.6-3.7-2.3c0.5-0.7,0.9-1.4,1.4-2c1.8,0.9,3.5,1.8,5.3,2.8
		c0.5-0.8,0.8-1.4,1.1-2c-2.5-1.5-4.8-3-7.3-4.5c-2.4,3.5-4.8,7-7.2,10.6c2.7,1.7,5.4,3.3,8.1,5c0.5-0.7,0.8-1.4,1.2-2.1
		c-1.9-1.1-3.7-2.3-5.6-3.4c0.6-0.9,1.1-1.7,1.7-2.5C63.1,161.8,64.3,162.5,65.6,163.3z"/>
	<path class="st0" d="M50.2,141.3c-1.8,1.5-3.5,3-5.2,4.5c0.5-2.2,1.1-4.3,2-6.2c0.7-1.5,0.3-2.6-0.9-3.8c-3.5,2.4-7.1,4.8-10.7,7.2
		c0.6,0.8,1.1,1.5,1.7,2.3c2-1.4,3.9-2.7,6.1-4.2c-0.9,2.7-1.8,5.1-2.5,7.6c-0.1,0.4-0.2,0.9,0,1.2c0.4,0.7,0.9,1.2,1.5,1.9
		c3.4-2.9,6.6-5.7,9.9-8.5C51.3,142.5,50.8,142,50.2,141.3z"/>
	<path class="st0" d="M59.9,153.6c0.5-0.6,0.9-1.2,1.4-1.8c-2.7-2.3-5.3-4.6-8-6.9c-0.5,0.6-1.1,1.1-1.7,1.8c1,1,1.9,1.9,2.9,2.8
		c-2.2,2.5-4.4,5-6.7,7.6c0.8,0.7,1.4,1.2,2.2,1.9c2.3-2.7,4.5-5.3,6.6-7.8C57.8,152.1,58.8,152.8,59.9,153.6z"/>
	<path class="st0" d="M133.7,155.9c-3.6,0-6.4,2.8-6.4,6.4c0,3.6,3,6.5,6.5,6.4c3.5,0,6.3-3,6.3-6.5
		C140.1,158.6,137.3,155.9,133.7,155.9z M133.7,166.1c-2.1,0-3.9-1.8-3.9-3.9c0-2.1,1.8-3.9,3.9-3.9c2.2,0,4,1.8,3.9,4
		C137.7,164.4,135.8,166.1,133.7,166.1z"/>
	<path class="st0" d="M91.2,171.2c-1.1-2-2.1-4.1-2.9-6.2c-0.5-1.5-1.6-1.8-3-2c-0.1,0.4-0.2,0.8-0.3,1.1c-0.8,3.4-1.6,6.9-2.4,10.3
		c-0.1,0.6-0.3,1.1,0.5,1.2c1.8,0.4,2,0.4,2.3-0.7c0.5-2,0.9-4,1.4-6.3c1.1,2.4,2.1,4.4,2.8,6.5c0.5,1.4,1.4,1.9,2.7,2
		c0.7,0,1,0,1.1-0.8c0.3-3.2,0.7-6.2,1.1-9.4c0.1-0.8,0.2-1.3,0.2-2.1c-0.9,0-1.7,0-2.6,0C91.7,166.9,91.4,169,91.2,171.2z"/>
	<path class="st0" d="M44.8,133.8c-0.5-0.9-0.9-1.7-1.4-2.5c-3.7,2.1-7.3,4.2-11,6.4c0.3,0.6,0.6,1.1,0.9,1.7
		c0.3,0.8,0.7,0.8,1.4,0.4c2.5-1.5,5.1-3,7.7-4.5C43.1,134.7,43.9,134.3,44.8,133.8z"/>
	<path class="st0" d="M120.1,161.3c1.4,3.9,2.7,7.8,4,11.6c0.1,0.2,0.5,0.4,0.7,0.3c0.7-0.2,1.4-0.5,2.3-0.8
		c-1.4-4.1-2.8-8-4.2-12.1C121.9,160.6,121.1,160.9,120.1,161.3z"/>
	<path class="st0" d="M115.3,165.2c0.9-0.2,1.8-0.5,2.7-0.7c-0.2-0.8-0.4-1.4-0.6-2.2c-3,0.6-6,1.2-8.9,1.7
		c-1.6,0.3-1.7,0.5-1.3,2.1c0,0.2,0.1,0.3,0.2,0.5c1.3-0.2,2.5-0.3,3.9-0.5c0.6,3.4,1.2,6.7,1.9,10.2c1.1-0.2,1.9-0.5,2.9-0.7
		c-0.6-3-1.2-5.9-1.8-8.7C114,165.8,114.3,165.4,115.3,165.2z"/>
	<path class="st0" d="M101.4,164.4c-0.8,0-1.5,0-1.8,1c-1.1,3.6-2.3,7.1-3.5,10.7c-0.1,0.3-0.2,0.6-0.2,1c0.4,0,0.7,0,1,0.1
		c1.1,0.2,2,0,2.2-1.4c0-0.3,0.7-0.7,1.1-0.7c1.1-0.1,2.2,0,3.2-0.1c0.9-0.1,1.3,0.2,1.5,1c0.1,0.4,0.6,0.9,0.9,0.9
		c0.6,0.1,1.3-0.1,2.1-0.2c-1.6-4-3.2-7.7-4.7-11.5C102.9,164.2,102.2,164.4,101.4,164.4z M100.1,172.6c0.5-1.2,0.9-2.8,1.5-4.5
		c0.7,1.6,1.2,3.3,1.8,4.5C102.2,172.6,101.2,172.6,100.1,172.6z"/>
	<path class="st0" d="M79.5,161.4c-1.7-0.7-3.5-1.4-5.3-2c-0.2-0.1-0.8,0.2-0.9,0.4c-1.5,3.4-3,6.9-4.4,10.4
		c-0.1,0.2,0.2,0.7,0.3,0.9c0.1,0.2,0.5,0.2,0.7,0.3c0.9,0.5,1.4,0.3,1.8-0.7c0.4-1.2,0.9-2.4,1.4-3.5c2.2,0.5,2.3,0.7,2.4,2.6
		c0,1,0,2,0.1,3c0,0.3,0.2,0.8,0.5,0.9c0.7,0.3,1.4,0.5,2.4,0.8c-0.1-1.7-0.2-3.2-0.3-4.6c-0.1-0.8,0-1.3,0.9-1.7
		c1.6-0.7,2.2-2.2,2.2-3.9C81.3,163,80.8,161.9,79.5,161.4z M78.6,164.9c-0.3,0.7-0.8,1.3-1.7,1c-0.9-0.3-1.7-0.7-2.7-1.1
		c0.3-0.9,0.6-1.6,0.9-2.5c0.9,0.4,1.8,0.7,2.7,1C78.6,163.6,79,164,78.6,164.9z"/>
	<path class="st0" d="M81.7,99.8c0,10,8.1,18.3,18,18.3c9.7,0,17.9-8.1,18-17.9c0-10-8-18.2-17.9-18.2C90,82,81.8,90.1,81.7,99.8z
		 M94.6,89c1.1-0.5,1.4-0.7,1.4-1.8c0-2.5,6.9-1.9,6.8-0.2c0,0.7,0.5,1.4,2,2.1c5.2,2.2,8,8,6.9,13.6c-1.1,5.4-5.9,9.4-11.5,9.6
		c-5.9,0.2-11-3.6-12.4-9.3C86.5,97.3,89.3,91.4,94.6,89z"/>
	<path class="st0" d="M69.9,36.2c0.7-2.7-2.3-6-4.8-5.1c-2.2,0.8-4.2,2.1-6.3,3.3c2.1,3.8,4.2,7.4,6.2,11.1c0.9-0.6,1.8-1.1,2.7-1.6
		c-0.8-1.4-1.6-2.6-2.3-3.9c1.8-1.2,1.8-1.3,3.5,0c0.6,0.5,1.2,1,1.9,1.4c0.3,0.2,0.7,0.3,1,0.2c0.7-0.2,1.4-0.7,2.3-1.1
		c-1.4-1-2.5-1.9-3.7-2.7C70,37.3,69.7,37,69.9,36.2z M66.4,36.5c-0.7,0.4-1.4,0.8-2.3,1.2c-0.5-0.9-0.9-1.6-1.5-2.5
		c0.9-0.5,1.8-1.1,2.7-1.5c0.7-0.3,1.2,0.2,1.4,0.8C67.1,35.3,67.3,36,66.4,36.5z"/>
	<path class="st0" d="M128.5,42.1c0.9,0.5,1.6,0.9,2.5,1.4c0.2-0.4,0.5-0.6,0.5-0.8c1.1-3.7,3.8-5.6,7.3-6.8
		c0.8-0.3,1.6-0.7,2.5-1.1c-1.4-1.1-2.6-2-4.3-0.9c-0.5,0.4-1.1,0.5-1.7,0.8c-0.5,0.2-1,0.4-1.6,0.6c-0.3-1.6-0.5-3.1-0.8-4.6
		c-0.1-0.3-0.2-0.7-0.5-0.9c-0.7-0.4-1.5-0.7-2.4-1.1c0,0.4,0,0.7,0,0.9c0.4,2.1,0.8,4.3,1.1,6.4c0.1,0.5,0,0.9-0.2,1.4
		C130.1,39,129.3,40.5,128.5,42.1z"/>
	<path class="st0" d="M116.1,37.4c1,0.3,1.2,0,1.4-0.9c0.2-1.1,0.6-2.1,0.9-3.2c2.2,0.5,2.2,0.5,2.5,2.5c0.1,0.5,0.1,1,0.2,1.6
		c0.2,1.6,1.2,2.3,3,2.3c-0.2-1.4-0.4-2.7-0.6-4.1c-0.1-0.8,0-1.3,0.8-1.8c2.3-1.4,2.5-5.9,0.2-6.9c-2.1-0.9-4.4-1.5-6.6-2.2
		c-0.2,0.5-0.3,0.9-0.5,1.2c-0.9,3-1.8,6-2.7,9C114.1,36.9,114.2,36.9,116.1,37.4z M119.9,28c1,0.3,2,0.5,2.9,0.9
		c0.7,0.2,0.7,0.9,0.5,1.5c-0.3,0.7-0.7,1.5-1.7,1.2c-0.8-0.2-1.6-0.5-2.5-0.8C119.3,29.9,119.6,29,119.9,28z"/>
	<path class="st0" d="M101.7,35.3c0.2,0,0.6-0.2,0.7-0.5c0.5-1.5,1.6-1.7,3-1.5c0.6,0.1,1.2,0.2,1.8,0.2c1,0,1.4,0.5,1.6,1.4
		c0.1,0.4,0.5,0.9,0.8,1.1c0.6,0.2,1.4,0.2,2.3,0.4c-0.1-0.5-0.2-0.9-0.2-1.1c-1-3.7-2.1-7.4-3-11.2c-0.4-1.5-1.5-0.9-2.4-1.2
		c-0.8-0.2-1,0.2-1.3,0.8c-1.6,3.4-3.3,6.7-4.9,10.1c-0.2,0.5-0.4,0.9-0.7,1.6C100.3,35.3,101,35.4,101.7,35.3z M106.5,26.4
		c0.5,1.7,0.9,3.2,1.4,4.8c-1.2-0.1-2.3-0.2-3.5-0.4C105.1,29.3,105.8,28,106.5,26.4z"/>
	<path class="st0" d="M106.1,15.3c0-4.5-1.1-8.8-3.1-12.9c-0.3-0.7-0.7-1.1-1.5-1c-1.1,0.1-2.2,0-3.3,0c-0.7,0-1.1,0.3-1.4,0.9
		C95.4,5,94.4,7.9,94,11c-0.3,1.9-0.4,3.9-0.6,5.8c-2.5,0.3-5.1,0.6-7.6,1c-1.1,0.2-1.4,0-1.8-1.1c-1.3-4.5-3.4-8.6-6.7-12
		c-0.2-0.3-0.8-0.5-1.1-0.5c-1.3,0.2-2.5,0.6-3.7,1c-0.4,0.1-0.9,0.6-0.9,0.9c-0.3,2.7-0.7,5.5-0.6,8.2c0,2.3,0.6,4.6,0.9,6.9
		c-2.7,1.1-5.5,2.3-8.4,3.6c-0.2-0.4-0.5-0.7-0.7-1c-1.8-3-4-5.7-6.8-7.9c-4.1-3.2-2.7-3-7.3-0.4c-0.6,0.3-0.8,0.8-0.7,1.5
		c0.2,1.4,0.3,2.9,0.6,4.3c0.7,3.5,2.1,6.8,3.9,9.9c-2.3,1.8-4.5,3.6-7,5.5c-0.2-0.3-0.5-0.7-0.8-1.1c-3.5-3.2-7.3-5.6-11.7-7.1
		c-0.7-0.2-1.1-0.2-1.6,0.3c-0.8,0.8-1.6,1.6-2.5,2.4c-0.5,0.5-0.6,1.1-0.3,1.7c0.7,1.5,1.1,3.2,2,4.6c1.8,2.8,3.7,5.4,5.7,8.2
		c-1.7,2.2-3.5,4.6-5.4,7.1c-0.2-0.1-0.4-0.2-0.5-0.2c-3.8-2.3-8-3.6-12.4-4.1c-1.6-0.2-2.8,0-3.4,1.7c-0.2,0.6-0.6,1.2-1,1.8
		c-0.5,0.7-0.4,1.3,0.1,2c2.6,3.9,5.9,7,9.9,9.4c0.9,0.5,0.9,0.9,0.5,1.8c-0.7,1.4-1.2,2.8-1.8,4.2c-0.4,0.9-0.7,1.9-1.1,2.9
		c-4.4-1.2-8.8-1.6-13.3-0.9c-2.7,0.4-2.7,0.4-3.4,3c0,0.6-0.1,1.2-0.3,1.9s0,1,0.5,1.4c3.5,3.2,7.6,5.4,12.1,6.6
		c1,0.3,1.1,0.7,1,1.6c-0.3,2.1-0.6,4.2-0.8,6.3c-0.1,1.1-0.5,1.4-1.5,1.4c-4.7,0.1-9.1,1.1-13.3,3.2c-0.6,0.3-0.9,0.6-0.9,1.4
		c0,1.1,0,2.3,0,3.4c0,0.7,0.3,1.1,0.9,1.4c2.8,1.4,5.8,2.4,9,2.9c1.8,0.2,3.7,0.4,5.5,0.6c0.4,3,0.8,5.9,1.2,8.9
		c-0.3,0.1-0.5,0.2-0.7,0.2c-3.6,1.1-7.1,2.5-10.1,4.9c-3.9,3-3.3,1.8-2.1,6.5c0.2,0.9,0.7,1.2,1.6,1.4c4.9,1,9.7,0.7,14.6-0.7
		c1.1,2.5,2.2,4.9,3.3,7.3c0.3,0.7,0.2,1-0.4,1.4c-3.1,1.8-5.9,4-8.1,6.9c-3.2,4.1-3.1,2.8-0.4,7.3c0.2,0.4,0.9,0.7,1.3,0.7
		c2.6-0.4,5.3-0.7,7.8-1.5c2.3-0.7,4.4-1.8,6.6-2.7c1.8,2.3,3.6,4.7,5.4,7.1c-0.3,0.3-0.6,0.6-0.8,0.9c-3.2,3.4-5.6,7.2-7.1,11.6
		c-0.2,0.7-0.2,1.3,0.4,1.8c0.8,0.8,1.6,1.6,2.4,2.5c0.5,0.5,0.9,0.6,1.5,0.3c2-0.9,4.1-1.7,6-2.8c2.3-1.4,4.5-3.2,6.8-4.9
		c2,1.5,4.1,3.1,6.2,4.7c0.7,0.5,0.8,0.9,0.4,1.6c-2.1,3.7-3.3,7.7-3.8,11.9c-0.3,2.3-0.2,2.4,1.8,3.6c0.6,0.3,1.2,0.6,1.8,1
		c0.7,0.5,1.2,0.3,1.8-0.1c4-2.6,7.1-6.1,9.6-10.1c0.4-0.7,0.7-0.8,1.4-0.5c2.1,0.9,4.1,1.8,6.2,2.5c0.9,0.3,1,0.7,0.8,1.6
		c-0.9,3.7-1.4,7.6-0.7,11.4c0.7,4,0,3.1,3.7,4.3c0.3,0.1,0.7,0.2,1,0.2c0.7,0.2,1.3,0,1.8-0.6c2.8-3.2,4.8-6.8,6.1-10.8
		c0.2-0.8,0.5-1.5,0.7-2.2c2.7,0.3,5.3,0.7,8,1c0.9,0.1,1.2,0.5,1.2,1.4c0.1,4.6,1.1,9,3.2,13.2c0.3,0.7,0.7,1,1.5,1
		c1.1-0.1,2.2-0.1,3.2,0c0.8,0,1.2-0.3,1.5-1c1.6-3.1,2.5-6.4,3-9.9c0.2-1.5,0.2-3,0.3-4.5c2.7-0.4,5.4-0.8,8.1-1.1
		c0.2,0,0.7,0.4,0.8,0.7c1,3.5,2.4,6.8,4.6,9.7c3.2,4.2,2,3.7,7,2.3h0.1c0.3-0.3,0.8-0.6,0.9-1c0.8-3.2,0.9-6.5,0.5-9.7
		c-0.2-1.8-0.6-3.6-0.9-5.4c2.5-1.1,5.1-2.3,7.7-3.4c0.2-0.1,0.8,0.3,1,0.7c1.8,3,4.1,5.8,6.9,8c4.2,3.2,2.8,3,7.3,0.5
		c0.6-0.4,0.9-0.8,0.8-1.6c-0.5-2.4-0.7-4.9-1.4-7.3c-0.7-2.4-1.8-4.7-2.8-7.1c2.2-1.7,4.5-3.5,6.8-5.3c0.3,0.3,0.5,0.5,0.7,0.7
		c3.4,3.2,7.3,5.7,11.9,7.3c0.7,0.2,1.1,0.2,1.6-0.3c0.7-0.7,1.4-1.5,2.2-2.2s0.8-1.4,0.5-2.3c-1.4-4-3.5-7.5-6.4-10.6
		c-0.5-0.5-1-1.1-1.4-1.6c1.9-2.5,3.7-4.8,5.5-7.2c0.2,0.1,0.5,0.2,0.7,0.3c3.6,2,7.4,3.3,11.4,3.9c3,0.5,3.2,0.4,4.6-2.2
		c0.2-0.4,0.4-0.7,0.6-1.1c0.5-0.7,0.4-1.4-0.1-2.1c-2.6-3.9-6-6.9-9.8-9.4c-0.3-0.2-0.7-0.8-0.7-1c1-2.5,2.1-5,3.2-7.6
		c0.3,0,0.6,0.1,0.9,0.2c3.9,1.1,7.8,1.4,11.7,0.8c3.9-0.6,3,0,4.1-3.5c0.1-0.4,0.2-0.7,0.3-1.1c0.2-0.7,0-1.2-0.5-1.8
		c-2.8-2.5-6-4.4-9.5-5.7c-1.2-0.5-2.4-0.8-3.5-1.2c0.3-2.5,0.7-5,0.9-7.5c0.1-1,0.4-1.3,1.4-1.3c4.6,0,8.9-1.1,13-3.1
		c0.9-0.4,1.4-0.9,1.3-1.9c-0.1-1,0-2.1-0.1-3.1c0-0.5-0.4-1.1-0.8-1.3c-1.9-0.8-3.9-1.8-5.9-2.3c-2.8-0.7-5.7-1-8.7-1.5
		c0-0.2-0.1-0.7-0.2-1.2c-0.3-2.1-0.5-4.1-0.9-6.2c-0.2-0.9,0.1-1.3,1-1.6c3.5-0.9,6.7-2.4,9.6-4.6c4-3.1,3.4-1.9,2.2-6.7
		c-0.2-0.8-0.7-1.1-1.4-1.3c-3.3-0.7-6.6-0.8-9.8-0.3c-1.6,0.2-3.2,0.6-4.9,0.9c-1-2.4-1.9-4.7-3-7c-0.4-0.9-0.3-1.2,0.5-1.7
		c3.9-2.3,7.2-5.4,9.8-9.2c0.6-0.9,0.6-1.5,0.1-2.3c-2.4-4.1-1.3-3.6-6.3-3c-3.6,0.5-7,1.8-10.1,3.6c-0.7,0.4-1,0.3-1.4-0.3
		c-0.6-0.9-1.3-1.8-2-2.7c-0.9-1.2-1.9-2.5-2.9-3.7c0.3-0.3,0.6-0.6,0.8-0.9c2.8-2.9,4.9-6.3,6.6-10c0.8-1.8,0.9-3.4-0.9-4.6
		c-0.5-0.3-0.8-0.7-1.2-1.1c-0.5-0.6-1-0.6-1.7-0.4c-3.2,1.1-6.2,2.7-8.9,4.8c-1.3,1-2.5,2.1-3.7,3.1c-2.4-1.8-4.7-3.7-7.1-5.6
		c2.3-3.8,3.7-7.8,4.3-12.1c0.4-2.9,0.5-3-2.1-4.4c-0.5-0.3-1-0.7-1.6-0.8c-0.5-0.1-1.1-0.2-1.5,0.1c-1.7,1.3-3.6,2.6-5,4.2
		c-1.9,2.1-3.5,4.4-5.3,6.6c-2.5-1-5.1-2.1-7.8-3.2c-0.7-0.3-0.5-0.7-0.4-1.1c1.1-4,1.3-8.1,0.8-12.3c-0.2-2.1-1.1-3.1-3.1-3.5
		c-2.6-0.5-2.6-0.7-4.3,1.5c-2.5,3.2-4.4,6.8-5.5,10.8c-0.2,0.8-0.5,1.3-1.4,0.9c-0.2-0.1-0.4,0-0.5-0.1c-2.5-0.3-4.9-0.7-7.5-1
		C106.1,16.3,106.1,15.8,106.1,15.3z M22.4,117.2c-1.2-5.7-1.9-11.6-1.9-17.5c0.3-19.9,6.6-37.6,20.1-52.4c0.5-0.5,1-1,1.6-1.3
		c0.9-0.5,1.8-0.4,2.5,0.4c2.8,2.8,5.7,5.6,8.4,8.5c1.4,1.4,1.2,2.8-0.1,4.3c-6.8,7.5-11.5,16-13.9,25.9c-2.1,9.1-2,18.2-0.3,27.3
		c0.4,2.1-0.2,3.2-2.3,3.8c-3.6,1.1-7.1,2.1-10.7,3.1C23.9,120,22.9,119.3,22.4,117.2z M123.7,102.8c-2.4-1.7-2.3-4.3,0.2-6
		c7.3-5,14.7-10,22.1-15c1.2-0.8,2.4-1.7,3.6-2.4c2.4-1.5,3.9-0.9,4.7,1.8c1.8,6.1,2.9,12.4,2.9,18.5c0,6.7-1,12.9-2.9,19.1
		c-0.8,2.7-2.3,3.3-4.6,1.7C141,114.6,132.4,108.8,123.7,102.8z M143.1,137.9c-8.9,9.4-19.7,15.6-32.3,18.5c-0.1,0-0.2,0-0.3,0
		c-2.5,0.4-3.6-0.5-3.5-2.9c0.3-4.6,0.6-9,0.9-13.5c0.3-4.7,0.7-9.4,1.1-14.1c0.1-1.3,0.2-2.6,0.2-3.9c0.2-3.1,2.6-4.3,5.5-2.9
		c6.4,3.1,12.7,6.2,19,9.2c2.7,1.3,5.5,2.7,8.2,3.9C145,133.6,145.4,135.4,143.1,137.9z M142.5,67.1c-9.3,4.5-18.6,9-27.9,13.5
		c-2.9,1.4-5.1,0-5.3-3.2c-0.5-7.7-1.1-15.3-1.7-23c-0.2-2.5-0.3-5.1-0.5-7.4c0-3.5,1-4.3,4.1-3.5c12.7,3,23.4,9.3,32.3,18.8
		C145.3,64.3,145,65.9,142.5,67.1z M119.5,100c0,10.9-8.8,19.8-19.7,19.8c-10.8,0-19.6-8.8-19.8-19.4c-0.2-10.3,7.9-20,19.7-20.2
		C110.6,80.1,119.5,89.1,119.5,100z M93.3,153.3c0,0.3,0,0.5,0,0.6c0,2.4-1.2,3.3-3.5,2.8c-1.9-0.5-3.9-1-5.8-1.6
		c-10.7-3.3-19.6-9.3-27.2-17.4c-1.8-2-1.6-3.6,0.9-4.8c8.4-4.1,16.7-8.2,25.1-12.2c1-0.5,1.9-0.9,2.9-1.4c2.7-1.3,5.1,0,5.3,3
		c0.4,5.4,0.8,10.8,1.1,16.2c0.3,4.6,0.7,9.1,1,13.7C93.2,152.7,93.3,153.1,93.3,153.3z M92.7,48.1c-0.6,8.7-1.3,17.5-1.9,26.3
		c-0.1,1.3-0.2,2.7-0.4,4c-0.4,2.7-2.6,3.9-5.1,2.7c-2.3-1.1-4.6-2.2-6.8-3.3c-6.9-3.3-13.7-6.6-20.6-10c-0.2-0.1-0.3-0.2-0.5-0.2
		c-2.7-1.4-3-3-0.9-5.1c8.9-9.6,19.6-15.9,32.3-18.7c0.5-0.1,0.9-0.2,1.4-0.2c1.4-0.1,2.3,0.6,2.5,2C92.8,46.3,92.7,47.2,92.7,48.1z
		 M75.9,97.1c2.5,1.7,2.5,4.4,0,6.1c-8.5,5.7-16.9,11.5-25.4,17.2c-0.3,0.2-0.6,0.4-0.9,0.5c-2,1.1-3.4,0.6-4-1.6
		c-1.9-6.2-3-12.6-3-19.2c0-6.5,1.1-12.8,3-19.1c0.7-2.5,2.3-3.1,4.5-1.6C58.7,85.4,67.3,91.2,75.9,97.1z M173.3,129.6
		c-3.9,9.4-9.3,17.9-16.3,25.2c-10.8,11.2-23.6,18.7-38.7,22.4c-6.1,1.5-12.3,2.2-18.6,2.2c-32.3,0-61.2-19.5-73.3-49.5
		c-0.1-0.3-0.2-0.6-0.4-0.9c-0.5-1.4,0-2.5,1.4-3c3.8-1.4,7.6-2.7,11.5-3.9c1.5-0.5,2.7,0,3.2,1.5c5.7,14,15.3,24.5,28.5,31.6
		c7.3,3.9,15.1,6.3,23.3,7c19.5,1.6,36.1-4.6,50-18.2c5.7-5.6,10.1-12.3,13.2-19.7c1-2.3,2-2.7,4.4-1.9c3.3,1.1,6.6,2.3,10,3.4
		C173.9,126.5,174.3,127.4,173.3,129.6z M155.1,46.2c0.9-0.9,2.3-0.9,3.2,0.2c2.1,2.4,4.3,4.8,6.2,7.3c7.8,10.7,12.4,22.7,14,35.7
		c0.4,3.4,0.6,6.9,0.9,10.3c-0.1,5.8-0.8,11.6-2,17.2c-0.5,2.3-1.4,2.8-3.7,2.2c-3.5-1-7-2.1-10.5-3.1c-2.2-0.7-2.7-1.6-2.4-3.9
		c0.5-3.7,1.1-7.3,1.2-11c0.6-16-4.4-29.9-15-41.9c-0.5-0.5-1-0.9-1.2-1.6c-0.5-1.2-0.2-2.3,0.7-3.2C149.4,52,152.3,49.1,155.1,46.2
		z M149,37.8c2.1,1.6,2.1,2.7,0.5,4.6c-2.4,2.7-4.8,5.3-7.3,8c-1.4,1.6-2.3,1.6-4.1,0.5c-2.5-1.7-4.8-3.4-7.4-5
		c-10.5-6.1-22-8.8-34.1-8.2C84,38.4,72.5,42.5,62.4,50.2c-0.4,0.3-0.8,0.6-1.1,0.9c-1.6,1-2.4,0.9-3.7-0.5
		c-2.5-2.7-4.9-5.5-7.4-8.2c-1.6-1.8-1.6-3,0.4-4.6c4-3.2,8.2-5.9,12.7-8.2c8.1-4.2,16.7-7,25.7-8.2c3.6-0.5,7.3-0.6,9.2-0.8
		C118.2,20.7,134.5,26.6,149,37.8z"/>
	<path class="st0" d="M87.2,23.6c0.2,0.9,0.2,1.6,0.4,2.5c1.3-0.2,2.5-0.3,3.9-0.5c0.4,3.4,0.7,6.8,1.1,10.2c1-0.1,1.9-0.2,2.9-0.3
		c-0.3-3.4-0.7-6.7-1-10.1c0.8-0.1,1.5-0.2,2.2-0.2c2-0.2,2-0.2,1.6-2.1c0-0.1-0.1-0.3-0.2-0.6C94.5,22.8,90.9,23.2,87.2,23.6z"/>
	<path class="st0" d="M79.9,25.4c-3.5,0-6.4,2.9-6.4,6.4c0,3.6,2.9,6.5,6.4,6.5s6.4-2.9,6.4-6.4C86.3,28.3,83.4,25.4,79.9,25.4z
		 M80,35.7c-2.2,0-4-1.7-4-3.9s1.7-3.9,3.9-3.9c2.2,0,3.9,1.6,3.9,3.8S82.2,35.6,80,35.7z"/>
	<path class="st0" d="M150.6,139.7c-1.5,1.1-1.6,2-0.7,3.6c0,0.1,0.1,0.1,0.1,0.2c1.9,3.2,3.9,6.3,5.8,9.6c2-1.6,1.9-1.6,1-3.4
		c-0.1-0.2,0-0.7,0.1-0.9c0.7-0.9,1.5-1.8,2.1-2.7c0.5-0.8,1.1-1,1.9-0.5c0.3,0.2,0.9,0.2,1.1,0c0.5-0.5,0.9-1.1,1.4-1.8
		c-4.2-1.4-8.2-2.7-12.3-4.1C151.1,139.5,150.8,139.5,150.6,139.7z M157.2,144.2c-0.7,0.9-1.4,1.7-2.1,2.6c-0.9-1.4-1.6-2.6-2.5-4.2
		C154.3,143.2,155.7,143.7,157.2,144.2z"/>
	<path class="st0" d="M143.7,147.3c1.6,1.8,3.2,3.4,5,5.3c-2.5-0.7-4.8-1.3-6.9-2.1c-1.5-0.6-2.5,0.1-3.4,1.1
		c2.1,2.9,4.2,5.7,6.3,8.5c1.5,2,1.5,2,3.3,0.2c0.1-0.1,0.1-0.2,0.2-0.3c-0.7-0.9-1.4-1.8-2.1-2.7c-0.7-0.9-1.4-1.8-2.1-2.7
		c2.3,0.5,4.5,1.1,6.7,1.8c1.8,0.5,2.7,0.1,3.7-1.6c-2.9-3.1-5.8-6.2-8.8-9.4C144.8,146.1,144.3,146.7,143.7,147.3z"/>
	<path class="st0" d="M164.7,137.5c-3.1-1.7-6.1-3.4-9.2-5c-0.5,0.8-0.9,1.5-1.3,2.3c3.8,2.1,7.5,4.1,11.3,6.2
		c1.5-2.7,2.9-5.2,4.4-7.8c-0.8-0.4-1.4-0.8-2.1-1.1C166.7,133.9,165.7,135.6,164.7,137.5z"/>
</g>
</svg>
