<?xml version="1.0" encoding="utf-8"?>
<!-- Generator: Adobe Illustrator 19.2.0, SVG Export Plug-In . SVG Version: 6.00 Build 0)  -->
<svg version="1.1" xmlns="http://www.w3.org/2000/svg" xmlns:xlink="http://www.w3.org/1999/xlink" x="0px" y="0px"
	 viewBox="0 0 150 150" style="enable-background:new 0 0 150 150;" xml:space="preserve">
<style type="text/css">
	<!--.st0{display:none;}
    .st0:target{display:inline;}
	.st1{display:inline;}
	.st2{fill:#000066;}
	.st3{display:inline;fill:#000066;}
	.st4{fill:#FFFFFF;}
	.st5{fill:none;stroke:#FFFFFF;stroke-miterlimit:10;}
	.st6{fill:#1B1464;}
	.st7{fill:none;stroke:#FBC926;stroke-width:4;stroke-miterlimit:10;}
	.st8{fill:none;}-->
  
	<style><![CDATA[
		.st0{display:none;}
		.st0:target {display: inline-block;
                    fill:#006;}
        .st0:hover {display: inline-block;
                    fill:#FC3}
	]]></style>

</style>
<g id="twitter" class="st0">
	<g id="twitter_1_" class="st1">
		<path class="st2" d="M134.7,44.5c0.1,1.3,0.1,2.6,0.1,4c0,40.7-31,87.6-87.6,87.6c-17.4,0-33.6-5.1-47.2-13.8
			c2.4,0.3,4.8,0.5,7.4,0.5c14.4,0,27.7-4.9,38.2-13.2c-13.5-0.3-24.9-9.2-28.8-21.4c1.8,0.4,3.8,0.5,5.8,0.5c2.8,0,5.5-0.4,8.1-1.1
			C16.5,84.7,5.8,72.1,6,57l0,0c4.1,2.3,8.9,3.7,14,3.8c-8.3-5.5-13.7-15-13.7-25.6c0-5.7,1.5-11,4.1-15.5
			c15.2,18.6,37.9,30.9,63.5,32.1c-0.4-1.7-0.6-3.4-0.8-5.1c-1-17.3,12.7-32.3,30.2-32.7c9.1-0.2,17.3,3.6,23.1,9.7
			c7.1-1.4,13.6-3.9,19.6-7.4c-2.3,7.2-7.2,13.2-13.6,17c6.2-0.8,12.2-2.4,17.6-4.8C146,34.8,140.8,40.1,134.7,44.5z"/>
	</g>
</g>
<g id="meetup" class="st0">
	<g class="st1">
		<path class="st2" d="M72.8,73.1c0.2-1.9,0.1-3.9,0.1-5.9c-0.2,0-0.4-0.1-0.5-0.1c-0.9,2.5-1.7,5-2.6,7.5
			C72.5,75.4,72.6,75.4,72.8,73.1z"/>
		<path class="st2" d="M123.8,81.1c6-3.1,8.9-9.6,6.6-15.4C125.6,69.7,125,75.4,123.8,81.1z"/>
		<path class="st2" d="M76,0C34.6,0,1,33.6,1,75s33.6,75,75,75s75-33.6,75-75S117.4,0,76,0z M41.9,88.8c-1,0.3-1.3-0.1-1.6-1.1
			c-1.7-5.6-3.5-11.3-5.3-17c-0.1,0.8-0.2,1.3-0.2,2c-0.2,3.4-0.3,6.8-0.5,10.2c0,0.8-0.2,1.7-0.4,2.4c-0.2,0.5-0.9,1-1.5,1.1
			c-0.8,0.2-1.7,0.1-2.6,0.4c-2.1,0.6-3.2-0.5-4.2-2.1c-1.2-2-2.4-4-3.7-5.9c-0.1,0-0.1,0-0.2,0c0.2,1.8,0.4,3.6,0.8,5.4
			c0.1,1.1-0.2,1.6-1.2,2c-0.2,0.1-0.4,0.2-0.6,0.3c-4,1.6-4.8,1-5.5-3.2c-0.9-6.1-0.7-12.2-0.5-18.3c0-0.4,0.5-0.8,0.8-1
			c0.7-0.3,1.4-0.5,2.2-0.6c3-0.4,3.8-0.1,5.2,2.6c1.3,2.6,2.7,5.3,4.1,7.9c0.2,0.4,0.4,0.7,0.7,1.2c0.6-2.9,1.1-5.7,1.8-8.3
			c0.8-2.5,1.7-5,2.8-7.4c0.1-0.4,1-0.8,1.5-0.8c1.4,0,3-0.1,4.3,0.4c0.8,0.3,1.6,1.4,1.9,2.3c0.9,3.1,1.7,6.4,2.4,9.6
			c1.3,5.6,2.5,11.3,3.8,17C44.9,88.1,43.4,88.4,41.9,88.8z M49.7,86.7c-2.8-1.7-3.8-4.1-3.8-7.1c0.1-3.7-0.1-7.3,1-10.9
			c0.8-2.9,2.8-4.7,5-6.6c2.1-1.9,4.2-1.2,6.5-0.8c2.5,0.5,3,2.1,3.1,4.1c0.2,3.5,0.9,7.1,0,10.7c-0.2,0.9-0.4,1.3-1.4,1.3
			c-2.5-0.2-4.9-0.3-7.6-0.4c-0.3,2.4-0.4,4.7,1,6.9c1.4,2.1,3.1,2.5,5.4,1.4c2-0.9,4.2-0.4,5.9,1.3C60.9,89.3,53.5,89.2,49.7,86.7z
			 M73.8,87.9c-1.1-0.2-2.4-0.2-3.5-0.5c-4.2-1.1-6.7-4.7-6.8-9.1c-0.1-4.2,0.9-8.2,2.6-11.8c1.2-2.6,3.4-4.7,5.4-7
			c0.4-0.5,1.5-0.4,2.1-0.2c1.4,0.4,2.9,0.9,4.2,1.6c0.5,0.2,1.1,1.1,1,1.6c-0.1,2.3-0.5,4.6-0.7,6.9c-0.3,2.7-0.4,5.5-0.8,8.3
			c-2.5,1.6-5.3,0.6-7.9,0.2c-0.9,2.7,0.4,4.6,1.9,6.4c1.3,1.5,2.9,1.6,4.6,1c1-0.4,1.9-1.1,2.9-1.6c0.4-0.2,1-0.3,1.5-0.1
			c1.1,0.3,1.7,1,1.8,2.3C79.4,87.3,76.8,88.6,73.8,87.9z M98,75.8c-1.9,0.3-3.8,0.5-5.7,0.8c-0.7,0.1-1.3,0-1.2,1.1
			c0.2,1.8,0,3.7,0.1,5.5c0,1.8,0.1,3.7,0.2,5.7c-1.4,0.2-2.8,0.4-4.3,0.8c-0.1-2.1-0.2-4.2-0.4-6.2c-0.2-2-0.4-4-0.5-6.2
			c-1.3-0.1-2.6-0.2-3.9-0.2c-1.2,0-2.1-0.4-2-1.7c0.1-1.4,1-1.8,2.3-1.7c1.1,0.1,2.1,0.1,3.3,0.2c-0.4-4.3-0.9-8.3-1.3-12.3
			c-0.2-2.9-0.4-5.9-0.3-8.8c0.1-3.1,1.4-3.8,4.2-2.5c2.9,1.3,2.8,1.4,2.7,4.6c-0.1,4.7,0.2,9.5,0.2,14.2c0,1.1-0.3,2.1-0.4,3.1
			c0,0.4,0.3,0.8,0.4,1.3c0.2-0.3,0.6-0.7,0.6-1c0.1-1,0.8-1.3,1.4-0.8C95,73,96.5,74.4,98,75.8C98.2,75.4,98,75.6,98,75.8z
			 M110.4,86c-0.6,0.6-1.3,1.3-2.1,1.5c-1.4,0.3-2.9,0.5-4.4,0.4c-1.6,0-2.8-1.3-3.1-2.7c-0.8-3.8-1.5-7.7-2.1-11.6
			c-0.2-1.1-0.2-2.3-0.1-3.4c0-1.6,0.8-2.1,2.3-1.6c0.4,0.1,0.9,0.4,1.3,0.6c3,1.3,2.9,1.4,2.9,4.6s0.4,6.4,0.5,9.7
			c0,0.4,0.2,0.8,0.4,1.3c3.5-2.9,4.5-6.7,4.5-10.8c0-1-0.4-1.9-0.3-2.8c0-0.7,0.4-1.5,0.8-2c0.3-0.3,1.1-0.2,1.7-0.1
			c0.8,0.2,1.5,0.7,2.3,1c1.7,0.8,2.1,2,2,3.8c-0.2,3.8-2,6.5-4.3,9.1C111.9,84,111.3,85.1,110.4,86z M133,80.4
			c-2.1,1.7-4.2,3.5-6.4,5.2c-0.8,0.6-2,0.8-3,1.1c-0.7,2.9-0.3,7.2,1.4,13.8c-1.7,0.1-3.3,0.1-5,0.1c-0.3,0-0.7-0.8-0.8-1.3
			c-0.6-4-1.1-7.9-1.7-12c-0.1-0.7-0.5-1.4-0.9-1.9c-1.4-1.3-1.3-2.3,0.5-3.2c0.3-0.2,0.5-0.8,0.6-1.1c0.8-3.6,1.2-7.2,2.1-10.8
			c1-3.9,3.3-7,7-8.9c1-0.5,2.4-0.4,3.5-0.2s2.1,0.9,3.2,1.2c2.9,0.7,3.7,3.1,3.9,5.5C137.9,72.8,136.9,77.2,133,80.4z"/>
		<path class="st2" d="M55.3,73.4c0-2.1-0.1-4.1-0.2-6.1c-0.1,0-0.4-0.1-0.5-0.2c-0.5,1.3-1.1,2.6-1.5,3.9
			C52.5,73.4,52.6,73.4,55.3,73.4z"/>
	</g>
</g>
<g id="linked_in" class="st0">
	<g class="st1">
		<polygon class="st2" points="35.1,149.1 0.5,149.1 0.5,50.5 35.9,50.5 		"/>
		<ellipse class="st2" cx="18.6" cy="15.7" rx="17.3" ry="15.7"/>
		<path class="st2" d="M121,149.1c0,0,0.6-41.1-0.6-55.3c-0.5-5.1-4.9-18-15.6-17.7c-17.1,0.6-20.1,17.1-20.1,17.1V149H49.9V50.9
			l33.8-0.2l-0.2,16.2c0,0,10.5-21.7,39.9-16.7c16.8,2.8,27.9,20.1,27.9,31.1c0,14.9,0,55.6,0,67.7L121,149.1L121,149.1z"/>
	</g>
</g>
<g id="facebook" class="st0">
	<path class="st3" d="M106.6,75.9h-21l0.1,74.1H61.1L61,75.9H40.1V53.6h20.6l-0.2-25.9C60.4,12.4,72.8,0,88,0l22.4,0.1L110,24.9
		L92.3,25c-4.1,0-7.4,3.4-7.3,7.6l0.7,21.3h25.4L106.6,75.9z"/>
</g>
<g id="email" class="st0">
	<g class="st1">
		<path class="st2" d="M129.3,117.6h10.3c-8.7,10.4-16.8,17.7-24.2,21.9c-10.5,5.9-22.5,8.8-36,8.8c-14.2,0-27.4-3.2-39.4-9.7
			s-21.4-15.3-28.2-26.4s-10-23.4-10-36.6c0-13.4,3.4-25.9,10.2-37.4c6.7-11.5,16-20.5,27.7-26.9s24.5-9.6,38.5-9.6
			c19.7,0,36.2,6,49.8,18.1c13.5,12.1,20.3,26.1,20.3,42.1c0,11.7-2.8,21.7-8.4,30.2c-5.6,8.4-13.3,15-22.9,19.7
			c-7.4,3.6-13.6,5.4-18.8,5.4c-3.8,0-6.8-1-9-2.9c-1.7-1.4-2.6-3.9-2.6-7.5c-2.2,2.7-5.3,4.9-9.1,6.7c-3.9,1.8-7.9,2.7-12.1,2.7
			c-9.4,0-17.1-3.1-23.2-9.3c-6.1-6.2-9.2-14.4-9.2-24.7c0-11,3.7-21.1,11.1-30.2s17.6-13.7,30.6-13.7c5.7,0,10.5,1,14.4,3.1
			s7.5,5.6,11,10.7l2.6-12.9h10.6L102,100.3c-0.3,2-0.5,3.3-0.5,3.8c0,1.5,0.5,2.6,1.4,3.4s2.1,1.2,3.5,1.2c3.8,0,8.8-2.1,15-6.4
			s10.9-9.8,14.3-16.5c3.4-6.7,5.1-14.1,5.1-22.3c0-15.8-6.4-29-19.2-39.4C109.4,14.8,94.9,10,77.7,10c-12.8,0-24.3,2.8-34.7,8.4
			S24.4,31.8,18.4,42c-6,10.1-9,21.1-9,32.9c0,11.9,3,22.9,9.1,33s14.4,18,25.1,23.7c10.7,5.7,22.5,8.6,35.4,8.6
			c9.4,0,18-1.6,25.7-4.9C112.3,131.9,120.5,126.1,129.3,117.6z M70.2,105.7c4.3,0,8.3-1.3,12.1-3.9c3.8-2.6,6.8-6.5,9-11.7
			c2.9-6.8,4.3-13.6,4.3-20.5c0-6.3-1.8-11.4-5.5-15.3s-8.4-5.9-14.3-5.9c-7.8,0-14.6,3.1-20.2,9.2c-5.7,6.1-8.5,13.8-8.5,23
			c0,7.7,2.2,13.8,6.5,18.3C57.8,103.5,63.3,105.7,70.2,105.7z"/>
	</g>
</g>
<g id="Louisville" class="st0">
	<g class="st1">
		<path class="st2" d="M75,32.2c-24.4,0-44.1,19.2-44.1,42.8s19.7,42.8,44.1,42.8s44.1-19.2,44.1-42.8S99.4,32.2,75,32.2z
			 M43.4,60.1l4-1.1l1.4-4l2.3,3.5l4.2,0.1l-2.6,3.3l1.2,4L50,64.4l-3.4,2.4l0.2-4.2L43.4,60.1z M86,85.4c-1.4,2.3-2.5,4-3.9,6.3
			c2.9,5.4,9,6.6,14.8,8.7c-0.8,3.1-1.6,6.1-2.3,9c-0.4,0.2-0.7,0.4-1.1,0.6c-4.7-6-9.4-12-14.1-18.1c-0.2,0.1-0.5,0.2-0.7,0.4
			c3.4,5.8,6.9,11.7,10.7,18.1c-1.5-0.1-2.1,0.1-2.6-0.2c-3.3-1.4-5.7-0.8-7.9,2.2c-1.7,2.3-4.6,3.3-6.8,1c-3-3.1-5.9-5.3-10.7-2.7
			c-0.1-0.4-0.3-0.8-0.4-1.1c3.4-5.8,6.8-11.5,10.2-17.3c-0.2-0.1-0.4-0.2-0.7-0.4c-4.6,6-9.3,11.9-13.9,17.9
			c-0.4-0.1-0.7-0.3-1.1-0.4c-0.7-2.6-1.6-5.1-2-7.7c-0.1-0.7,1.2-1.8,2.1-2.3c3-1.6,6.4-2.7,9.3-4.4c2.3-1.4,4.5-3.5,0.9-6.2
			c-0.8-0.7-1.1-2.1-1.8-3.6c1.4,0.2,2.3,0.4,3.3,0.6c-2.8-7.5-10.4-7.9-18.9-1.1c-0.6-6.1,3.3-11.8,8.9-12.8
			c4.2-0.8,8.6-0.8,10.9,3.3c1.9,3.4,2.5,7.5,4.4,11.4c-0.1-2.3,0.3-4.9-0.5-6.9c-1.2-2.9-2.8-5.8-5-8c-4.7-4.8-5.3-10.4-3.7-16.4
			c1.9-7.2,6.2-13,12.4-19.9c0.7,1.5,1.1,2.7,1.7,3.7c2.8,4.6,6.1,9,8.3,13.9c3.2,7,2.3,13.6-3.5,19.3c-3.4,3.3-5.4,7.3-5,12.2
			c0,0.7,0.3,1.3,1.3,2.1c0.2-0.9,0.5-1.8,0.5-2.7c0.5-8.5,4-12.4,11-12.3c7.1,0.1,11.6,5.3,11.6,13.2c-9-6.7-15.5-6.5-19.1,1
			C83.5,85.6,84.3,85.5,86,85.4z M104.7,65.9l-3.9-1.5l-3.4,2.4l0.2-4.2l-3.3-2.5l4-1.1l1.4-4l2.3,3.5l4.2,0.1l-2.6,3.3L104.7,65.9z
			"/>
		<g>
			<path class="st2" d="M24.4,97.1c1-0.5,1.5-0.8,1.8-1c0.2,0.2,0.6,0.8,0.7,1s0,0.3-0.6,0.6l-6,3.1c-1.9,1-2.9,1.2-4,0.8
				c-0.5-0.2-1-0.6-1.2-0.9c-0.1-0.3,0-0.7,0.3-0.9h0.1c0.8,0.9,1.5,1.1,4.1-0.2L24.4,97.1z"/>
			<path class="st2" d="M26,100.4c0.6-0.4,1.2-0.8,1.7-1.1c0.3,0.2,0.6,0.6,0.9,0.9l2.2,3.4c-0.4,0.2-0.7,0.2-0.9,0.2
				c-0.2-0.1-0.4-0.4-0.8-1l-1.2-1.9l-2.8,1.8l2,3.1c-0.8,0.4-1.1,0.2-1.4-0.3l-1.5-2.3l-3.1,2c0.1,0.3,0.5,1.1,1,1.7
				c0.4,0.6,1,1.5,1.4,1.9l0,0c-0.5,0.1-0.9,0.1-1.2-0.1c-0.1-0.2-0.5-0.7-1.1-1.6c-0.7-1.1-1.3-2.1-1.4-2.5l0.1-0.4L26,100.4z"/>
			<path class="st2" d="M30.1,106c0.6-0.5,1-0.9,1.3-1.1c0.2,0.2,0.7,0.5,1,0.9l2.7,3.2c-0.4,0.2-0.7,0.3-0.9,0.2
				c-0.2,0-0.4-0.3-0.8-0.8l-1.7-2l-2.9,2.4l2.5,2.9c-0.7,0.5-1.1,0.3-1.4-0.1l-1.8-2.2c-1.4,1.1-2.4,2-3.3,2.8
				c-0.2-0.1-0.6-0.5-0.8-0.8c-0.1-0.1-0.1-0.3,0-0.4L30.1,106z"/>
			<path class="st2" d="M34.6,111.1c0.6-0.6,0.9-1,1.1-1.3c0.3,0.1,0.7,0.4,1.1,0.8l3.1,2.9c-0.3,0.3-0.6,0.4-0.9,0.4
				c-0.2,0-0.4-0.2-0.9-0.7l-1.9-1.8l-2.5,2.7l2.8,2.6c-0.7,0.6-1,0.4-1.4,0l-2.1-1.9c-1.2,1.3-2.1,2.3-2.9,3.2
				c-0.2-0.1-0.6-0.4-0.9-0.7c-0.1-0.1-0.2-0.2,0-0.4L34.6,111.1z"/>
			<path class="st2" d="M39.3,115.9c0.4-0.6,0.8-1.1,1.2-1.7c0.3,0.1,0.8,0.3,1.1,0.6l3.3,2.4c-0.3,0.3-0.6,0.5-0.8,0.5
				s-0.5-0.3-1.1-0.7l-1.8-1.3l-2,2.7l3,2.2c-0.6,0.6-1,0.5-1.4,0.2l-2.2-1.6l-2.2,2.9c0.2,0.3,0.9,0.8,1.5,1.3c0.6,0.4,1.4,1,2,1.3
				l0,0c-0.4,0.3-0.8,0.4-1.2,0.3c-0.2-0.1-0.7-0.4-1.6-1.1c-1.1-0.8-1.9-1.5-2.2-1.8v-0.4L39.3,115.9z"/>
			<path class="st2" d="M42.7,127.1c-0.1,0.3-0.2,0.3-0.4,0.2c-0.3-0.1-0.9-0.4-1-0.5c0.3-0.5,0.8-1.4,1.5-2.5l2.6-4.7
				c0.4-0.7,0.6-1,0.8-1.5c0.4,0.1,1.6,0.6,2.2,0.9c1.9,1,2.7,2.3,1.7,4.2c-0.8,1.4-2.3,1.4-3,1.4c0.2,0.4,0.3,1.3,0.4,2.5
				c0.1,1.6,0.2,2.6,0.4,3.1v0.1c-0.2,0-0.5-0.1-0.9-0.3s-0.6-0.6-0.7-1.3c-0.1-1-0.1-1.5-0.1-2.6c-0.1-1.2-0.2-1.6-1-2l-0.4-0.2
				L42.7,127.1z M44.9,122.9c0.5,0.3,1.3,0.7,1.6,0.7c0.6,0.1,1.5-0.1,2.1-1.1c0.7-1.3,0.1-2.3-0.8-2.8c-0.3-0.2-0.6-0.3-0.9-0.4
				L44.9,122.9z"/>
			<path class="st2" d="M57.6,123.8c-0.1,0.3-0.5,0.6-0.8,0.5c-0.3-0.3-0.8-0.7-1.3-0.9c-0.8-0.3-1.7-0.2-2.1,0.7
				c-0.3,0.9,0.1,1.5,1.1,2.7c1.2,1.5,1.6,2.3,1.1,3.6c-0.6,1.7-2.4,2.1-4.2,1.5c-1-0.4-1.6-1-1.9-1.4c-0.1-0.2-0.2-0.3-0.1-0.5
				c0.1-0.3,0.4-0.5,0.5-0.6c0.4,0.6,1.2,1.3,1.9,1.5c1.1,0.4,2,0.1,2.3-0.8s0-1.5-1.2-2.9c-1.4-1.6-1.3-2.6-0.9-3.5
				c0.4-0.9,1.6-2.2,3.9-1.3C56.6,122.7,57.4,123.3,57.6,123.8z"/>
			<path class="st2" d="M67.7,130.8c-0.6,2.7-2.8,4.9-6.1,4.2c-3.6-0.8-4.4-3.9-4-6.1c0.6-3,3-4.9,6.1-4.2
				C66.8,125.4,68.3,128,67.7,130.8z M59.2,129.1c-0.6,2.8,0.9,4.6,2.7,5c2,0.4,3.7-0.7,4.3-3.5c0.5-2.4-0.6-4.5-2.7-5
				C61.5,125.2,59.8,126.4,59.2,129.1z"/>
			<path class="st2" d="M69.6,126.1L69.6,126.1c0.2-0.1,1.1-0.2,1.3-0.2c0.1,0,0.3,0.1,0.4,0.3c0.5,0.7,2,3,3.6,5.3
				c0.8,1.2,1.5,2.1,1.9,3c0-1.6,0-2.5,0-3.4l0.1-4.5c0-0.4,0.1-0.4,0.3-0.4c0.3,0,0.7,0,0.9,0c-0.1,0.7-0.1,1.6-0.1,2.9l-0.2,7.1
				c-0.1,0.1-0.7,0.2-1,0.2c-0.1,0-0.2-0.1-0.3-0.1c-1-1.5-2.5-3.6-3.8-5.6c-0.6-0.9-1.1-1.8-1.7-2.8c0,1.9,0,2.8,0,3.6l-0.1,4.1
				c0,0.4-0.1,0.4-0.3,0.5c-0.3,0-0.6,0-0.9,0c0-0.6,0.1-1.6,0.1-2.9l0.2-6.5L69.6,126.1z"/>
			<path class="st2" d="M92.4,132.6c0,0.4-0.1,0.8-0.3,1.1c-0.3,0.3-1.1,0.8-2.2,1c-3.5,0.7-5.8-0.9-6.4-3.9
				c-0.7-3.2,1.3-5.7,4.3-6.4c1.5-0.3,2.7-0.1,3,0.2c0.1,0.5-0.2,0.8-0.5,0.9c-0.6-0.2-1.4-0.2-2.3,0c-2.1,0.4-3.6,2.2-3,4.9
				c0.5,2.4,2.4,3.8,5.1,3.2C91,133.4,91.9,132.9,92.4,132.6L92.4,132.6z"/>
			<path class="st2" d="M102,124.8c1,2.6,0.4,5.6-2.7,6.9c-3.4,1.4-5.8-0.8-6.7-2.8c-1.1-2.8-0.2-5.7,2.7-6.9
				C98.2,120.8,100.9,122.2,102,124.8z M93.9,128.2c1.1,2.6,3.3,3.4,5.1,2.7c1.9-0.8,2.7-2.7,1.6-5.3c-0.9-2.3-3-3.5-5-2.6
				C93.7,123.6,92.9,125.6,93.9,128.2z"/>
			<path class="st2" d="M105.1,123.5c1.8,2.8,3.4,2.4,4.4,1.7c1.2-0.8,2.1-2,0.2-4.9l-2.6-4c-0.2-0.3-0.1-0.4,0-0.5
				c0.3-0.2,0.6-0.5,0.8-0.6c0.3,0.5,0.8,1.3,1.5,2.5l1.2,1.9c2.5,3.9,0.7,5.6-0.7,6.6c-2,1.3-4,1.2-6.1-1.9l-1.8-2.7
				c-0.6-0.9-0.9-1.4-1.1-1.7c0.2-0.2,0.7-0.6,0.9-0.7c0.2-0.1,0.3-0.1,0.7,0.6L105.1,123.5z"/>
			<path class="st2" d="M109.2,114.5L109.2,114.5c0.1-0.2,0.7-0.9,0.8-1c0.1-0.1,0.3-0.1,0.5-0.1c0.9,0.1,3.6,0.7,6.3,1.2
				c1.4,0.3,2.5,0.5,3.4,0.8c-1.2-1.1-1.8-1.8-2.3-2.4l-3-3.3c-0.3-0.3-0.2-0.4-0.1-0.5c0.2-0.3,0.5-0.5,0.6-0.6
				c0.4,0.5,1.1,1.2,2,2.2l4.8,5.2c0,0.1-0.3,0.6-0.6,0.9c-0.1,0.1-0.2,0.1-0.3,0.1c-1.8-0.3-4.3-0.8-6.6-1.3c-1-0.3-2-0.5-3.2-0.8
				c1.4,1.3,1.9,2,2.5,2.6l2.8,3c0.3,0.3,0.2,0.4,0.1,0.6c-0.2,0.2-0.4,0.4-0.6,0.6c-0.4-0.5-1-1.2-2-2.2l-4.4-4.8L109.2,114.5z"/>
			<path class="st2" d="M118.6,106l-1.9,2.4c-0.1,0.2-0.3,0.2-0.4,0c-0.2-0.3-0.3-0.6-0.3-0.8c0.2-0.1,0.4-0.4,1.5-1.8l3.3-4.3
				c0.4,0.3,0.5,0.8,0.4,1.1l-1.8,2.3l5.6,4.3c0.9,0.7,1.3,1,1.6,1.2c-0.2,0.3-0.4,0.7-0.6,1c-0.1,0.1-0.2,0.2-0.4,0L118.6,106z"/>
			<path class="st2" d="M127.5,101.6c-0.3-0.1-0.4-0.2-0.7-0.2c-1.5,0.1-4.5,0.3-6,0.5l0,0c0.1-0.4,0.2-0.9,0.4-1.2
				c0.1-0.2,0.3-0.2,1-0.3c1.1-0.1,3-0.2,4.4-0.3c-0.5-0.9-2.1-4.2-2.4-4.7c0.2-0.3,0.4-0.6,0.5-0.7c0.2-0.2,0.3,0,0.5,0.3
				c0.3,0.7,2.2,4.5,2.3,4.9c0.1,0.2,0.3,0.3,0.5,0.5l2,1.1c1,0.5,1.4,0.7,1.7,0.9c-0.1,0.3-0.2,0.7-0.5,1.1
				c-0.1,0.2-0.2,0.2-0.4,0.1L127.5,101.6z"/>
		</g>
		<g>
			<path class="st2" d="M39,39c2.5-2.4,2.5-6-1-9.6c-3-3.1-7.1-3.5-9.8-0.9c-2.5,2.4-2.4,6.1,0.9,9.5C32.6,41.6,36.7,41.3,39,39z"/>
			<path class="st2" d="M75,1.9C34.6,1.9,1.9,34.6,1.9,75s32.7,73.1,73.1,73.1s73.1-32.7,73.1-73.1S115.4,1.9,75,1.9z M136.4,57.4
				l0.7,0.3c0.4,1.2,0.9,2.4,1.1,2.9l-0.1,0.1c-0.9,0-6.8,0-7.9,0c-0.3,0-0.3-0.1-0.4-0.3c0-0.3-0.1-0.7-0.1-0.9c0.7,0,3.6,0,7.2,0
				C136.9,59.1,136.5,58.1,136.4,57.4L136.4,57.4z M129.9,70.2c1.5,1.3,5.1,3.1,7.3,3.7v-3.3c0-0.8,0.1-0.9,0.3-0.9s0.6,0.3,0.8,0.6
				c-0.1,0.2-0.1,0.5-0.1,1.2V75h-0.1c-2.1-0.2-7.1-2.8-7.8-3.4c-0.2-0.2-0.3-0.4-0.4-0.7C129.8,70.6,129.8,70.4,129.9,70.2
				L129.9,70.2z M129.8,63.8L129.8,63.8c1.6,1.2,5.2,3.1,7.4,3.6v-3.3c0-0.8,0.1-0.9,0.3-0.9s0.6,0.3,0.8,0.6
				c-0.1,0.2-0.1,0.5-0.1,1.2v3.6h-0.1c-2.1-0.2-7.1-2.8-7.8-3.4c-0.2-0.2-0.3-0.4-0.4-0.7S129.8,64,129.8,63.8z M131.9,76
				c1,0,1.6,0.7,2.2,1.7c0.6-1.1,1.3-1.4,2-1.4c1.2,0,2.2,0.9,2.2,2.4c0,1.3-0.8,2.3-2,2.3c-1,0-1.5-0.7-2-1.5
				c-0.6,1.1-1,1.8-2.2,1.8s-2.3-1.1-2.3-2.8C129.8,76.5,131.1,76,131.9,76z M127.8,40c1.1-0.7,2.1-1.2,3-1.8c0.4,0.4,1,1,1.4,1.7
				l3.6,6.1c-0.7,0.3-1.2,0.3-1.7,0.2c-0.3-0.2-0.6-0.8-1.3-1.8l-1.9-3.3l-5,3l3.3,5.6c-1.4,0.6-1.9,0.2-2.3-0.6l-2.4-4.1l-5.4,3.2
				c0.2,0.6,0.9,1.9,1.5,3s1.6,2.6,2.2,3.5v0.1c-0.8,0.2-1.6,0.1-2.1-0.3c-0.2-0.3-0.8-1.2-1.8-2.8c-1.2-2-2.1-3.7-2.3-4.4l0.3-0.6
				L127.8,40z M121.4,26.9c0.4,0.3,1.1,0.9,1.6,1.4c0.2,0.2,0.2,0.4-0.8,1.3l-10.3,9.7c0.2,0.5,1.1,1.5,1.9,2.4
				c0.9,0.9,2.1,2.2,2.9,2.9v0.1c-0.6,0.4-1.4,0.6-2.1,0.2c-0.3-0.2-0.9-0.8-2.3-2.3c-1.5-1.6-2.7-3.1-3.1-3.7l0.1-0.6l9.5-8.9
				C120.3,28.1,121.1,27.3,121.4,26.9z M109.8,18c0.4,0.2,1.3,0.6,1.9,1c0.3,0.2,0.2,0.4-0.5,1.5l-8,11.7c0.3,0.4,1.4,1.3,2.4,1.9
				c1,0.7,2.5,1.7,3.5,2.2v0.1c-0.5,0.5-1.3,0.9-2,0.7c-0.3-0.2-1.1-0.6-2.7-1.7c-1.8-1.3-3.3-2.4-3.8-2.9v-0.7l7.4-10.7
				C108.9,19.5,109.5,18.5,109.8,18z M101.8,14c0.4,0.1,1.6,0.5,2,0.7s0.3,0.4-0.2,1.5l-5.2,11.4c-0.8,1.7-1.1,2.6-1.3,3.1
				c-0.4,0-1.6-0.5-2-0.7c-0.3-0.1-0.4-0.3-0.2-0.7l5.5-12.1C101.2,15.5,101.6,14.5,101.8,14z M84.3,8.7c0.4,0.1,0.5,0.5,0.8,2.5
				c0.4,2.6,1.1,7.5,1.8,13c2.8-4.2,5.8-8.7,8.6-13.1c0.6,0.2,1.2,0.4,1.5,0.6c0.3,0.2,0.4,0.5,0,1.1c-3.1,4.7-6.3,9.1-9.4,13.6
				c-0.3,0.4-0.5,0.6-0.7,0.7c-0.3,0.1-1,0.1-1.7-0.1c-0.9-5.9-1.8-12.3-3-18.2C82.7,8.6,83.7,8.5,84.3,8.7z M73.3,7.9
				c1.3,0,2.9,0.4,3.6,1c0,0.5-0.3,1.3-1,1.3c-0.7-0.3-1.8-0.6-2.8-0.6c-1.5,0-2.9,0.8-2.9,2.6c0.1,1.6,1.1,2.3,3.6,3.6
				c3,1.5,4.1,2.6,4.2,5c0.1,3.1-2.5,5-5.6,5.2c-1.8,0.1-3.3-0.5-3.9-1c-0.3,0-0.5-0.3-0.5-0.6c0-0.5,0.2-1.1,0.4-1.3
				c1.1,0.7,2.7,1.2,4,1.2c2-0.1,3.3-1.1,3.2-2.8c-0.1-1.7-1.1-2.4-3.8-3.8c-3.3-1.7-3.8-3.3-3.9-4.9C67.9,11,69,8.1,73.3,7.9z
				 M62.2,9.4c0.4-0.1,0.5,0.1,0.7,1.3L65.4,23c0.4,1.9,0.6,2.8,0.8,3.3c-0.4,0.2-1.5,0.5-2,0.6c-0.3,0.1-0.5,0-0.5-0.4l-2.7-13
				c-0.4-1.8-0.6-2.9-0.8-3.4C60.5,9.9,61.7,9.5,62.2,9.4z M42.1,16.5c0.4-0.2,0.5-0.1,1.1,1.2l3.3,7.2c2.4,5.2,5.3,4.9,7.1,4.1
				c2.2-1,4.1-2.8,1.5-8.4l-3.4-7.5c-0.2-0.5-0.1-0.7,0.2-0.8c0.5-0.3,1.2-0.6,1.5-0.8c0.4,1,1.1,2.5,2,4.6l1.6,3.6
				c3.3,7.2-0.1,9.8-2.9,11.1c-3.8,1.7-7.2,1.1-9.9-4.8l-2.3-5.1c-0.8-1.7-1.3-2.7-1.5-3.2C40.7,17.3,41.7,16.6,42.1,16.5z
				 M27.3,27.3c3.8-3.8,9.1-3.3,12.5,0.2c3.4,3.4,4.4,8.7,0.2,12.8c-4.6,4.5-9.8,2.6-12.5-0.1C23.8,36.4,23.3,31.2,27.3,27.3z
				 M15.1,44c0.2-0.3,0.4-0.3,1.5,0.4l12.3,7c0.4-0.4,1.2-1.5,1.7-2.5c0.6-1.1,1.5-2.6,1.9-3.6h0.1c0.6,0.5,1,1.2,0.8,1.9
				c-0.1,0.3-0.5,1.1-1.5,2.8c-1.1,1.9-2.1,3.5-2.6,4l-0.7,0.1l-11.3-6.5c-1.6-0.9-2.6-1.5-3.1-1.7C14.4,45.5,14.8,44.6,15.1,44z
				 M20.1,68.6c-1.5-1.3-5.1-3.1-7.3-3.7v3.3c0,0.8-0.1,0.9-0.3,0.9s-0.6-0.3-0.8-0.6c0.1-0.2,0.1-0.5,0.1-1.2v-3.6h0.1
				c2.1,0.2,7.1,2.8,7.8,3.4c0.2,0.2,0.3,0.4,0.4,0.7C20.2,68.2,20.2,68.4,20.1,68.6L20.1,68.6z M20.2,75L20.2,75
				c-1.6-1.2-5.2-3.1-7.4-3.6v3.3c0,0.8-0.1,0.9-0.3,0.9s-0.6-0.3-0.8-0.6c0.1-0.2,0.1-0.5,0.1-1.2v-3.6h0.1
				c2.1,0.2,7.1,2.8,7.8,3.4c0.2,0.2,0.3,0.4,0.4,0.7C20.2,74.6,20.2,74.8,20.2,75z M13.7,57.8c1,0,1.5,0.7,2,1.5
				c0.6-1.1,1-1.8,2.2-1.8c1.2,0,2.3,1.1,2.3,2.8c0,2.1-1.3,2.6-2,2.6c-1,0-1.6-0.7-2.2-1.7c-0.6,1.1-1.3,1.4-2,1.4
				c-1.2,0-2.2-0.9-2.2-2.4C11.7,58.7,12.5,57.8,13.7,57.8z M11.8,78c0.9,0,6.8,0,7.9,0c0.3,0,0.3,0.1,0.4,0.3
				c0,0.3,0.1,0.7,0.1,0.9c-0.7,0-3.6,0-7.2,0c0.2,0.5,0.5,1.6,0.7,2.1l0,0L13,81c-0.4-1.2-0.9-2.4-1.1-2.9L11.8,78z M75,145.5
				c-32.7,0-60.1-22.2-68.1-52.4l22.5-6.6c-1-3.7-1.5-7.6-1.5-11.6c0-25.3,21.1-45.8,47.2-45.8s47.2,20.5,47.2,45.8
				c0,3.9-0.5,7.7-1.5,11.3l22.5,6.4C135.4,123.1,107.8,145.5,75,145.5z"/>
			<path class="st2" d="M131.9,80.2c0.7,0,1.1-0.5,1.7-1.8c-0.5-0.8-1-1.3-1.7-1.3c-0.9,0-1.4,0.8-1.4,1.6
				C130.6,79.5,131,80.2,131.9,80.2z"/>
			<path class="st2" d="M136.2,80c0.8,0,1.3-0.5,1.3-1.3c0-0.7-0.4-1.3-1.3-1.3c-0.7,0-1.1,0.5-1.7,1.5C135,79.5,135.6,80,136.2,80z
				"/>
			<path class="st2" d="M13.7,61.4c0.7,0,1.1-0.5,1.7-1.5c-0.4-0.6-1-1-1.6-1c-0.8,0-1.3,0.5-1.3,1.3C12.4,60.8,12.9,61.4,13.7,61.4
				z"/>
			<path class="st2" d="M18,61.7c0.9,0,1.4-0.8,1.4-1.6s-0.5-1.5-1.4-1.5c-0.7,0-1.1,0.5-1.7,1.8C16.8,61.2,17.3,61.7,18,61.7z"/>
		</g>
	</g>
</g>
<g id="Rotary" class="st0">
	<g class="st1">
		<path class="st2" d="M49,122.8c0.4-0.5,0.6-0.9,1-1.4c-1-0.6-1.9-1.2-2.8-1.7c0.4-0.5,0.7-1.1,1.1-1.5c1.4,0.7,2.6,1.4,4,2.1
			c0.4-0.6,0.6-1.1,0.8-1.5c-1.9-1.1-3.6-2.3-5.5-3.4c-1.8,2.6-3.6,5.3-5.4,8c2,1.3,4.1,2.5,6.1,3.8c0.4-0.5,0.6-1.1,0.9-1.6
			c-1.4-0.8-2.8-1.7-4.2-2.6c0.5-0.7,0.8-1.3,1.3-1.9C47.1,121.7,48.1,122.2,49,122.8z"/>
		<path class="st2" d="M37.4,106.2c-1.4,1.1-2.6,2.3-3.9,3.4c0.4-1.7,0.8-3.3,1.5-4.7c0.5-1.1,0.2-2-0.7-2.9
			c-2.6,1.8-5.4,3.6-8.1,5.4c0.5,0.6,0.8,1.1,1.3,1.7c1.5-1.1,2.9-2,4.6-3.2c-0.7,2-1.4,3.9-1.9,5.7c-0.1,0.3-0.2,0.7,0,0.9
			c0.3,0.5,0.7,0.9,1.1,1.4c2.6-2.2,5-4.3,7.5-6.4C38.2,107.1,37.8,106.7,37.4,106.2z"/>
		<path class="st2" d="M44.7,115.5c0.4-0.5,0.7-0.9,1.1-1.4c-2-1.7-4-3.5-6-5.2c-0.4,0.5-0.8,0.8-1.3,1.4c0.8,0.8,1.4,1.4,2.2,2.1
			c-1.7,1.9-3.3,3.8-5.1,5.7c0.6,0.5,1.1,0.9,1.7,1.4c1.7-2,3.4-4,5-5.9C43.1,114.3,43.9,114.9,44.7,115.5z"/>
		<path class="st2" d="M100.5,117.2c-2.7,0-4.8,2.1-4.8,4.8c0,2.7,2.3,4.9,4.9,4.8c2.6,0,4.8-2.3,4.8-4.9
			C105.3,119.3,103.2,117.2,100.5,117.2z M100.5,124.9c-1.6,0-2.9-1.4-2.9-2.9c0-1.6,1.4-2.9,2.9-2.9c1.7,0,3,1.4,2.9,3
			C103.5,123.6,102.1,124.9,100.5,124.9z"/>
		<path class="st2" d="M68.4,128.8c-0.8-1.5-1.6-3.1-2.2-4.7c-0.4-1.1-1.2-1.4-2.3-1.5c-0.1,0.3-0.2,0.6-0.2,0.8
			c-0.6,2.6-1.2,5.2-1.8,7.8c-0.1,0.5-0.2,0.8,0.4,0.9c1.4,0.3,1.5,0.3,1.7-0.5c0.4-1.5,0.7-3,1.1-4.8c0.8,1.8,1.6,3.3,2.1,4.9
			c0.4,1.1,1.1,1.4,2,1.5c0.5,0,0.8,0,0.8-0.6c0.2-2.4,0.5-4.7,0.8-7.1c0.1-0.6,0.2-1,0.2-1.6c-0.7,0-1.3,0-2,0
			C68.8,125.5,68.5,127.1,68.4,128.8z"/>
		<path class="st2" d="M33.3,100.5c-0.4-0.7-0.7-1.3-1.1-1.9c-2.8,1.6-5.5,3.2-8.3,4.8c0.2,0.5,0.5,0.8,0.7,1.3
			c0.2,0.6,0.5,0.6,1.1,0.3c1.9-1.1,3.9-2.3,5.8-3.4C32,101.2,32.6,100.9,33.3,100.5z"/>
		<path class="st2" d="M90.2,121.3c1.1,2.9,2,5.9,3,8.8c0.1,0.2,0.4,0.3,0.5,0.2c0.5-0.2,1.1-0.4,1.7-0.6c-1.1-3.1-2.1-6-3.2-9.1
			C91.6,120.8,91,121,90.2,121.3z"/>
		<path class="st2" d="M86.6,124.2c0.7-0.2,1.4-0.4,2-0.5c-0.2-0.6-0.3-1.1-0.5-1.7c-2.3,0.5-4.5,0.9-6.7,1.3
			c-1.2,0.2-1.3,0.4-1,1.6c0,0.2,0.1,0.2,0.2,0.4c1-0.2,1.9-0.2,2.9-0.4c0.5,2.6,0.9,5.1,1.4,7.7c0.8-0.2,1.4-0.4,2.2-0.5
			c-0.5-2.3-0.9-4.5-1.4-6.6C85.6,124.7,85.8,124.4,86.6,124.2z"/>
		<path class="st2" d="M76.1,123.6c-0.6,0-1.1,0-1.4,0.8c-0.8,2.7-1.7,5.4-2.6,8.1c-0.1,0.2-0.2,0.5-0.2,0.8c0.3,0,0.5,0,0.8,0.1
			c0.8,0.2,1.5,0,1.7-1.1c0-0.2,0.5-0.5,0.8-0.5c0.8-0.1,1.7,0,2.4-0.1c0.7-0.1,1,0.2,1.1,0.8c0.1,0.3,0.5,0.7,0.7,0.7
			c0.5,0.1,1-0.1,1.6-0.2c-1.2-3-2.4-5.8-3.6-8.7C77.2,123.5,76.7,123.6,76.1,123.6z M75.1,129.8c0.4-0.9,0.7-2.1,1.1-3.4
			c0.5,1.2,0.9,2.5,1.4,3.4C76.7,129.8,75.9,129.8,75.1,129.8z"/>
		<path class="st2" d="M59.5,121.4c-1.3-0.5-2.6-1.1-4-1.5c-0.2-0.1-0.6,0.2-0.7,0.3c-1.1,2.6-2.3,5.2-3.3,7.9
			c-0.1,0.2,0.2,0.5,0.2,0.7c0.1,0.2,0.4,0.2,0.5,0.2c0.7,0.4,1.1,0.2,1.4-0.5c0.3-0.9,0.7-1.8,1.1-2.6c1.7,0.4,1.7,0.5,1.8,2
			c0,0.8,0,1.5,0.1,2.3c0,0.2,0.2,0.6,0.4,0.7c0.5,0.2,1.1,0.4,1.8,0.6c-0.1-1.3-0.2-2.4-0.2-3.5c-0.1-0.6,0-1,0.7-1.3
			c1.2-0.5,1.7-1.7,1.7-2.9C60.9,122.6,60.5,121.8,59.5,121.4z M58.9,124c-0.2,0.5-0.6,1-1.3,0.8s-1.3-0.5-2-0.8
			c0.2-0.7,0.5-1.2,0.7-1.9c0.7,0.3,1.4,0.5,2,0.8C58.9,123,59.2,123.3,58.9,124z"/>
		<path class="st2" d="M61.2,74.8c0,7.6,6.1,13.8,13.6,13.8c7.3,0,13.5-6.1,13.6-13.5c0-7.6-6-13.8-13.5-13.8
			C67.5,61.4,61.3,67.5,61.2,74.8z M71,66.7c0.8-0.4,1.1-0.5,1.1-1.4c0-1.9,5.2-1.4,5.1-0.2c0,0.5,0.4,1.1,1.5,1.6
			c3.9,1.7,6,6,5.2,10.3c-0.8,4.1-4.5,7.1-8.7,7.3c-4.5,0.2-8.3-2.7-9.4-7C64.8,72.9,66.9,68.5,71,66.7z"/>
		<path class="st2" d="M52.3,26.7c0.5-2-1.7-4.5-3.6-3.9c-1.7,0.6-3.2,1.6-4.8,2.5c1.6,2.9,3.2,5.6,4.7,8.4c0.7-0.5,1.4-0.8,2-1.2
			c-0.6-1.1-1.2-2-1.7-2.9c1.4-0.9,1.4-1,2.6,0c0.5,0.4,0.9,0.8,1.4,1.1c0.2,0.2,0.5,0.2,0.8,0.2c0.5-0.2,1.1-0.5,1.7-0.8
			c-1.1-0.8-1.9-1.4-2.8-2C52.4,27.6,52.1,27.4,52.3,26.7z M49.6,27c-0.5,0.3-1.1,0.6-1.7,0.9c-0.4-0.7-0.7-1.2-1.1-1.9
			c0.7-0.4,1.4-0.8,2-1.1c0.5-0.2,0.9,0.2,1.1,0.6C50.2,26.1,50.3,26.6,49.6,27z"/>
		<path class="st2" d="M96.6,31.2c0.7,0.4,1.2,0.7,1.9,1.1c0.2-0.3,0.4-0.5,0.4-0.6c0.8-2.8,2.9-4.2,5.5-5.1
			c0.6-0.2,1.2-0.5,1.9-0.8c-1.1-0.8-2-1.5-3.3-0.7c-0.4,0.3-0.8,0.4-1.3,0.6c-0.4,0.2-0.8,0.3-1.2,0.5c-0.2-1.2-0.4-2.3-0.6-3.5
			c-0.1-0.2-0.2-0.5-0.4-0.7c-0.5-0.3-1.1-0.5-1.8-0.8c0,0.3,0,0.5,0,0.7c0.3,1.6,0.6,3.3,0.8,4.8c0.1,0.4,0,0.7-0.2,1.1
			C97.8,28.9,97.2,30,96.6,31.2z"/>
		<path class="st2" d="M87.2,27.7c0.8,0.2,0.9,0,1.1-0.7c0.2-0.8,0.5-1.6,0.7-2.4c1.7,0.4,1.7,0.4,1.9,1.9c0.1,0.4,0.1,0.8,0.2,1.2
			c0.2,1.2,0.9,1.7,2.3,1.7c-0.2-1.1-0.3-2-0.5-3.1c-0.1-0.6,0-1,0.6-1.4c1.7-1.1,1.9-4.5,0.2-5.2c-1.6-0.7-3.3-1.1-5-1.7
			c-0.2,0.4-0.2,0.7-0.4,0.9c-0.7,2.3-1.4,4.5-2,6.8C85.7,27.3,85.8,27.3,87.2,27.7z M90.1,20.5c0.8,0.2,1.5,0.4,2.2,0.7
			c0.5,0.2,0.5,0.7,0.4,1.1c-0.2,0.5-0.5,1.1-1.3,0.9c-0.6-0.2-1.2-0.4-1.9-0.6C89.6,22,89.8,21.3,90.1,20.5z"/>
		<path class="st2" d="M76.3,26.1c0.2,0,0.5-0.2,0.5-0.4c0.4-1.1,1.2-1.3,2.3-1.1c0.5,0.1,0.9,0.2,1.4,0.2c0.8,0,1.1,0.4,1.2,1.1
			c0.1,0.3,0.4,0.7,0.6,0.8c0.5,0.2,1.1,0.2,1.7,0.3c-0.1-0.4-0.2-0.7-0.2-0.8c-0.8-2.8-1.6-5.6-2.3-8.5c-0.3-1.1-1.1-0.7-1.8-0.9
			c-0.6-0.2-0.8,0.2-1,0.6C77.5,20,76.2,22.5,75,25c-0.2,0.4-0.3,0.7-0.5,1.2C75.3,26.1,75.8,26.1,76.3,26.1z M79.9,19.3
			c0.4,1.3,0.7,2.4,1.1,3.6c-0.9-0.1-1.7-0.2-2.6-0.3C78.9,21.5,79.4,20.5,79.9,19.3z"/>
		<path class="st2" d="M79.6,10.9c0-3.4-0.8-6.7-2.3-9.8c-0.2-0.5-0.5-0.8-1.1-0.8c-0.8,0.1-1.7,0-2.5,0c-0.5,0-0.8,0.2-1.1,0.7
			c-1.1,2-1.8,4.2-2.1,6.6C70.3,9,70.2,10.5,70,12c-1.9,0.2-3.9,0.5-5.7,0.8c-0.8,0.2-1.1,0-1.4-0.8c-1-3.4-2.6-6.5-5.1-9.1
			c-0.2-0.2-0.6-0.4-0.8-0.4c-1,0.2-1.9,0.5-2.8,0.8c-0.3,0.1-0.7,0.5-0.7,0.7C53.3,6,53,8.2,53,10.2c0,1.7,0.5,3.5,0.7,5.2
			c-2,0.8-4.2,1.7-6.3,2.7c-0.2-0.3-0.4-0.5-0.5-0.8c-1.4-2.3-3-4.3-5.1-6c-3.1-2.4-2-2.3-5.5-0.3c-0.5,0.2-0.6,0.6-0.5,1.1
			c0.2,1.1,0.2,2.2,0.5,3.3c0.5,2.6,1.6,5.1,2.9,7.5c-1.7,1.4-3.4,2.7-5.3,4.2c-0.2-0.2-0.4-0.5-0.6-0.8c-2.6-2.4-5.5-4.2-8.8-5.4
			c-0.5-0.2-0.8-0.2-1.2,0.2c-0.6,0.6-1.2,1.2-1.9,1.8c-0.4,0.4-0.5,0.8-0.2,1.3c0.5,1.1,0.8,2.4,1.5,3.5c1.4,2.1,2.8,4.1,4.3,6.2
			c-1.3,1.7-2.6,3.5-4.1,5.4c-0.2-0.1-0.3-0.2-0.4-0.2c-2.9-1.7-6-2.7-9.4-3.1c-1.2-0.2-2.1,0-2.6,1.3c-0.2,0.5-0.5,0.9-0.8,1.4
			c-0.4,0.5-0.3,1,0.1,1.5c2,2.9,4.5,5.3,7.5,7.1c0.7,0.4,0.7,0.7,0.4,1.4c-0.5,1.1-0.9,2.1-1.4,3.2c-0.3,0.7-0.5,1.4-0.8,2.2
			c-3.3-0.9-6.7-1.2-10.1-0.7c-2,0.3-2,0.3-2.6,2.3c0,0.5-0.1,0.9-0.2,1.4c-0.2,0.5,0,0.8,0.4,1.1c2.6,2.4,5.7,4.1,9.1,5
			c0.8,0.2,0.8,0.5,0.8,1.2c-0.2,1.6-0.5,3.2-0.6,4.8c-0.1,0.8-0.4,1.1-1.1,1.1C7.6,70.2,4.3,71,1.1,72.5c-0.5,0.2-0.7,0.5-0.7,1.1
			c0,0.8,0,1.7,0,2.6c0,0.5,0.2,0.8,0.7,1.1c2.1,1.1,4.4,1.8,6.8,2.2c1.4,0.2,2.8,0.3,4.2,0.5c0.3,2.3,0.6,4.5,0.9,6.7
			c-0.2,0.1-0.4,0.2-0.5,0.2c-2.7,0.8-5.4,1.9-7.6,3.7C2,92.9,2.4,92,3.3,95.5c0.2,0.7,0.5,0.9,1.2,1.1c3.7,0.8,7.3,0.5,11-0.5
			c0.8,1.9,1.7,3.7,2.5,5.5c0.2,0.5,0.2,0.8-0.3,1.1c-2.3,1.4-4.5,3-6.1,5.2c-2.4,3.1-2.3,2.1-0.3,5.5c0.2,0.3,0.7,0.5,1,0.5
			c2-0.3,4-0.5,5.9-1.1c1.7-0.5,3.3-1.4,5-2c1.4,1.7,2.7,3.6,4.1,5.4c-0.2,0.2-0.5,0.5-0.6,0.7c-2.4,2.6-4.2,5.4-5.4,8.8
			c-0.2,0.5-0.2,1,0.3,1.4c0.6,0.6,1.2,1.2,1.8,1.9c0.4,0.4,0.7,0.5,1.1,0.2c1.5-0.7,3.1-1.3,4.5-2.1c1.7-1.1,3.4-2.4,5.1-3.7
			c1.5,1.1,3.1,2.3,4.7,3.6c0.5,0.4,0.6,0.7,0.3,1.2c-1.6,2.8-2.5,5.8-2.9,9c-0.2,1.7-0.2,1.8,1.4,2.7c0.5,0.2,0.9,0.5,1.4,0.8
			c0.5,0.4,0.9,0.2,1.4-0.1c3-2,5.4-4.6,7.3-7.6c0.3-0.5,0.5-0.6,1.1-0.4c1.6,0.7,3.1,1.4,4.7,1.9c0.7,0.2,0.8,0.5,0.6,1.2
			c-0.7,2.8-1.1,5.7-0.5,8.6c0.5,3,0,2.3,2.8,3.3c0.2,0.1,0.5,0.2,0.8,0.2c0.5,0.2,1,0,1.4-0.5c2.1-2.4,3.6-5.1,4.6-8.2
			c0.2-0.6,0.4-1.1,0.5-1.7c2,0.2,4,0.5,6,0.8c0.7,0.1,0.9,0.4,0.9,1.1c0.1,3.5,0.8,6.8,2.4,10c0.2,0.5,0.5,0.8,1.1,0.8
			c0.8-0.1,1.7-0.1,2.4,0c0.6,0,0.9-0.2,1.1-0.8c1.2-2.3,1.9-4.8,2.3-7.5c0.2-1.1,0.2-2.3,0.2-3.4c2-0.3,4.1-0.6,6.1-0.8
			c0.2,0,0.5,0.3,0.6,0.5c0.8,2.6,1.8,5.1,3.5,7.3c2.4,3.2,1.5,2.8,5.3,1.7h0.1c0.2-0.2,0.6-0.5,0.7-0.8c0.6-2.4,0.7-4.9,0.4-7.3
			c-0.2-1.4-0.5-2.7-0.7-4.1c1.9-0.8,3.9-1.7,5.8-2.6c0.2-0.1,0.6,0.2,0.8,0.5c1.4,2.3,3.1,4.4,5.2,6c3.2,2.4,2.1,2.3,5.5,0.4
			c0.5-0.3,0.7-0.6,0.6-1.2c-0.4-1.8-0.5-3.7-1.1-5.5c-0.5-1.8-1.4-3.6-2.1-5.4c1.7-1.3,3.4-2.6,5.1-4c0.2,0.2,0.4,0.4,0.5,0.5
			c2.6,2.4,5.5,4.3,9,5.5c0.5,0.2,0.8,0.2,1.2-0.2c0.5-0.5,1.1-1.1,1.7-1.7c0.6-0.5,0.6-1.1,0.4-1.7c-1.1-3-2.6-5.7-4.8-8
			c-0.4-0.4-0.8-0.8-1.1-1.2c1.4-1.9,2.8-3.6,4.2-5.4c0.2,0.1,0.4,0.2,0.5,0.2c2.7,1.5,5.6,2.5,8.6,2.9c2.3,0.4,2.4,0.3,3.5-1.7
			c0.2-0.3,0.3-0.5,0.5-0.8c0.4-0.5,0.3-1.1-0.1-1.6c-2-2.9-4.5-5.2-7.4-7.1c-0.2-0.2-0.5-0.6-0.5-0.8c0.8-1.9,1.6-3.8,2.4-5.7
			c0.2,0,0.5,0.1,0.7,0.2c2.9,0.8,5.9,1.1,8.8,0.6c2.9-0.5,2.3,0,3.1-2.6c0.1-0.3,0.2-0.5,0.2-0.8c0.2-0.5,0-0.9-0.4-1.4
			c-2.1-1.9-4.5-3.3-7.2-4.3c-0.9-0.4-1.8-0.6-2.6-0.9c0.2-1.9,0.5-3.8,0.7-5.7c0.1-0.8,0.3-1,1.1-1c3.5,0,6.7-0.8,9.8-2.3
			c0.7-0.3,1.1-0.7,1-1.4c-0.1-0.8,0-1.6-0.1-2.3c0-0.4-0.3-0.8-0.6-1c-1.4-0.6-2.9-1.4-4.5-1.7c-2.1-0.5-4.3-0.8-6.6-1.1
			c0-0.2-0.1-0.5-0.2-0.9c-0.2-1.6-0.4-3.1-0.7-4.7c-0.2-0.7,0.1-1,0.8-1.2c2.6-0.7,5.1-1.8,7.3-3.5c3-2.3,2.6-1.4,1.7-5.1
			c-0.2-0.6-0.5-0.8-1.1-1c-2.5-0.5-5-0.6-7.4-0.2c-1.2,0.2-2.4,0.5-3.7,0.7c-0.8-1.8-1.4-3.6-2.3-5.3c-0.3-0.7-0.2-0.9,0.4-1.3
			c2.9-1.7,5.4-4.1,7.4-7c0.5-0.7,0.5-1.1,0.1-1.7c-1.8-3.1-1-2.7-4.8-2.3c-2.7,0.4-5.3,1.4-7.6,2.7c-0.5,0.3-0.8,0.2-1.1-0.2
			c-0.5-0.7-1-1.4-1.5-2c-0.7-0.9-1.4-1.9-2.2-2.8c0.2-0.2,0.5-0.5,0.6-0.7c2.1-2.2,3.7-4.8,5-7.6c0.6-1.4,0.7-2.6-0.7-3.5
			c-0.4-0.2-0.6-0.5-0.9-0.8c-0.4-0.5-0.8-0.5-1.3-0.3c-2.4,0.8-4.7,2-6.7,3.6c-1,0.8-1.9,1.6-2.8,2.3c-1.8-1.4-3.6-2.8-5.4-4.2
			c1.7-2.9,2.8-5.9,3.3-9.1c0.3-2.2,0.4-2.3-1.6-3.3c-0.4-0.2-0.8-0.5-1.2-0.6c-0.4-0.1-0.8-0.2-1.1,0.1c-1.3,1-2.7,2-3.8,3.2
			c-1.4,1.6-2.6,3.3-4,5c-1.9-0.8-3.9-1.6-5.9-2.4c-0.5-0.2-0.4-0.5-0.3-0.8c0.8-3,1-6.1,0.6-9.3c-0.2-1.6-0.8-2.3-2.3-2.6
			c-2-0.4-2-0.5-3.3,1.1c-1.9,2.4-3.3,5.1-4.2,8.2c-0.2,0.6-0.4,1-1.1,0.7c-0.2-0.1-0.3,0-0.4-0.1c-1.9-0.2-3.7-0.5-5.7-0.8
			C79.6,11.7,79.6,11.3,79.6,10.9z M16.4,88c-0.9-4.3-1.4-8.8-1.4-13.2c0.2-15,5-28.4,15.2-39.6c0.4-0.4,0.8-0.8,1.2-1
			c0.7-0.4,1.4-0.3,1.9,0.3c2.1,2.1,4.3,4.2,6.3,6.4c1.1,1.1,0.9,2.1-0.1,3.3c-5.1,5.7-8.7,12.1-10.5,19.6
			c-1.6,6.9-1.5,13.8-0.2,20.6c0.3,1.6-0.2,2.4-1.7,2.9c-2.7,0.8-5.4,1.6-8.1,2.3C17.5,90.1,16.8,89.6,16.4,88z M92.9,77.1
			c-1.8-1.3-1.7-3.3,0.2-4.5c5.5-3.8,11.1-7.6,16.7-11.3c0.9-0.6,1.8-1.3,2.7-1.8c1.8-1.1,2.9-0.7,3.6,1.4c1.4,4.6,2.2,9.4,2.2,14
			c0,5.1-0.8,9.8-2.2,14.4c-0.6,2-1.7,2.5-3.5,1.3C106,86,99.5,81.6,92.9,77.1z M107.6,103.6c-6.7,7.1-14.9,11.8-24.4,14
			c-0.1,0-0.2,0-0.2,0c-1.9,0.3-2.7-0.4-2.6-2.2c0.2-3.5,0.5-6.8,0.7-10.2c0.2-3.6,0.5-7.1,0.8-10.7c0.1-1,0.2-2,0.2-2.9
			c0.2-2.3,2-3.3,4.2-2.2c4.8,2.3,9.6,4.7,14.4,7c2,1,4.2,2,6.2,2.9C109,100.4,109.3,101.7,107.6,103.6z M107.2,50.1
			c-7,3.4-14.1,6.8-21.1,10.2c-2.2,1.1-3.9,0-4-2.4c-0.4-5.8-0.8-11.6-1.3-17.4c-0.2-1.9-0.2-3.9-0.4-5.6c0-2.6,0.8-3.3,3.1-2.6
			c9.6,2.3,17.7,7,24.4,14.2C109.3,48,109,49.2,107.2,50.1z M89.8,75c0,8.2-6.7,15-14.9,15s-14.8-6.7-15-14.7
			c-0.2-7.8,6-15.1,14.9-15.3C83,59.9,89.8,66.7,89.8,75z M70,115.3c0,0.2,0,0.4,0,0.5c0,1.8-0.9,2.5-2.6,2.1
			c-1.4-0.4-2.9-0.8-4.4-1.2c-8.1-2.5-14.8-7-20.6-13.2c-1.4-1.5-1.2-2.7,0.7-3.6c6.3-3.1,12.6-6.2,19-9.2c0.8-0.4,1.4-0.7,2.2-1.1
			c2-1,3.9,0,4,2.3c0.3,4.1,0.6,8.2,0.8,12.2c0.2,3.5,0.5,6.9,0.8,10.4C69.9,114.8,70,115.1,70,115.3z M69.5,35.7
			c-0.5,6.6-1,13.2-1.4,19.9c-0.1,1-0.2,2-0.3,3c-0.3,2-2,2.9-3.9,2c-1.7-0.8-3.5-1.7-5.1-2.5c-5.2-2.5-10.4-5-15.6-7.6
			c-0.2-0.1-0.2-0.2-0.4-0.2c-2-1.1-2.3-2.3-0.7-3.9c6.7-7.3,14.8-12,24.4-14.1c0.4-0.1,0.7-0.2,1.1-0.2c1.1-0.1,1.7,0.5,1.9,1.5
			C69.6,34.4,69.5,35.1,69.5,35.7z M56.8,72.8c1.9,1.3,1.9,3.3,0,4.6c-6.4,4.3-12.8,8.7-19.2,13c-0.2,0.2-0.5,0.3-0.7,0.4
			c-1.5,0.8-2.6,0.5-3-1.2c-1.4-4.7-2.3-9.5-2.3-14.5c0-4.9,0.8-9.7,2.3-14.4c0.5-1.9,1.7-2.3,3.4-1.2
			C43.8,63.9,50.3,68.3,56.8,72.8z M130.4,97.3c-2.9,7.1-7,13.5-12.3,19c-8.2,8.5-17.8,14.1-29.3,16.9c-4.6,1.1-9.3,1.7-14.1,1.7
			c-24.4,0-46.3-14.7-55.4-37.4c-0.1-0.2-0.2-0.5-0.3-0.7c-0.4-1.1,0-1.9,1.1-2.3c2.9-1.1,5.7-2,8.7-2.9c1.1-0.4,2,0,2.4,1.1
			c4.3,10.6,11.6,18.5,21.5,23.9c5.5,2.9,11.4,4.8,17.6,5.3c14.7,1.2,27.3-3.5,37.8-13.8c4.3-4.2,7.6-9.3,10-14.9
			c0.8-1.7,1.5-2,3.3-1.4c2.5,0.8,5,1.7,7.6,2.6C130.9,95,131.2,95.7,130.4,97.3z M116.7,34.3c0.7-0.7,1.7-0.7,2.4,0.2
			c1.6,1.8,3.3,3.6,4.7,5.5c5.9,8.1,9.4,17.2,10.6,27c0.3,2.6,0.5,5.2,0.7,7.8c-0.1,4.4-0.6,8.8-1.5,13c-0.4,1.7-1.1,2.1-2.8,1.7
			c-2.6-0.8-5.3-1.6-7.9-2.3c-1.7-0.5-2-1.2-1.8-2.9c0.4-2.8,0.8-5.5,0.9-8.3c0.5-12.1-3.3-22.6-11.3-31.7c-0.4-0.4-0.8-0.7-0.9-1.2
			c-0.4-0.9-0.2-1.7,0.5-2.4C112.4,38.7,114.6,36.5,116.7,34.3z M112.1,28c1.6,1.2,1.6,2,0.4,3.5c-1.8,2-3.6,4-5.5,6
			c-1.1,1.2-1.7,1.2-3.1,0.4c-1.9-1.3-3.6-2.6-5.6-3.8c-7.9-4.6-16.6-6.7-25.8-6.2c-9.5,0.5-18.2,3.6-25.8,9.4
			c-0.3,0.2-0.6,0.5-0.8,0.7c-1.2,0.8-1.8,0.7-2.8-0.4c-1.9-2-3.7-4.2-5.6-6.2c-1.2-1.4-1.2-2.3,0.3-3.5c3-2.4,6.2-4.5,9.6-6.2
			c6.1-3.2,12.6-5.3,19.4-6.2c2.7-0.4,5.5-0.5,7-0.6C88.8,15,101.1,19.5,112.1,28z"/>
		<path class="st2" d="M65.4,17.2c0.2,0.7,0.2,1.2,0.3,1.9c1-0.2,1.9-0.2,2.9-0.4c0.3,2.6,0.5,5.1,0.8,7.7c0.8-0.1,1.4-0.2,2.2-0.2
			c-0.2-2.6-0.5-5.1-0.8-7.6c0.6-0.1,1.1-0.2,1.7-0.2c1.5-0.2,1.5-0.2,1.2-1.6c0-0.1-0.1-0.2-0.2-0.5C70.9,16.6,68.2,16.9,65.4,17.2
			z"/>
		<path class="st2" d="M59.8,18.6c-2.6,0-4.8,2.2-4.8,4.8c0,2.7,2.2,4.9,4.8,4.9s4.8-2.2,4.8-4.8C64.7,20.8,62.5,18.6,59.8,18.6z
			 M59.9,26.4c-1.7,0-3-1.3-3-2.9c0-1.7,1.3-2.9,2.9-2.9c1.7,0,2.9,1.2,2.9,2.9C62.8,25,61.6,26.3,59.9,26.4z"/>
		<path class="st2" d="M113.3,105c-1.1,0.8-1.2,1.5-0.5,2.7c0,0.1,0.1,0.1,0.1,0.2c1.4,2.4,2.9,4.8,4.4,7.3c1.5-1.2,1.4-1.2,0.8-2.6
			c-0.1-0.2,0-0.5,0.1-0.7c0.5-0.7,1.1-1.4,1.6-2c0.4-0.6,0.8-0.8,1.4-0.4c0.2,0.2,0.7,0.2,0.8,0c0.4-0.4,0.7-0.8,1.1-1.4
			c-3.2-1.1-6.2-2-9.3-3.1C113.7,104.8,113.4,104.8,113.3,105z M118.3,108.4c-0.5,0.7-1.1,1.3-1.6,2c-0.7-1.1-1.2-2-1.9-3.2
			C116.1,107.6,117.1,108,118.3,108.4z"/>
		<path class="st2" d="M108.1,110.7c1.2,1.4,2.4,2.6,3.8,4c-1.9-0.5-3.6-1-5.2-1.6c-1.1-0.5-1.9,0.1-2.6,0.8
			c1.6,2.2,3.2,4.3,4.8,6.4c1.1,1.5,1.1,1.5,2.5,0.2c0.1-0.1,0.1-0.2,0.2-0.2c-0.5-0.7-1.1-1.4-1.6-2c-0.5-0.7-1.1-1.4-1.6-2
			c1.7,0.4,3.4,0.8,5.1,1.4c1.4,0.4,2,0.1,2.8-1.2c-2.2-2.3-4.4-4.7-6.7-7.1C108.9,109.8,108.5,110.3,108.1,110.7z"/>
		<path class="st2" d="M123.9,103.3c-2.3-1.3-4.6-2.6-7-3.8c-0.4,0.6-0.7,1.1-1,1.7c2.9,1.6,5.7,3.1,8.5,4.7c1.1-2,2.2-3.9,3.3-5.9
			c-0.6-0.3-1.1-0.6-1.6-0.8C125.4,100.6,124.7,101.9,123.9,103.3z"/>
	</g>
</g>
<g id="Rotaractgen" class="st0">
	<g>
		<path class="st2" d="M78.3-0.1c1.5,0.2,3,0.2,4.6,0.5c12.7,1.4,24.4,5.6,34.9,13c16.2,11.4,26.5,26.9,30.7,46.3
			c1.9,8.8,2.1,17.7,0.7,26.7c-2.4,15.4-9,28.8-19.7,40.1c-11.3,11.9-25,19.6-41.2,22.3c-24.7,4.2-46.5-2.4-64.9-19.4
			c-11.9-11-19.3-24.7-22.2-40.7c-0.6-3.2-0.8-6.5-1.1-9.7c0-0.2-0.1-0.4-0.1-0.6c0-2.3,0-4.6,0-6.9c0-0.2,0-0.4,0-0.7
			c0.2-3.7,0.6-7.5,1.4-11.1C5.7,40.3,15.9,24.9,32,13.5C42.5,6,54.1,1.8,66.9,0.4c1.5-0.2,3-0.3,4.6-0.5
			C73.8-0.1,76.1-0.1,78.3-0.1z M144.8,75c0.2-38.1-31.2-70-70-69.9C35.6,5.3,5.8,37,5,73.4c-0.8,39.5,31,70.8,68.3,71.5
			C113,145.7,145,113.4,144.8,75z"/>
		<path class="st2" d="M74.9,121.5c-25.6-0.1-46.4-20.8-46.3-46.4c0-25.6,20.9-46.7,47.1-46.3c25.2,0.4,45.7,20.8,45.7,46.3
			C121.3,100.7,100.5,121.4,74.9,121.5z M69.5,60c4.3,0,8.6,0,13,0c-0.6-3-1.1-5.9-1.8-8.7c-0.1-0.2-0.3-0.5-0.5-0.6
			c-1.4-0.9-3-1.3-4.6-1.4c-1.8,0-3.5,0-5.3,0c-0.2,0-0.5,0-0.8,0.1C69.5,53,69.5,56.4,69.5,60z M54.2,88.3
			c-1.1-4.1-1.6-8.3-1.8-12.4c-3.3,0-6.6,0-9.9,0c0.1,0.7,0.1,1.3,0.2,1.9c0.2,3.3,0.8,6.6,1.7,9.8c0.2,0.5,0.5,0.7,1,0.7
			c2.5,0,5,0,7.6,0C53.3,88.3,53.8,88.3,54.2,88.3z M54.2,61.6c-0.4,0-0.6,0-0.8,0c-2.7,0-5.3,0-7.9,0c-0.6,0-0.9,0.2-1.1,0.8
			c-0.8,2.9-1.4,5.8-1.6,8.8c-0.1,1,0,1.9,0,2.9c3.2,0,6.5,0,9.7,0C52.6,69.9,53.1,65.8,54.2,61.6z M95.7,88.3c0,0,0.2,0,0.3,0
			c2.8,0,5.6,0,8.4,0c0.5,0,0.7-0.2,0.8-0.6c0.5-2.7,1.1-5.3,1.6-7.9c0.2-1.3,0.2-2.6,0.2-4c-3.3,0-6.6,0-9.6,0
			C96.8,80.1,96.2,84.1,95.7,88.3z M107,74.1c-0.2-1.7-0.2-3.3-0.5-4.9c-0.5-2.4-1-4.8-1.5-7.2c-0.1-0.2-0.3-0.4-0.5-0.4
			c-3,0-5.9,0-8.8,0c0.5,4.2,1.1,8.3,1.7,12.5C100.4,74.1,103.6,74.1,107,74.1z M79.9,88.3c-0.1-1.8-0.2-3.4-0.3-5.1
			c-0.2-1.2-0.5-2.4-0.8-3.7c-0.5-1.4-1.4-2.5-3-3c-2.1-0.6-4.2-0.2-6.3-0.4c0,4.1,0,8.1,0,12C73,88.3,76.4,88.3,79.9,88.3z
			 M69.5,71c0.2,0,0.5,0.1,0.7,0.1c1.6,0,3.3-0.1,4.9-0.1c2.3-0.1,4.3-0.8,6-2.5c1.2-1.2,2.4-2.4,1.8-4.4c-0.2-0.5-0.2-1.1-0.2-1.7
			c0-0.6-0.2-0.8-0.8-0.8c-3.9,0-7.8,0-11.7,0c-0.2,0-0.5,0-0.7,0.1C69.5,64.8,69.5,67.9,69.5,71z M74.8,99c0,1.1,0,2.2,0,3.3
			c1.8,0,3.3,0,5,0c0.3-1.1,0.6-2.2,0.9-3.3c0.1-0.2,0.1-0.4,0-0.5c-0.6-2.1-0.8-4.1-0.7-6.2c0-0.8,0-1.6,0-2.4c-3.6,0-7,0-10.5,0
			c0,1.8,0,3.7,0,5.4c0,0.7,0.1,1.3,0.2,2c0.2,1,0.6,1.3,1.7,1.4C72.5,98.9,73.5,98.9,74.8,99z M106.6,88.3c2.3,0,4.5,0,6.6,0
			c0.5,0,0.8-0.2,0.9-0.7c0.5-2.7,1.2-5.3,1.7-7.9c0.2-1.2,0.2-2.5,0.2-3.8c-2.6,0-5,0-7.6,0C108.5,80.1,107.9,84.2,106.6,88.3z
			 M52.2,48.4c-0.1,0-0.1-0.1-0.2-0.1c-3,3.5-5.3,7.4-6.9,11.7c3.1,0,6.1,0,9.1,0c0.2,0,0.5-0.3,0.5-0.5c1.1-2.5,2.1-5.1,3.1-7.7
			c0.1-0.2,0.1-0.7-0.1-0.9c-0.6-1-1.5-1.5-2.7-1.5c-1,0-1.9,0-2.8,0C52.3,48.9,52.3,48.6,52.2,48.4z M116,74.1
			c0-0.2,0.1-0.2,0.1-0.4c-0.1-4-0.8-7.8-2.1-11.6c-0.2-0.5-0.4-0.5-0.8-0.5c-1.8,0-3.6,0-5.4,0c-0.4,0-0.8,0-1.3,0
			c1.2,4.1,1.8,8.2,1.9,12.5C111.1,74.1,113.5,74.1,116,74.1z M43,88.3c-1.3-4.1-1.9-8.2-1.9-12.5c-2.5,0-4.9,0-7.4,0
			c0.1,1.1,0.1,2.3,0.2,3.4c0.3,3,0.9,5.9,1.8,8.6c0.1,0.2,0.3,0.5,0.5,0.5C38.4,88.3,40.7,88.3,43,88.3z M41,74.1
			c0-4.3,0.7-8.4,1.9-12.5c-2.2,0-4.3,0-6.3,0c-0.6,0-0.8,0.2-0.9,0.7c-0.5,2.4-1.1,4.6-1.6,7c-0.3,1.5-0.3,3.2-0.5,4.8
			C36.2,74.1,38.5,74.1,41,74.1z M95.8,60c2.9,0,5.7,0,8.5,0c-0.1-0.2-0.1-0.3-0.1-0.5c-1.7-4.3-4-8.2-7.1-11.6
			c-0.2-0.2-0.5-0.3-0.8-0.3c-1.9,0-3.8,0-5.7,0c-0.2,0-0.4,0.1-0.6,0.1C93.9,50.8,95.8,54.9,95.8,60z M99,47.6
			c0.9,1.3,1.8,2.4,2.6,3.6c1.8,2.6,3.2,5.3,4.3,8.3c0.1,0.2,0.4,0.6,0.6,0.6c2.2,0.1,4.5,0,6.8,0c-0.1-0.2-0.1-0.3-0.1-0.5
			c-1.8-4.3-4.2-8.3-7.3-11.8c-0.2-0.2-0.4-0.3-0.6-0.3C103.2,47.6,101.2,47.6,99,47.6z M100.1,102.4c1.8,0,3.6,0,5.3,0
			c0.2,0,0.5-0.2,0.6-0.4c2.9-3.3,5.2-7,6.8-11c0.2-0.3,0.2-0.7,0.4-1.1c-2.4,0-4.6,0-6.8,0c-0.2,0-0.5,0.3-0.6,0.6
			c-1,2.6-2.2,5.2-3.7,7.5C101.2,99.3,100.9,100.9,100.1,102.4z M36.6,89.9c0.1,0.2,0.1,0.4,0.1,0.5c1.8,4.3,4.1,8.2,7.2,11.6
			c0.2,0.2,0.5,0.3,0.8,0.3c1.4,0.1,2.7,0,4.1,0c0.6,0,1.1,0,1.8,0c-0.1-0.2-0.1-0.2-0.1-0.2c-2.9-3.6-5.3-7.5-6.8-11.9
			c-0.1-0.2-0.3-0.4-0.5-0.4C41,89.9,38.8,89.9,36.6,89.9z M51.8,99.2c1.3,0,2.6,0.1,3.7,0c0.7-0.1,1.3-0.2,2-0.5
			c0.5-0.2,0.6-0.5,0.3-1.1c-1-2.4-2-4.8-2.9-7.2c-0.2-0.5-0.4-0.6-0.9-0.6c-2.7,0-5.3,0-8.1,0c-0.2,0-0.5,0-0.8,0.1
			c1.5,4.1,3.7,7.8,6.5,11.3C51.8,100.5,51.8,99.9,51.8,99.2z M36.5,60c0.4,0,0.6,0.1,0.8,0.1c1.8,0,3.7,0,5.6,0
			c0.5,0,0.8-0.2,1-0.7c1.5-4.1,3.7-7.9,6.5-11.3c0.1-0.2,0.2-0.3,0.3-0.5c-2.1,0-4,0-5.9,0c-0.2,0-0.5,0.2-0.8,0.4
			c-2.2,2.5-4.1,5.2-5.6,8.1C37.7,57.3,37.1,58.6,36.5,60z M95.8,97.7c1.4,0,2.7,0,4.1,0c0.5,0,0.7-0.2,0.9-0.5
			c0.6-1.1,1.3-2.1,1.8-3.3c0.7-1.3,1.2-2.7,1.8-4c-3.3,0-6.4,0-9.4,0c-1.1,2.5-2.1,5-3.1,7.5c-0.5,1,0.4,2.4,1.4,2.4
			C94.8,100,95.4,99.4,95.8,97.7z M86,75.8c0.1,0.2,0.1,0.2,0.1,0.2c0.2,0.2,0.2,0.2,0.4,0.4c2.8,2.5,4.3,5.6,4.2,9.4
			c0,0.8,0.1,1.6,0.1,2.4c0.7,0,1.3-0.1,1.9,0c0.8,0.1,1.1-0.2,1.2-1c0.5-2.6,0.9-5.2,1.3-7.8c0.2-1.2,0.2-2.4,0.2-3.7
			C92.3,75.8,89.1,75.8,86,75.8z M103.9,104.3c0-0.1-0.1-0.2-0.1-0.2c-1.3,0-2.7,0-4,0c-0.6,0-1.1,0.2-1.6,0.5
			c-0.6,0.5-1.4,0.8-2.2,1.2c-0.3,0.2-0.6,0.3-0.8,0.5c-4.2,3.9-8.8,6.9-14.2,9.1c-0.2,0.1-0.4,0.2-0.5,0.3
			C89.7,114.5,97.4,110.6,103.9,104.3z M45.8,104.1c3.1,4.7,18.6,12.5,23,11.6c-0.5-0.2-0.8-0.4-1.2-0.5c-5.3-2.4-9.9-5.5-14-9.5
			c-0.5-0.5-1-1-1.8-0.8c-0.1-0.3-0.1-0.5-0.1-0.8C49.8,104.1,47.9,104.1,45.8,104.1z M103.8,45.9c0-0.1,0.1-0.2,0.1-0.2
			c-6.3-6.2-13.8-10-22.6-11.3c0.2,0.2,0.3,0.3,0.5,0.4c5.9,2.5,11,6.2,15.5,10.8c0.2,0.2,0.4,0.3,0.5,0.3
			C99.7,45.9,101.7,45.9,103.8,45.9z M46,45.7c0,0.1,0.1,0.2,0.1,0.2c1.6,0,3.2,0,4.8,0c1.4,0,1.4,0,1.5-1.4c0-0.1,0.1-0.2,0-0.1
			c0.8-0.2,1.5-0.3,2-0.8c3.8-3.5,8-6.4,12.7-8.5c0.5-0.2,0.9-0.5,1.4-0.7C59.7,35.8,52.2,39.6,46,45.7z M95,45.9
			c0-0.1,0.1-0.2,0.1-0.2c-4.7-4.6-10-8.2-16.4-10.3c0,0.2,0.1,0.3,0.2,0.4c3.4,2.9,6.4,6.2,9,9.9c0.1,0.2,0.4,0.3,0.6,0.3
			C90.7,45.9,92.8,45.9,95,45.9z M74.8,104.8c-1.4,0-2.8,0-4.2,0c1.1,3.4,2.4,6.8,4.3,10c1.9-3.5,3.3-7,4.5-10.7c-1.4,0-2.6,0-3.8,0
			C75,104,74.7,104.2,74.8,104.8z M58.6,74.1c0-4.2,0-8.3,0-12.5c-0.7,0-1.3,0.1-1.8,0c-0.7-0.1-0.9,0.2-1.1,0.8
			c-0.5,2.6-0.9,5.2-1.3,7.8c-0.2,1.3-0.2,2.6-0.2,3.9C55.7,74.1,57.1,74.1,58.6,74.1z M58.6,88.2c0-4.2,0-8.3,0-12.3
			c-1.5,0-3,0-4.5,0c0.1,3.4,0.5,6.8,1.2,10C55.9,88.4,55.9,88.4,58.6,88.2C58.6,88.3,58.6,88.3,58.6,88.2z M71,114.6
			c-0.1-0.1-0.2-0.2-0.3-0.3c-3.2-2.7-5.9-5.8-8.4-9.1c-0.2-0.2-0.5-0.4-0.8-0.4c-2,0-3.9,0-5.9,0c-0.2,0-0.3,0.1-0.6,0.1
			C59.8,109.3,65,112.6,71,114.6z M71,35.4c0-0.1,0-0.1,0-0.2c-5.5,1.9-10.3,4.9-14.8,8.8c0.2,0.1,0.4,0.1,0.5,0.1
			c1.9,0,3.9,0,5.8,0c0.2,0,0.6-0.2,0.8-0.5c1.8-2,3.7-4,5.5-6C69.4,36.8,70.3,36.1,71,35.4z M95.6,74.1c-0.2-2.7-0.5-5.5-0.8-8.1
			c-0.1,0-0.2,0-0.2,0c-0.4,0.7-0.8,1.4-1.2,2c-1.8,2.6-4.5,4-7.5,4.8c-1,0.2-1.1,0.4-0.8,1.3C88.5,74.1,92,74.1,95.6,74.1z
			 M78.9,44.1c-1.3-3-2.6-5.9-3.9-8.8c-0.1,0-0.2,0.1-0.2,0.1c-1.6,2.7-2.8,5.7-3.8,8.8C73.5,44.1,76.1,44.1,78.9,44.1z M92.4,106.8
			c-1.7-0.2-3.3-0.5-4.9-0.8c-0.5-0.1-0.8,0-1.1,0.3c-1.8,2-3.6,4-5.3,5.9c-0.8,0.8-1.7,1.5-2.4,2.3c0.1,0.1,0.1,0.1,0.1,0.2
			C83.8,112.9,88.4,110.2,92.4,106.8z M85.4,105c-0.6-0.6-1.3-1.1-2.2-1c-0.5,0.1-1.1,0.1-1.6,0s-0.6,0.2-0.8,0.6
			c-1,2.5-2,5.1-2.9,7.6c-0.1,0.2-0.2,0.5-0.2,0.6c0.1,0.1,0.1,0.1,0.2,0.1C80.7,110.6,83.1,108,85.4,105z M64,104.8
			c2.4,3.1,4.9,5.9,7.8,8.3c-1.1-2.7-2-5.3-3-7.9c-0.1-0.2-0.4-0.4-0.5-0.4C67,104.8,65.6,104.8,64,104.8z M85.3,44.9
			c-2.2-2.9-4.7-5.6-7.6-8c0,0.2,0,0.4,0,0.5c0.8,2.1,1.8,4.3,2.6,6.4c0.1,0.2,0.4,0.4,0.6,0.5C82.4,44.4,83.8,44.7,85.3,44.9z
			 M64.9,44.1c1.4,0,2.7,0,3.9,0c0.2,0,0.5-0.2,0.5-0.5c0.8-2.1,1.7-4.1,2.5-6.2c0.1-0.2,0.1-0.2,0.2-0.4C69.3,39,67,41.4,64.9,44.1
			z M91,89.9c0,1.8,0,3.6,0,5.3c0.1,0,0.2,0,0.3,0.1c0.7-1.8,1.3-3.5,2.1-5.3C92.4,89.9,91.7,89.9,91,89.9z M58.6,89.9
			c-0.8,0-1.4,0-2.3,0c0.7,1.8,1.4,3.6,2.1,5.4c0.1,0,0.2-0.1,0.2-0.1C58.6,93.5,58.6,91.8,58.6,89.9z M56.3,60c0.8,0,1.5,0,2.2,0
			c0-1.8,0-3.5,0-5.2c-0.1,0-0.2,0-0.2-0.1C57.7,56.5,57,58.2,56.3,60z M84,59.9c0.1,0,0.2,0,0.2-0.1c-0.1-1.8-0.2-3.5-1.1-5.1
			C83.5,56.5,83.8,58.2,84,59.9z M81.8,101.2c-0.1,0.5-0.2,0.8-0.2,1.1c0.4,0,0.6,0,1,0C82.4,102,82.1,101.7,81.8,101.2z"/>
		<g>
			<path class="st2" d="M53.5,128.7c-1.9-1.1-3.7-2.1-5.6-3c0.1-0.7,0.3-1.3,0.2-1.9c-0.2-2-2.2-3.2-4.2-2.6
				c-1.9,0.6-3.9,3.9-3.4,5.9c0.3,1.3,1.1,2.1,2.4,2.5c1.1,0.3,2.3,0.2,3.1-1c0.9,0.6,1.8,1.1,2.7,1.8c0.8,0.6,1.8,1.1,2.7,1.8
				c-0.8,1.3-2.1,1.8-3.5,2c-5,0.7-11.6-3.3-13.4-8.1c-1.6-4,1.8-9,5.6-9.5c3.2-0.4,6,0.6,8.7,2.4c1.6,1.1,3,2.2,4.1,3.9
				c1.1,1.8,1.6,3.6,0.8,5.6C53.7,128.5,53.7,128.5,53.5,128.7z"/>
			<g>
				<path class="st2" d="M99.4,136.7c-2.4-4.6-4.6-9.1-6.9-13.6c0.2-0.2,0.3-0.2,0.5-0.3c3-1.5,6.1-3.1,9.1-4.6c1-0.5,2-0.8,3-1
					c0.7-0.2,1.4-0.1,2.1,0.1c2.6,0.6,3.4,3.3,1.6,5.3c-0.2,0.2-0.5,0.4-0.7,0.5c0.1,0.1,0.1,0.2,0.1,0.2c0.2-0.1,0.5-0.1,0.6-0.1
					c2.1-0.5,4.3,0.6,4.6,2.4c0.5,1.8-0.2,3.2-1.6,4.3c-1.1,0.8-2.3,1.5-3.6,2.2C105.5,133.6,102.5,135.1,99.4,136.7z M103.1,131
					c1.1-0.5,2.1-1,3-1.6c0.4-0.2,0.8-0.5,1-0.8s0.5-0.9,0.2-1.2c-0.2-0.4-0.8-0.6-1.1-0.8c-0.2-0.1-0.6,0-0.8,0.2
					c-1.1,0.5-2.3,1.1-3.5,1.7C102.2,129.3,102.6,130.1,103.1,131z M100.3,125.6c1-0.5,2-1,3-1.5c0.2-0.1,0.4-0.2,0.5-0.4
					c0.4-0.5,0.7-0.9,0.3-1.5c-0.3-0.5-0.8-0.8-1.4-0.5c-1.1,0.5-2.4,1.1-3.6,1.6C99.6,124.1,99.9,124.8,100.3,125.6z"/>
				<path class="st2" d="M91.7,26.9c-2.1-0.5-4.1-1-6.1-1.4c-0.4-0.1-0.5-0.2-0.6-0.6c-0.3-1.5-0.8-3-1.1-4.6
					c-0.2-0.6-0.4-0.9-1-0.8c-0.3,0-0.6-0.1-1-0.2c-0.3,1.8-0.5,3.6-0.8,5.5c-1.9-0.2-3.7-0.4-5.7-0.6c0.2-1.5,0.5-3,0.7-4.4
					c0.5-3.3,1.1-6.8,1.6-10.1c0.1-0.5,0.2-0.8,0.8-0.6c3.5,0.5,7.1,1.1,10.6,1.7c1,0.2,1.9,0.7,2.7,1.2c1.6,1.1,2.1,2.7,1.8,4.5
					c-0.3,1.8-1.4,2.9-3.2,3.3c-0.2,0.1-0.3,0.1-0.5,0.2C90.4,22.2,91,24.5,91.7,26.9z M82.4,16.1c0.5,0.1,0.8,0.2,1.1,0.2
					c1,0.1,2,0.2,3,0.2c0.6,0,1.2-0.4,1.3-1.1c0.1-0.8-0.4-1.3-1-1.4c-1.3-0.3-2.6-0.5-4-0.8C82.7,14.2,82.5,15.1,82.4,16.1z"/>
				<path class="st2" d="M24.5,66.4c-4.9-1.5-9.7-3-14.7-4.5c0.8-2.7,1.6-5.5,2.4-8.2c0.5-1.8,1.1-3.5,2.3-4.9c1.2-1.5,3-2,4.8-1.4
					c1.9,0.6,2.8,1.8,3,3.9c0,0.1,0,0.2,0.1,0.3c2.4-0.3,4.8-0.5,7.4-0.8c-0.5,1-0.8,1.9-1.1,2.8c-0.4,1-0.8,2.1-1.2,3
					c-0.1,0.2-0.4,0.5-0.6,0.5c-1.7,0.2-3.3,0.3-4.9,0.5c-0.2,0-0.5,0.3-0.6,0.5c-0.2,0.4-0.2,0.8-0.4,1.3c1.8,0.5,3.5,1.1,5.3,1.6
					C25.5,62.7,25,64.5,24.5,66.4z M14.9,57.5c0.9,0.2,1.7,0.5,2.4,0.7c0.2,0.1,0.5-0.1,0.5-0.2c0.3-1.1,0.7-2.2,0.9-3.3
					c0.2-0.8-0.2-1.5-0.8-1.7c-0.6-0.2-1.3,0-1.7,0.8C15.6,54.9,15.3,56.2,14.9,57.5z"/>
				<path class="st2" d="M40.5,33.4c-0.2,3.3-1.6,6.2-3.9,8.5c-1.7,1.8-3.7,3.2-6.2,3.7c-3.7,0.7-7.4-1.8-8.1-5.4
					c-0.5-2.7,0.2-5.2,1.6-7.5c1.8-3,4.2-5.2,7.6-6.2C36.1,25.3,40.7,28.8,40.5,33.4z M27,36.6c0,3,2.8,4.9,5.6,3.6
					c1.7-0.8,2.7-2.1,3.1-3.9c0.5-2.3-0.8-4.3-3.1-4.6C29.6,31.2,27,33.6,27,36.6z"/>
				<path class="st2" d="M129.6,49c-1.2-1.8-2.4-3.6-3.4-5.2c0.5-0.9,1.1-1.7,1.1-2.5c0.2-2.4-1.8-4-4.2-3.3
					c-1.4,0.4-2.6,1.1-3.6,2.2c-0.8,1-1.1,2.1-0.6,3.3s1.4,2,2.7,2.1c0.5,0.1,1-0.2,1.5-0.2c1,1.8,2,3.6,3,5.5
					c-1.3,0.7-2.5,0.6-3.8,0.2c-2.2-0.7-3.8-2.2-5.2-4c-2-2.5-3.1-5.3-3.2-8.4c-0.2-5.3,6-8.5,10.1-6.5c2.8,1.3,4.7,3.6,6.2,6.2
					c1.1,2.1,1.9,4.3,1.7,6.6C131.8,46.7,131.1,48,129.6,49z"/>
				<path class="st2" d="M78.9,125.7c0.2,1.1,0.3,2.1,0.5,3.2c0.2,2.2,0.5,4.5,0.8,6.7c0.2,1.4,1.2,2.1,2.9,1.8
					c0.5-0.1,1.1-0.4,1.6-0.7c0.6-0.4,0.9-0.9,0.8-1.7c-0.5-3.3-0.8-6.5-1.2-9.9c1.5-0.2,3-0.4,4.6-0.6c0.2,1.1,0.2,2.2,0.4,3.3
					c0.3,2.4,0.6,4.7,0.8,7.2c0.2,2.5-0.8,4.1-3.2,5.1c-2.7,1.1-5.6,1.3-8.4,1c-2.3-0.2-3.7-1.8-4-4.3c-0.5-3.3-0.8-6.7-1.2-10.1
					C75,126.2,76.9,125.9,78.9,125.7z"/>
				<path class="st2" d="M109.4,37.9c-1.1-0.8-2.1-1.7-3.2-2.5c-0.1-0.1-0.2-0.4-0.1-0.6c0.2-0.7,0.3-1.4,0.5-2.1
					c0.2-0.5,0.1-0.8-0.4-1c-1.3-0.9-2.7-1.8-4-2.7c-0.2-0.2-0.7-0.1-0.9,0c-0.5,0.3-1,0.6-1.5,1c-0.5,0.5-0.9,0.4-1.4,0.1
					c-1-0.6-2-1.2-3.1-1.8c1.6-1.1,3.2-2.2,4.7-3.3c2.9-2,5.8-4,8.6-6c0.5-0.4,0.8-0.3,1.3,0c1,0.7,2,1.3,2.9,2
					c0.2,0.2,0.4,0.5,0.3,0.8C111.9,27.2,110.7,32.6,109.4,37.9C109.5,37.9,109.5,37.9,109.4,37.9z M108.4,24.5
					c-0.1-0.1-0.1-0.1-0.2-0.2c-1.1,0.8-2.3,1.6-3.5,2.4c1,0.6,1.8,1.2,2.7,1.8C107.8,27.2,108.1,25.8,108.4,24.5z"/>
				<path class="st2" d="M72.2,24.3c-1.4,0.2-2.7,0.5-4,0.6c-0.2,0-0.5-0.2-0.6-0.3c-0.5-0.5-0.8-1.1-1.1-1.8
					c-0.2-0.5-0.5-0.5-1-0.5c-1.6,0.4-3.2,0.7-4.7,1.1c-0.2,0.1-0.5,0.4-0.5,0.6c-0.2,0.5-0.2,1.1-0.3,1.7c0,0.8-0.3,1.1-1.1,1.2
					c-1.1,0.2-2.2,0.6-3.4,0.9c0.2-1.6,0.5-3.1,0.8-4.6c0.6-3.8,1.3-7.7,1.9-11.5c0.1-0.5,0.2-0.7,0.7-0.8c1.3-0.2,2.5-0.5,3.8-0.8
					c0.2,0,0.5,0.1,0.6,0.2c3,4.5,5.9,9.1,8.9,13.5C72.1,24,72.1,24.1,72.2,24.3z M64,19.2c-0.8-1.3-1.6-2.4-2.5-3.7
					c-0.2,1.6-0.5,3-0.8,4.5C61.9,19.6,62.9,19.4,64,19.2z"/>
				<path class="st2" d="M42,22.1c-1.4,0.9-2.9,1.8-4.3,2.7c-0.6-1-1.1-2-1.8-3.1c4.5-2.6,9-5.2,13.5-7.8c0.7,1.1,1.2,2.1,1.8,3.1
					c-1.4,0.8-2.8,1.5-4.3,2.4c2,3.4,3.9,6.8,5.9,10.2c-1.7,1-3.3,1.9-4.9,2.9C45.8,28.8,43.9,25.5,42,22.1z"/>
				<path class="st2" d="M134.3,55.8c-0.5-1.7-0.9-3.2-1.4-4.9c1.1-0.3,2.2-0.6,3.3-0.9c1.7,4.9,3,10,4,15.1
					c-1.1,0.3-2.2,0.6-3.3,0.9c-0.4-1.6-0.8-3.1-1.1-4.7c-3.8,1-7.5,2-11.3,3c-0.5-1.8-1-3.7-1.5-5.5
					C126.7,57.8,130.5,56.8,134.3,55.8z"/>
				<path class="st2" d="M69.1,141.3c-4.4-0.8-8.7-1.7-13.1-2.5c1.1-5.1,2.3-10,3.5-15c1.9,0.5,3.7,0.8,5.7,1.3
					c-0.9,3.8-1.8,7.5-2.7,11.4c2.4,0.4,4.6,0.8,7.1,1.1C69.5,138.8,69.4,139.9,69.1,141.3z"/>
			</g>
		</g>
		<path class="st4" d="M81.8,101.2c0.3,0.5,0.5,0.7,0.8,1.1c-0.4,0-0.6,0-1,0C81.7,102,81.8,101.7,81.8,101.2z"/>
		<path class="st5" d="M102.2,97.7c0,0-5.2-0.1-6.5-0.1c-0.3,1.7-1,2.1-2.4,2.1c-2.7,0-2.6-4.4-2.6-4.6c-0.2-1.5,0-5.4,0-5.4
			s0-1.4,0-1.6c-0.1-0.8-0.2-1.6-0.1-2.4c0.1-3.8-1.2-6.8-4-9.4c-0.2-0.1-0.7-0.6-0.7-0.7c-0.5-0.5-1.1-1.8-1.1-1.8
			c-0.2-0.8,0-1.1,1-1.4c3-0.8,5.3-2.3,7.5-4.6c0.8-0.8,2.4-4.9,2.4-6.4c0-1,0.1-1.8,0.1-1.8c0.1-4.9-1.8-9-5.7-12.2
			c0,0-1.5-1.4-2-1.7c-0.8-0.4-1.8-0.8-2.7-1c-1.1-0.3-3.3-0.3-3.3-0.3c-0.8-0.2-4.3-0.1-4.3-0.1H71c0,0-7.4-0.4-9.7-0.3
			c-1.1,0-9.1,0.1-9.1,0.2v4.9c0.9,0,2.1,0,3,0c1.2,0,2.1,0.6,2.8,1.5s0.6,3.9,0.6,3.9s0,41.9,0,42.1c0,1.3-0.8,2.4-1.9,2.4
			c-0.1,0-0.8,0.1-1,0.1c-1.1,0.1-2.7,0-3.5,0v6.4h22.6l-0.3-6.4c-1.4-0.1-2.1-0.2-3.1-0.3c-1-0.1-1.5-0.5-1.8-1.5
			c-0.2-0.6-0.1-1.3-0.1-1.9c0-0.5-0.1-4.9-0.1-4.9V82v-5.7c1.8,0.1,4.3-0.3,6.5,0.4c1.5,0.5,2.5,1.5,3,3c0.4,1.1,0.7,2.4,0.8,3.6
			c0.2,1.7,0.2,3.3,0.3,5l0.1,1.9c0,0.5,0,1.5,0,2.3c0,2.1,0.2,4.1,0.7,6.2c1.1,4.1,4.1,5.8,4.7,6.5c1,0.7,1.6,0.8,2.1,1
			c1.6,0.3,3.2,0.8,4.9,0.8c1.5,0,3.3-0.8,3.6-0.9c0.8-0.4,1.5-0.8,2.2-1.2c0.5-0.5,1.5-1.4,1.9-2.2c0.8-1.5,1-3,2-4.4
			C102,97.8,102.1,97.7,102.2,97.7z M84,59.7c0,1.6-0.9,4.9-1.1,5.3c-0.1,0.2-1.3,2.6-2.1,3.3c-1.7,1.6-3.6,2.4-5.9,2.5
			c-1.6,0.1-3.3,0.1-4.9,0.1c-0.2,0-0.5-0.1-0.8-0.1V49.2c0.2,0,0.6-0.1,0.9-0.1c1.8,0,3.6,0,5.3,0c1.7,0,3.2,0.5,4.7,1.4
			c1.1,0.6,2.6,3.3,3,4.3C83.6,55.9,84,59.7,84,59.7z"/>
		<path class="st6" d="M55.7,41.2"/>
		<path class="st6" d="M83.5,107.5"/>
		<path class="st6" d="M72.2,101.4"/>
		<path class="st7" d="M76.8,101"/>
		<rect x="64.4" y="113.4" class="st8" width="21.2" height="4.9"/>
	</g>
</g>
</svg>
