<svg xmlns="http://www.w3.org/2000/svg" style="display:none;">
    
  <symbol id="fb" viewbox="0 0 480 480">
    <style type="text/css">
	   .st0{fill:#000066;}
      </style>
      <path class="st0" d="M326.4,242.5h-58.9l0.5,207H199l-0.5-207h-57.9v-62.3l57.6,0l-0.6-72.4c-0.5-42.6,34.1-77.4,76.7-77.3l62.7,0.2
	   l-1.2,69.3l-49.5,0.3c-11.5,0.1-20.7,9.6-20.4,21.1l1.8,59.6l70.9,0L326.4,242.5z"/>
    </symbol>  
    
    <symbol id="email" viewbox="0 0 480 480">
    <path class="st3" d="M454,129.8V342c0,6.9-6.9,12.5-15.5,12.5h-397c-8.6,0-15.5-5.6-15.5-12.5V129.2c0-3.1,4.5-4.9,7.5-2.9
		L240,261.3l205.9-134.6C449.1,124.6,454,126.4,454,129.8z"/>
	<polygon class="st4" points="240,238 419.1,125.5 60.9,125.5 	"/>
    </symbol>  
    
    <symbol id="li" viewbox="0 0 480 480">
    <polygon class="st1" points="124.8,449.5 27.5,449.5 27.5,172.5 127,172.5 	"/>
	<ellipse class="st1" cx="78.5" cy="74.6" rx="48.5" ry="44.1"/>
	<path class="st1" d="M366,449.5c0,0,1.6-115.4-1.7-155.3c-1.2-14.4-13.8-50.8-43.9-49.7c-48.2,1.7-56.5,48.1-56.5,48.1v156.8h-97.4
		V173.7l95.1-0.4l-0.6,45.4c0,0,29.5-61,112.3-46.9c47.1,7.9,78.5,56.4,78.4,87.3c0,41.9,0.1,156.2,0.1,190.4H366z"/>
    </symbol>  
    
     <symbol id="twit" viewbox="0 0 480 480">
    <path class="st1" d="M427.8,143.7c0.2,4.2,0.3,8.3,0.3,12.5c0,128-97.5,275.7-275.7,275.7c-54.7,0-105.6-16-148.5-43.5
		c7.6,0.9,15.3,1.4,23.1,1.4c45.4,0,87.2-15.5,120.3-41.5c-42.4-0.8-78.2-28.8-90.5-67.3c5.9,1.1,12,1.7,18.2,1.7
		c8.8,0,17.4-1.2,25.5-3.4c-44.7-9-78.3-48.7-77.7-96.2c0,0,0,0,0,0c13.1,7.3,28,11.6,43.9,12.1c-26-17.4-43.1-47-43.1-80.6
		c0-17.8,4.8-34.4,13.1-48.7c47.8,58.6,119.2,97.2,199.7,101.2c-1.2-5.3-2-10.7-2.3-16.2c-3.2-54.6,40.1-101.6,94.8-102.7
		c28.6-0.6,54.6,11.3,72.6,30.6c22.1-4.3,42.8-12.4,61.5-23.5c-7.2,22.6-22.6,41.6-42.6,53.6c19.6-2.3,38.3-7.6,55.6-15.3
		C463.1,113,446.7,130,427.8,143.7z"/>
    </symbol>  
    
    <symbol id="meet" viewbox="0 0 480 480">
    <path class="st4" d="M230.7,234.5c0.5-5.7,0.2-11.3,0.3-17c-0.5-0.1-1-0.2-1.5-0.3c-2.6,7.3-5.1,14.5-7.7,21.8
			C229.7,241.3,230.2,241.2,230.7,234.5z"/>
		<path class="st4" d="M378.9,257.7c17.5-9,25.9-28,19.2-45C384.4,224.6,382.3,241.2,378.9,257.7z"/>
		<path class="st4" d="M240,22C119.6,22,22,119.6,22,240s97.6,218,218,218s218-97.6,218-218S360.4,22,240,22z M141.1,280.1
			c-3,0.9-4-0.3-4.9-3.1c-4.9-16.3-10.1-32.6-15.4-49.5c-0.3,2.2-0.6,4-0.7,5.8c-0.5,9.9-0.9,19.8-1.5,29.6
			c-0.1,2.3-0.4,4.9-1.4,6.9c-0.7,1.5-2.6,2.8-4.3,3.3c-2.4,0.7-5.1,0.2-7.4,1c-6.1,1.8-9.3-1.3-12.1-6c-3.4-5.8-7-11.5-10.6-17.2
			c-0.3,0-0.5,0-0.7,0c0.7,5.3,1.2,10.5,2.1,15.8c0.5,3-0.7,4.8-3.4,5.9c-0.6,0.2-1.1,0.6-1.7,0.8c-11.7,4.5-14,2.9-15.9-9.3
			c-2.7-17.7-2-35.4-1.4-53.1c0-1,1.2-2.4,2.2-2.9c2-0.9,4.2-1.4,6.3-1.8c8.7-1.4,10.9-0.3,15,7.4c4,7.6,7.9,15.3,12,23
			c0.5,1,1.2,2,2,3.4c1.8-8.5,3-16.5,5.2-24.3c2.1-7.3,5.1-14.5,8-21.5c0.5-1.3,2.9-2.5,4.3-2.5c4.2,0,8.7-0.2,12.6,1.2
			c2.3,0.8,4.6,4.1,5.4,6.8c2.7,9.2,4.8,18.5,6.9,27.9c3.8,16.3,7.4,32.7,11.2,49.5C149.5,277.9,145.3,278.9,141.1,280.1z
			 M163.5,274c-8-5.1-11.2-11.7-11.1-20.7c0.2-10.6-0.2-21.2,2.8-31.6c2.4-8.4,8.1-13.7,14.3-19.2c6.1-5.5,12.1-3.4,18.8-2.3
			c7.4,1.3,8.8,6.2,9.1,12c0.6,10.3,2.6,20.6,0.1,30.9c-0.6,2.6-1.4,4-4.1,3.8c-7.2-0.4-14.3-0.8-22-1.1c-0.9,6.9-1.3,13.8,2.8,20
			c3.9,6,9,7.2,15.8,4.1c5.9-2.7,12.3-1.3,17.2,3.8C196,281.6,174.6,281.1,163.5,274z M233.4,277.5c-3.3-0.7-6.9-0.7-10.2-1.5
			c-12.2-3.1-19.4-13.7-19.8-26.3c-0.4-12.2,2.6-23.7,7.5-34.3c3.5-7.6,10.1-13.7,15.8-20.2c1-1.2,4.3-1.1,6.2-0.6
			c4.2,1.1,8.4,2.7,12.2,4.6c1.4,0.7,3,3.2,2.9,4.8c-0.3,6.7-1.3,13.3-2,20c-0.8,7.9-1.4,15.9-2.1,24.3c-7.3,4.6-15.2,1.7-23.2,0.6
			c-2.6,7.8,1.1,13.3,5.6,18.5c3.7,4.3,8.6,4.5,13.4,2.8c2.9-1,5.4-3.3,8.2-4.6c1.2-0.6,2.9-0.8,4.3-0.4c3.2,0.8,5.1,2.9,5.2,6.8
			C249.9,275.8,242.4,279.4,233.4,277.5z M304,242.2c-5.5,0.8-11,1.6-16.5,2.3c-1.9,0.2-3.6,0.1-3.4,3.1c0.4,5.3,0.1,10.6,0.2,15.9
			c0.1,5.3,0.4,10.7,0.7,16.5c-4.1,0.7-8,1.3-12.5,2.1c-0.3-6.2-0.6-12.1-1-17.9c-0.4-5.9-1-11.8-1.5-18.2c-4-0.2-7.7-0.6-11.4-0.6
			c-3.5-0.1-6-1.1-5.6-5.1c0.3-4,2.8-5.3,6.5-5.1c3.1,0.2,6.2,0.3,9.6,0.5c-1.3-12.4-2.7-24-3.7-35.7c-0.7-8.4-1-16.9-0.8-25.4
			c0.2-9,4.1-11.1,12.2-7.4c8.4,3.8,8,4.2,7.8,13.2c-0.3,13.8,0.5,27.6,0.7,41.3c0,3-0.9,6.1-1,9.1c0,1.2,0.8,2.4,1.3,3.6
			c0.6-0.9,1.8-1.9,1.8-2.9c0.3-2.9,2.2-4,4.1-2.5c4.7,3.6,8.9,7.8,13.4,11.7C304.5,241.1,304.2,241.7,304,242.2z M340,272.1
			c-1.7,1.8-3.9,3.8-6.2,4.3c-4.1,0.9-8.4,1.2-12.6,1.1c-4.9-0.1-8-3.6-8.9-7.8c-2.5-11.1-4.3-22.4-6.2-33.6
			c-0.5-3.2-0.4-6.6-0.3-9.9c0.1-4.6,2.3-6.1,6.8-4.7c1.3,0.4,2.6,1.1,3.9,1.7c8.7,3.8,8.5,4.1,8.6,13.3c0.1,9.4,1,18.8,1.6,28.2
			c0.1,1,0.6,2.1,1.1,3.6c10.1-8.6,13-19.4,13-31.3c0-2.8-1-5.6-0.8-8.3c0.1-2,1-4.3,2.3-5.7c0.8-0.9,3.2-0.7,4.7-0.3
			c2.2,0.6,4.3,1.9,6.5,2.8c5,2.1,6.1,5.8,5.9,11.2c-0.4,10.8-5.8,18.9-12.4,26.7C344.4,266.2,342.5,269.5,340,272.1z M405.7,255.8
			c-6.1,5.1-12.2,10.3-18.6,15c-2.4,1.8-5.8,2.2-8.8,3.3c-2,8.6-0.8,20.9,3.9,40.1c-4.9,0.2-9.7,0.5-14.5,0.3c-0.8,0-2-2.2-2.2-3.6
			c-1.8-11.6-3.3-23.2-5.1-34.8c-0.3-1.9-1.3-4.1-2.6-5.4c-4.1-3.8-3.8-6.8,1.3-9.4c0.9-0.5,1.6-2.1,1.8-3.3
			c2.1-10.4,3.5-21,6.2-31.3c3-11.3,9.5-20.5,20.2-25.9c2.9-1.4,6.9-1.1,10.3-0.6c3.2,0.5,6,2.7,9.2,3.4c8.6,2,10.6,8.9,11.4,15.9
			C419.8,233.5,417,246.3,405.7,255.8z"/>
		<path class="st4" d="M179.8,235.5c-0.1-6.1-0.3-11.9-0.4-17.7c-0.5-0.1-1.1-0.3-1.6-0.4c-1.5,3.8-3.2,7.4-4.3,11.3
			C171.8,235.1,172,235.1,179.8,235.5z"/>
    </symbol>  
   
    <symbol id="Lou" viewbox="0 0 480 480">
        <path class="st0" d="M240,100.9c-79.1,0-143.2,62.3-143.2,139.1S160.9,379.1,240,379.1S383.2,316.8,383.2,240S319.1,100.9,240,100.9
	z M137.5,191.6l13.1-3.6l4.5-12.9l7.5,11.4l13.6,0.3l-8.5,10.6l3.9,13l-12.7-4.8l-11.2,7.8l0.6-13.6L137.5,191.6z M275.8,273.6
	c-4.5,7.3-8,12.9-12.6,20.4c9.4,17.6,29.3,21.4,48.1,28.4c-2.6,10.2-5.1,19.7-7.5,29.2c-1.2,0.7-2.4,1.3-3.6,2
	c-15.3-19.5-30.6-39.1-45.9-58.6c-0.7,0.4-1.5,0.8-2.2,1.2c11.2,18.9,22.4,37.9,34.7,58.6c-4.8-0.2-6.9,0.2-8.6-0.5
	c-10.6-4.4-18.6-2.7-25.8,7.2c-5.4,7.5-15,10.6-22,3.3c-9.8-10.2-19.3-17.2-34.7-8.6c-0.5-1.2-0.9-2.4-1.4-3.7
	c11-18.7,22.1-37.4,33.1-56.1c-0.7-0.4-1.4-0.8-2.1-1.2c-15.1,19.4-30.1,38.7-45.2,58.1c-1.2-0.5-2.4-0.9-3.6-1.4
	c-2.3-8.3-5.2-16.5-6.5-24.9c-0.3-2.1,4-5.9,7-7.5c9.9-5.1,20.6-8.6,30.1-14.4c7.6-4.7,14.5-11.2,3.1-20.2
	c-2.7-2.1-3.5-6.8-5.8-11.7c4.6,0.8,7.3,1.3,10.6,1.9c-9.2-24.5-33.8-25.5-61.3-3.7c-2.1-19.9,10.6-38.3,28.8-41.6
	c13.6-2.5,27.9-2.5,35.4,10.8c6.1,10.9,8.1,24.2,14.4,37c-0.4-7.5,0.9-15.8-1.7-22.5c-3.7-9.4-9.2-18.8-16.2-26.1
	c-15.1-15.7-17.3-33.7-12.1-53.3c6.2-23.4,20.3-42.1,40.3-64.6c2.2,4.8,3.5,8.7,5.5,12.1c9,15,19.7,29.3,26.9,45.1
	c10.4,22.7,7.5,44.3-11.4,62.6c-11,10.7-17.4,23.8-16.4,39.7c0.1,2.2,1.1,4.3,4.3,6.8c0.6-2.9,1.6-5.9,1.8-8.9
	c1.5-27.5,12.9-40.3,35.8-39.8c23.1,0.4,37.8,17.2,37.5,43c-29.3-21.9-50.4-21.2-62,3.1C267.6,274.5,270,274.2,275.8,273.6z
	 M336.3,210.4l-12.7-4.8l-11.2,7.8l0.6-13.6l-10.8-8.2l13.1-3.6l4.5-12.9l7.5,11.4l13.6,0.3l-8.5,10.6L336.3,210.4z"/>
    </symbol> 
    
      <symbol id="Rotaract" viewbox="0 0 480 480">
        <path class="st1" d="M386.2,474.9c1.3,1.9,2.2,3.2,3.4,5c-1.7,0-2.9,0-4.6,0C385.3,478.5,385.6,477,386.2,474.9z"/>
          <path class="st2" d="M477.7,458.9c0,0-23.2-0.3-29.3-0.3c-1.5,7.5-4.3,9.6-10.6,9.6c-12.3-0.1-11.6-19.8-11.7-21.1
	c-0.6-7,0-24.4,0-24.4s0.1-6.3,0.1-7.2c-0.2-3.9-0.6-7.3-0.5-10.9c0.5-17.3-5.4-30.7-18-42.1c-0.6-0.5-3-2.9-3.2-3.1
	c-2.1-2.4-5-7.9-5-7.9c-1.2-3.7,0-5.1,4.5-6.3c13.6-3.5,24.1-10.3,33.7-21.1c3.4-3.9,10.5-22.1,10.5-28.8c0-4.6,0.3-8.4,0.3-8.4
	c0.3-22.5-8.2-40.5-25.8-55c0,0-6.8-6.5-9.1-7.6c-3.7-1.8-8.2-3.4-11.9-4.5c-5.2-1.4-15.2-1.4-15.2-1.4c-3.8-0.6-19.1-0.4-19.1-0.4
	h-31c0,0-33.3-1.6-44.1-1.3c-4.8,0.1-41.1,0.4-41.1,0.7v22.5c4,0,9.3,0,13.5,0c5.4,0.1,9.5,2.8,12.7,7c3,4,2.9,17.5,2.9,17.6
	c0,0,0,189.2,0,189.9c0,5.7-3.8,10.5-8.6,10.5c-0.4,0-3.5,0.3-4.6,0.3c-5.1,0.3-11.9,0-15.9-0.1V494h102.2l-1.5-28.8
	c-6.2-0.3-9.3-1.1-14.1-1.5c-4.6-0.4-6.8-2.2-7.9-6.8c-0.7-2.9-0.4-5.7-0.5-8.7c0-1.9-0.2-22.5-0.2-22.5v-38.5v-25.8
	c8,0.5,19.7-1.3,29.1,1.6c6.7,2.1,11.5,6.8,13.6,13.4c1.7,5.3,3.1,10.6,3.7,16.1c0.9,7.5,1.1,15.1,1.5,22.6l0.4,8.7
	c0,2.5,0.1,6.8,0,10.4c-0.1,9.5,0.8,18.7,3.2,27.9c4.8,18.6,18.4,26.2,21.2,29.1c4.5,3,7.1,3.8,9.4,4.3c7.3,1.5,14.6,3.7,22.2,3.7
	c6.7,0,15.1-3.5,16.3-4.2c3.3-1.8,7-3.3,9.9-5.6c2.3-1.9,6.9-6.4,8.6-9.8c3.4-6.8,4.6-13.7,8.8-19.8
	C477.2,459.4,477.4,458.9,477.7,458.9z M395.7,287.4c0,7.1-4.2,22.5-5,23.7c-0.2,1.1-5.7,11.6-9.3,15c-7.5,7.3-16.3,10.8-26.7,11.2
	c-7.3,0.2-15,0.3-22.3,0.4c-1,0-2.4-0.2-3.4-0.2v-97.7c1-0.1,2.9-0.2,4.1-0.2c7.9,0,16.1-0.1,24,0c7.6,0.1,14.5,2.5,21.3,6.1
	c5,2.6,11.8,15.2,13.6,19.3C394.1,269.9,395.7,287.4,395.7,287.4z"/>
          <path class="st3" d="M267.9,204"/>
          <path class="st3" d="M393.8,502.8"/>
          <path class="st3" d="M342.6,475.6"/>
          <path class="st4" d="M363.4,473.7"/>
          <rect x="307.3" y="529.6" class="st5" width="95.4" height="22.5"/>
    </symbol>  
</svg>