<?xml version="1.0" encoding="utf-8"?>
<!-- Generator: Adobe Illustrator 19.2.0, SVG Export Plug-In . SVG Version: 6.00 Build 0)  -->
<svg version="1.1" id="Layer_1" xmlns="http://www.w3.org/2000/svg" xmlns:xlink="http://www.w3.org/1999/xlink" x="0px" y="0px"
	 viewBox="0 0 200 200" style="enable-background:new 0 0 200 200;" xml:space="preserve">
<style type="text/css">
	.st0{fill:#000066;}
</style>
<g id="twitter">
	<path class="st0" d="M177.8,60.2c0.1,1.7,0.1,3.4,0.1,5.2c0,53-40.4,114.2-114.2,114.2c-22.7,0-43.8-6.6-61.5-18
		c3.1,0.4,6.3,0.6,9.6,0.6c18.8,0,36.1-6.4,49.8-17.2c-17.6-0.4-32.4-12-37.5-27.9c2.4,0.5,5,0.7,7.5,0.7c3.6,0,7.2-0.5,10.6-1.4
		C23.7,112.6,9.8,96.2,10,76.5l0,0c5.4,3,11.6,4.8,18.2,5C17.4,74.3,10.4,62,10.4,48.1c0-7.4,2-14.3,5.4-20.2
		c19.8,24.3,49.4,40.3,82.7,41.9c-0.5-2.2-0.8-4.4-1-6.7c-1.3-22.6,16.6-42.1,39.3-42.6c11.9-0.2,22.6,4.7,30.1,12.7
		c9.2-1.8,17.7-5.1,25.5-9.7c-3,9.4-9.4,17.2-17.7,22.2c8.1-1,15.9-3.1,23-6.3C192.5,47.5,185.7,54.5,177.8,60.2z"/>
</g>
</svg>
